<svg width="78" height="93" viewBox="0 0 78 93" fill="none" xmlns="http://www.w3.org/2000/svg">
<path opacity="0.7" d="M64.948 28.1145C64.9734 28.0931 64.9844 28.0547 65.0025 28.0248C65.0111 28.0092 65.0164 27.9918 65.018 27.974C65.0195 27.9561 65.0173 27.9381 65.0116 27.9211C65.0058 27.904 64.9966 27.8884 64.9845 27.8751C64.9724 27.8618 64.9576 27.8511 64.9412 27.8438C64.9381 27.7203 64.9351 27.5968 64.9244 27.47C64.9217 27.4371 64.91 27.4056 64.8904 27.3789C64.8709 27.3523 64.8444 27.3316 64.8138 27.3191C64.7833 27.3066 64.7499 27.3029 64.7175 27.3083C64.685 27.3137 64.6548 27.3281 64.6302 27.3498C62.6411 29.1554 59.1195 29.1801 56.6202 29.782C54.9176 30.1915 52.9002 30.8618 52.3829 32.6809C52.335 32.7212 52.2872 32.7616 52.2513 32.8162C52.2415 32.8274 52.2346 32.8409 52.2312 32.8554C52.2278 32.8699 52.2279 32.8851 52.2316 32.8996C52.2353 32.9141 52.2425 32.9275 52.2525 32.9387C52.2625 32.9499 52.2751 32.9584 52.2891 32.9637C51.2505 33.3174 50.3007 33.8896 49.5033 34.6418C49.9332 33.7696 50.3255 32.8757 50.6851 31.9658C50.6923 31.9678 50.6998 31.9683 50.7071 31.9671C50.7144 31.9659 50.7214 31.9632 50.7276 31.9591C51.9232 31.1775 52.3051 29.8317 52.9978 28.6599L53.4047 28.491C55.4783 27.6762 58.1059 26.9465 59.3972 24.9881C59.4094 24.9638 59.4162 24.9371 59.4169 24.9098C59.4176 24.8825 59.4122 24.8554 59.4012 24.8304C59.3902 24.8054 59.3738 24.7831 59.3533 24.7651C59.3327 24.7471 59.3084 24.7338 59.2822 24.7263C58.0241 24.3391 56.7124 24.1605 55.3993 24.1976C55.7133 23.6447 56.021 23.0939 56.3224 22.5452C56.3396 22.5533 56.3588 22.5563 56.3777 22.5538C56.3965 22.5514 56.4142 22.5435 56.4287 22.5313C56.4432 22.5191 56.4539 22.5029 56.4595 22.4847C56.4651 22.4666 56.4653 22.4472 56.4602 22.4288L56.442 22.2987L56.5675 22.0763C59.2677 20.3881 62.3592 19.1746 63.9957 16.2893C65.0623 14.4188 66.0222 11.6683 65.1997 9.50126C65.2637 9.28485 65.3106 9.06364 65.34 8.83966C65.3469 8.72227 65.1819 8.72094 65.1478 8.81759L65.0404 9.10711L65.0022 9.06181L64.928 8.81408C64.9333 8.80577 64.9366 8.7963 64.9376 8.78643C64.9386 8.77657 64.9373 8.7666 64.9337 8.75733C64.9301 8.74806 64.9244 8.73977 64.917 8.73312C64.9096 8.72648 64.9007 8.72166 64.8911 8.71909C64.8654 8.64866 64.8425 8.57585 64.8116 8.50497C64.7806 8.43409 64.5758 8.47122 64.611 8.58705L64.6385 8.69959C64.6145 8.71264 64.5935 8.73042 64.5766 8.75186C61.8695 13.0406 55.1807 16.147 56.1829 22.0033C56.0423 22.1221 55.9016 22.2409 55.7609 22.3597C55.6765 22.431 55.79 22.5825 55.89 22.5126L56.0394 22.4155C55.7364 23.0157 55.4334 23.6159 55.1322 24.1952C54.4049 24.2283 53.6827 24.3283 52.9746 24.494C53.9927 22.0922 54.2782 19.5134 54.5726 16.9223C54.7873 17.0853 55.0592 16.9964 55.2828 16.8901C55.5657 16.7628 55.843 16.5432 56.1415 16.4173C56.0933 16.5341 56.0732 16.6607 56.0826 16.7871C56.0684 16.8404 56.0579 16.8947 56.0511 16.9495C56.0478 16.9737 56.0496 16.9983 56.0564 17.0218C56.0633 17.0452 56.075 17.067 56.0908 17.0857C56.1065 17.1044 56.1261 17.1196 56.1481 17.1303C56.1701 17.141 56.194 17.1469 56.2184 17.1477C56.2387 17.1532 56.26 17.1536 56.2805 17.149C56.301 17.1444 56.32 17.1349 56.3359 17.1213C56.3619 17.1091 56.3843 17.0903 56.4006 17.0666L56.4231 17.0476C56.5266 16.907 56.5875 16.7395 56.5986 16.5648C56.6119 16.5189 56.6094 16.4697 56.5916 16.4252L56.6005 16.2188C56.6021 16.2003 56.6 16.1817 56.5944 16.164C56.5887 16.1463 56.5796 16.1298 56.5676 16.1156C56.5556 16.1014 56.5409 16.0897 56.5244 16.0812C56.5079 16.0726 56.4899 16.0675 56.4714 16.0659C56.1513 16.124 55.8488 16.2534 55.5863 16.4447C55.3823 16.5684 54.9028 16.9539 54.6525 16.7772C54.637 16.7678 54.6187 16.7643 54.6009 16.7675L54.6889 16.0384C55.17 15.3002 55.7069 14.6004 56.2952 13.945C56.3213 13.9421 56.3459 13.9315 56.366 13.9146C56.386 13.8977 56.4005 13.8752 56.4077 13.8499C56.4239 13.812 56.4373 13.7765 56.4558 13.7414C56.4603 13.7307 56.4638 13.7196 56.4664 13.7082L56.4895 13.6499C57.4166 14.1087 58.2136 12.2669 56.9441 12.0536C56.9065 12.0459 56.8678 12.0468 56.8307 12.0563C56.7936 12.0657 56.7592 12.0834 56.7299 12.1081C56.7007 12.1328 56.6775 12.1637 56.662 12.1987C56.6465 12.2337 56.639 12.2718 56.6403 12.3101C56.6292 12.4567 56.6732 12.6025 56.7636 12.719C56.8539 12.8355 56.9842 12.9144 57.1289 12.9403C57.1165 13.001 57.0889 13.0575 57.0487 13.1046C57.0086 13.1517 56.9572 13.1878 56.8993 13.2097C56.8414 13.2315 56.7788 13.2384 56.7173 13.2296C56.6559 13.2208 56.5975 13.1967 56.5477 13.1595C56.4352 13.0605 56.2028 13.0821 56.1776 13.2634C56.1524 13.4447 56.1329 13.5873 56.1042 13.7473C56.1007 13.7702 56.1024 13.7937 56.1091 13.8159C55.8697 14.343 55.2484 14.9258 54.9254 15.3537C54.8638 15.4349 54.8045 15.5188 54.7453 15.6028C54.8527 14.7653 54.9904 13.9409 55.145 13.1022C55.159 13.111 55.1753 13.1151 55.1917 13.114C55.2081 13.1129 55.2237 13.1066 55.2362 13.096C55.2487 13.0855 55.2575 13.0712 55.2614 13.0552C55.2652 13.0392 55.2639 13.0224 55.2576 13.0072C55.0466 12.2493 56.1863 11.253 56.9686 10.7525C57.0037 10.7773 57.0447 10.792 57.0874 10.7953C57.13 10.7986 57.1727 10.7902 57.2108 10.7711C57.4994 10.639 57.9016 10.2363 57.4963 9.9675C57.0583 9.6486 56.6297 10.2142 56.5468 10.5897C56.5403 10.6184 56.5455 10.6485 56.5611 10.6735C56.5768 10.6984 56.6017 10.7162 56.6303 10.7229C56.2034 11.0204 55.805 11.3568 55.4401 11.7279C55.6467 10.9987 55.9069 10.2862 56.2187 9.59608C56.4845 9.61438 56.7468 9.53151 56.953 9.36406C57.0735 9.3007 57.1772 9.20984 57.2559 9.09877C57.3345 8.9877 57.3859 8.85953 57.4059 8.72458C57.4436 8.26115 56.9699 7.96272 56.5672 7.9196C56.5295 7.91778 56.4917 7.91886 56.4542 7.92282C56.4274 7.83394 56.2734 7.79424 56.2257 7.89757C56.2032 7.91658 56.1998 7.95823 56.1868 7.98856C56.0155 8.07153 55.8832 8.21788 55.8179 8.39693C55.7525 8.57598 55.7591 8.77384 55.8362 8.94902C55.8454 8.96832 55.8594 8.98492 55.8769 8.99716C55.8596 9.09116 55.8658 9.18812 55.8949 9.27943C55.9241 9.37073 55.9753 9.45354 56.044 9.52048L56.0703 9.55162C55.5845 10.5835 55.2036 11.6623 54.9334 12.7717C54.1544 12.2315 53.9828 11.1493 53.5301 10.2706C53.7106 10.1895 53.8714 10.0703 54.0014 9.92114C54.0181 9.88814 54.0247 9.85088 54.0203 9.81403C54.0159 9.77717 54.0008 9.74235 53.9768 9.71394C53.9528 9.68553 53.921 9.66478 53.8854 9.65429C53.8498 9.64381 53.812 9.64405 53.7767 9.65499C53.7017 9.69497 53.6195 9.71985 53.5348 9.72822C53.4659 9.73792 53.4483 9.82553 53.4833 9.87842C53.4422 9.90386 53.3983 9.92464 53.3525 9.94038C53.3557 9.80392 53.3098 9.67055 53.2232 9.56459C53.1848 9.53296 53.1393 9.51129 53.0907 9.50155C53.0421 9.4918 52.9919 9.49427 52.9447 9.50874C52.9157 9.48661 52.8798 9.4756 52.8435 9.47773C52.8073 9.47985 52.7731 9.49495 52.7472 9.52029C52.7172 9.55665 52.6903 9.59553 52.667 9.63651C52.5913 9.67454 52.5288 9.73427 52.4873 9.80814C52.4459 9.88201 52.4273 9.96667 52.4341 10.0514C52.4567 10.1353 52.499 10.2127 52.5573 10.2772C52.5939 10.3523 52.6505 10.4159 52.7209 10.461C52.7912 10.506 52.8726 10.5307 52.9558 10.5323C53.0117 10.5402 53.0685 10.532 53.1196 10.5086C53.1708 10.4852 53.214 10.4476 53.2444 10.4003C53.7354 11.3243 53.9374 12.5796 54.8755 13C54.6177 14.0761 54.4344 15.1718 54.2734 16.2826C54.2101 16.3845 54.1443 16.4837 54.0834 16.5885C54.0729 16.6063 54.0682 16.6269 54.07 16.6476C54.0718 16.6682 54.08 16.6878 54.0934 16.7037C54.1068 16.7196 54.1248 16.7309 54.1448 16.7361C54.1649 16.7414 54.186 16.7402 54.2053 16.7328L53.9423 18.7446C53.4979 18.1498 53.4496 17.2934 53.2368 16.5904C53.024 15.8874 52.7954 15.2171 52.6266 14.5206C53.4001 14.5804 54.0119 13.3072 53.1226 12.899C52.2333 12.4907 51.2834 13.6662 52.1349 14.2179C52.1273 14.3157 52.1398 14.414 52.1717 14.507C52.1782 14.5289 52.1889 14.5493 52.2032 14.5672C52.2176 14.585 52.2353 14.5998 52.2553 14.6108C52.2753 14.6218 52.2973 14.6288 52.32 14.6313C52.3427 14.6338 52.3656 14.6319 52.3874 14.6255C52.6134 15.5211 52.9148 16.3918 53.1809 17.2777C53.3704 17.9131 53.3777 18.5326 53.9302 18.9585C53.7194 20.8703 53.3248 22.7562 52.7519 24.5899C51.7638 24.8356 50.8175 25.2245 49.9431 25.7442C49.4566 24.7 48.7509 23.5159 48.8101 22.3359C49.5001 22.6166 50.2239 21.6757 49.7763 20.8945C49.0672 19.6551 47.4758 20.7272 48.4421 21.6718C48.4136 21.6925 48.3901 21.7194 48.3734 21.7505C48.3566 21.7815 48.3471 21.816 48.3455 21.8513C48.3439 21.8867 48.3502 21.922 48.364 21.9546C48.3778 21.9873 48.3988 22.0165 48.4253 22.04L48.4372 22.0542C48.4756 22.1089 48.5188 22.1601 48.5663 22.2071C48.4513 23.4294 49.1001 24.8943 49.7829 25.8456C48.0431 26.897 46.7886 28.5918 46.2886 30.5662C46.1585 30.7148 46.0333 30.869 45.9057 31.0204L45.5791 31.0731C45.3591 31.1037 45.3648 31.4529 45.5844 31.4276C45.246 31.8679 44.9315 32.3262 44.6421 32.8003C44.731 31.6931 44.703 30.5788 44.5583 29.476C44.4921 28.9694 44.4414 28.4642 44.3987 27.957C44.4265 27.9482 44.4508 27.9308 44.4682 27.9074C44.4856 27.8841 44.4953 27.8558 44.4958 27.8265C44.5628 26.1306 45.4897 24.6254 46.1251 23.0947C46.5267 22.0146 46.717 20.866 46.6856 19.7114C46.7155 16.8935 45.8015 14.141 44.0895 11.8932C44.0726 11.8657 44.0473 11.8444 44.0174 11.8325C43.9874 11.8206 43.9545 11.8188 43.9235 11.8274C43.8926 11.8359 43.8654 11.8544 43.846 11.8799C43.8266 11.9055 43.816 11.9367 43.816 11.9689C43.7591 14.9269 42.0254 17.5257 41.7831 20.4753C41.5599 23.1906 43.4875 25.3993 44.054 27.9425C44.0591 28.04 44.0615 28.1399 44.0719 28.2378C44.2894 31.0126 44.3537 33.4463 43.665 36.1812C43.3547 37.391 42.9597 38.577 42.483 39.7303C42.5144 38.9498 42.4557 38.1678 42.3081 37.3997C42.3178 37.3769 42.3233 37.3525 42.3244 37.3277C42.5584 32.867 43.9552 25.5137 38.2308 24.0712L38.2188 24.0571C38.2217 23.9577 38.0955 23.9624 38.0707 24.0415C37.9987 24.0247 37.9295 24.0055 37.8571 23.994C37.6534 23.9525 37.5924 24.2514 37.7796 24.3018L38.0393 24.3639C37.8147 26.7402 37.9206 29.1382 38.354 31.4895C38.8599 33.9723 41.0972 35.1436 41.9922 37.3851C42.0071 37.414 42.0283 37.4392 42.0543 37.4588C42.2452 38.3815 42.3139 39.3247 42.2588 40.2639C41.7045 41.571 41.0638 42.8444 40.3936 44.0941C40.3764 44.1253 40.3724 44.1621 40.3824 44.1964C40.3924 44.2307 40.4156 44.2597 40.4468 44.2771C40.4781 44.2944 40.5149 44.2987 40.5491 44.2889C40.5833 44.2791 40.6122 44.2561 40.6293 44.2249C42.5253 40.8877 44.1994 37.088 44.5919 33.1919C44.9965 32.5633 45.4324 31.9556 45.8982 31.3711C47.8616 31.0422 49.5866 30.1968 51.363 29.3952C50.417 32.0079 49.4134 34.5867 47.9397 36.9514C47.9002 37.0187 47.8507 37.0799 47.8083 37.1496C47.5637 35.6441 47.9305 34.0977 47.7737 32.5763C47.7655 32.5152 47.6969 32.4568 47.6358 32.4987C47.6358 32.4987 47.619 32.5129 47.6133 32.5177C47.5841 32.3289 47.2534 32.3026 47.2181 32.5119C47.218 32.5293 47.2165 32.5468 47.2138 32.564C47.1906 32.7084 47.1973 32.8563 47.2336 32.9983C47.2295 33.0414 47.2199 33.0838 47.205 33.1243C47.1899 33.1494 47.1831 33.1787 47.1855 33.208C47.1879 33.2373 47.1994 33.2651 47.2184 33.2876C47.2374 33.3101 47.2629 33.3262 47.2914 33.3334C47.3199 33.3407 47.3499 33.3389 47.3771 33.3282C47.3908 33.3393 47.4074 33.3463 47.4249 33.3483C47.4424 33.3503 47.4601 33.3473 47.4759 33.3396C47.4916 33.3319 47.5049 33.3198 47.514 33.3048C47.5231 33.2898 47.5277 33.2724 47.5272 33.2548C47.5263 33.2129 47.5279 33.171 47.5322 33.1294C47.5609 33.0425 47.5805 32.9528 47.5906 32.8618C47.6755 32.6883 47.6201 33.2734 47.6215 33.3207C47.6297 33.8328 47.5706 34.3337 47.5396 34.8449C47.4482 35.6922 47.4801 36.5491 47.6343 37.3887C45.9867 39.8613 43.7815 41.8446 41.4364 43.6453C41.1431 43.8687 40.8521 44.0949 40.5636 44.324C40.5385 44.3329 40.5175 44.3507 40.5045 44.3739L40.2513 44.5877C40.233 44.5982 40.2168 44.6119 40.2034 44.6281C36.3521 47.7102 32.8143 51.289 32.0116 56.3948C31.9828 56.5889 32.2732 56.6589 32.3121 56.4709C32.9082 52.8102 34.8727 50.1136 37.3047 47.7595C38.1575 48.1016 39.0706 47.5391 39.9099 47.2088C39.9237 47.2415 39.9478 47.2689 39.9786 47.2867C40.0093 47.3045 40.0449 47.3119 40.0801 47.3076C40.1671 47.2915 40.2484 47.253 40.316 47.196C40.3835 47.1389 40.4351 47.0652 40.4655 46.9821C40.4774 46.9582 40.482 46.9313 40.4788 46.9048C40.4756 46.8782 40.4646 46.8531 40.4473 46.8326C40.43 46.8121 40.4071 46.7971 40.3815 46.7895C40.3558 46.7818 40.3285 46.7819 40.303 46.7896C39.8389 46.9535 39.3935 47.1452 38.9382 47.3309C38.4943 47.5675 37.9862 47.657 37.4865 47.5866C38.3981 46.7198 39.3721 45.8926 40.3604 45.0824C40.3757 45.104 40.3962 45.1213 40.4202 45.1326C40.4441 45.1439 40.4705 45.1488 40.4967 45.1467C42.6291 45.0292 44.5035 44.2468 46.2961 43.2473C46.4425 43.2837 46.5958 43.2799 46.7399 43.2364C47.4485 43.1382 48.1635 43.0904 48.8795 43.0933C49.4872 43.0652 50.0737 43.0064 50.673 42.9855C50.6251 43.0259 50.5836 43.0851 50.5345 43.1412C50.5136 43.1588 50.5006 43.1841 50.4984 43.2114C50.4962 43.2388 50.5049 43.2659 50.5227 43.287C50.5404 43.308 50.5658 43.3211 50.5931 43.3235C50.6204 43.3259 50.6475 43.3174 50.6684 43.2997C50.8171 43.2029 50.9532 43.088 51.0736 42.9576L51.2074 42.9562C51.2327 42.9576 51.2576 42.9493 51.2769 42.933C51.2963 42.9167 51.3086 42.8935 51.3115 42.8683L51.2827 42.6744C51.2773 42.6573 51.2682 42.6417 51.2561 42.6286C51.2439 42.6156 51.2289 42.6054 51.2123 42.5989C51.1957 42.5924 51.1779 42.5898 51.1602 42.5911C51.1424 42.5925 51.1253 42.5979 51.1099 42.6068C51.0141 42.6736 50.9246 42.7492 50.8426 42.8325C50.6805 42.8288 50.4707 42.7973 50.363 42.801C49.7666 42.8196 49.1852 42.8788 48.5975 42.9191C48.1488 42.9585 47.7167 42.9548 47.2729 42.9658C47.2176 42.9688 46.9395 43.0047 46.7151 43.0244L47.2708 42.7007C47.3004 42.7136 47.3337 42.7146 47.3639 42.7036C47.394 42.6926 47.4187 42.6703 47.4329 42.6415C47.4498 42.6273 47.4519 42.6012 47.4612 42.5837C48.0759 42.2101 48.6811 41.8252 49.2939 41.4436C49.3004 41.4485 49.3077 41.4521 49.3155 41.4541C49.3234 41.4561 49.3315 41.4565 49.3395 41.4552C49.3474 41.4539 49.355 41.4511 49.3618 41.4467C49.3686 41.4424 49.3744 41.4367 49.3789 41.43C49.3986 41.4134 49.4035 41.385 49.4156 41.3651C49.6365 41.2271 49.8598 41.0919 50.0778 40.9563C51.2971 41.5612 52.6512 41.1842 53.9126 40.8515C53.9206 40.8755 53.9366 40.8962 53.9579 40.91C53.9791 40.9237 54.0045 40.9299 54.0296 40.9273L54.0769 40.9262C54.0855 40.9413 54.0969 40.9547 54.1103 40.9658C54.1169 40.9823 54.1286 40.9962 54.1438 41.0055L54.1605 41.0253C54.1605 41.0253 54.1725 41.0394 54.1773 41.0451L54.1916 41.0621C54.2842 41.1544 54.3955 41.2259 54.5179 41.2716C54.7377 41.3451 54.9771 41.329 55.1842 41.2269C55.3912 41.1247 55.5491 40.9447 55.6236 40.726C55.6523 40.5557 55.6204 40.3804 55.5335 40.2305C55.4465 40.0806 55.3101 39.9656 55.1478 39.9055C55.0239 39.8652 54.8909 39.8637 54.7666 39.901C54.6423 39.9384 54.5325 40.013 54.452 40.1147C54.4375 40.1038 54.4201 40.0974 54.402 40.0963C54.3839 40.0951 54.366 40.0994 54.3503 40.1084C54.2662 40.1576 54.1943 40.2253 54.1401 40.3064C54.0858 40.3874 54.0507 40.4798 54.0371 40.5766C52.8296 40.956 51.4263 41.3261 50.2285 40.8436C50.62 40.6052 51.0135 40.3748 51.4113 40.1553C51.7634 40.4352 52.2728 40.3251 52.7137 40.1566C52.7088 40.1797 52.7098 40.2038 52.7166 40.2266C52.7235 40.2493 52.736 40.27 52.753 40.2867C52.7699 40.3033 52.7908 40.3155 52.8136 40.3219C52.8365 40.3283 52.8606 40.3289 52.8836 40.3235C53.1395 40.1977 53.3347 39.9754 53.4265 39.705C53.4481 39.665 53.456 39.6189 53.4491 39.5738C53.4422 39.5287 53.4208 39.4869 53.3883 39.4548C53.3557 39.4227 53.3137 39.402 53.2686 39.3957C53.2234 39.3895 53.1775 39.3981 53.1378 39.4202C53.0134 39.467 52.8986 39.536 52.7989 39.6239C52.7792 39.6453 52.7646 39.6709 52.7562 39.6988C52.466 39.8459 52.146 39.9254 51.82 39.9315C52.9336 39.3181 54.1199 38.8459 55.3516 38.5258C55.346 38.5691 55.3442 38.6128 55.3462 38.6564C55.3517 38.811 55.4132 38.9587 55.5193 39.0717C55.6254 39.1848 55.7688 39.2555 55.9227 39.2707C56.0439 39.2904 56.1677 39.2838 56.2858 39.2512C56.4039 39.2186 56.5134 39.1609 56.6069 39.082C56.7003 39.0031 56.7756 38.9048 56.8275 38.7938C56.8794 38.6829 56.9066 38.5619 56.9075 38.4391C56.9043 38.2365 56.8474 38.0381 56.7428 37.864C56.6382 37.69 56.4895 37.5465 56.3119 37.4483C56.2026 37.4054 56.0846 37.3908 55.9686 37.4059C55.8526 37.4209 55.7425 37.4651 55.6484 37.5343C55.5544 37.6035 55.4796 37.6956 55.4308 37.8018C55.3821 37.908 55.3611 38.025 55.3697 38.1419C55.3715 38.1684 55.3825 38.1934 55.4006 38.2128L55.3929 38.2436C53.9718 38.5808 52.6102 39.1289 51.3533 39.8697C51.347 39.8756 51.3405 39.8811 51.3336 39.8863C50.7707 40.2015 50.2194 40.5361 49.6729 40.8763C50.1626 39.9778 50.4725 38.9692 50.9263 38.0283C50.939 38.0366 50.9543 38.0398 50.9691 38.0372C50.9839 38.0345 50.9971 38.0264 51.0061 38.0143C51.0815 37.9316 51.1386 37.8339 51.1735 37.7274C51.1735 37.7274 51.1879 37.7444 51.2091 37.741C51.4728 37.7764 51.7395 37.711 51.956 37.5579C52.1725 37.4048 52.3228 37.1752 52.3769 36.915C52.3706 36.7353 52.3039 36.5626 52.1877 36.4249C52.0714 36.2872 51.9123 36.1925 51.7362 36.1562C51.6231 36.1251 51.5031 36.1325 51.3951 36.1771C51.2871 36.2218 51.1973 36.3012 51.1396 36.4029C51.1292 36.3889 51.1157 36.3776 51.1002 36.3698C51.0847 36.362 51.0676 36.3579 51.0502 36.3579C51.0329 36.358 51.0158 36.362 51.0004 36.3699C50.985 36.3777 50.9716 36.3891 50.9614 36.403C50.7084 36.7427 50.6224 37.2858 50.9211 37.5768C50.3225 38.7041 49.8029 39.8721 49.366 41.0723L49.0291 41.284C48.5789 41.5671 48.1316 41.8479 47.6818 42.1258C47.7198 42.0452 47.7626 41.9703 47.803 41.8925C47.8163 41.8713 47.8225 41.8464 47.8207 41.8213C47.8188 41.7963 47.8091 41.7724 47.7929 41.7531C47.7766 41.7339 47.7547 41.7203 47.7303 41.7143C47.7059 41.7083 47.6803 41.7102 47.6571 41.7198L47.757 41.33C47.8163 40.9751 47.9192 40.6292 48.0634 40.3001L48.0921 40.3341C48.0991 40.3452 48.1087 40.3543 48.1202 40.3607C48.1316 40.3671 48.1444 40.3705 48.1575 40.3706C48.1706 40.3707 48.1834 40.3675 48.1949 40.3613C48.2063 40.3551 48.216 40.3461 48.223 40.3351C48.2911 40.2388 48.4134 40.121 48.416 39.9927L48.4446 40.0267C48.5406 40.0556 48.6413 40.0646 48.7406 40.0534C48.8399 40.0421 48.9358 40.0108 49.0224 39.9612C49.1091 39.9117 49.1846 39.8449 49.2445 39.7651C49.3044 39.6853 49.3474 39.594 49.3709 39.4968C49.4212 39.3242 49.4198 39.1403 49.3667 38.9678C49.3136 38.7954 49.2113 38.642 49.0723 38.5267C49.0022 38.48 48.9216 38.4516 48.8379 38.4443C48.7542 38.4369 48.6701 38.4509 48.5935 38.4848C48.4821 38.5373 48.3844 38.6148 48.3079 38.7113C48.2314 38.8078 48.1783 38.9208 48.1525 39.0414C48.1493 39.0567 48.1505 39.0725 48.1559 39.0872C48.1614 39.1018 48.171 39.1145 48.1835 39.1239C48.196 39.1333 48.2109 39.1389 48.2264 39.1401C48.2419 39.1412 48.2575 39.1379 48.2711 39.1305C48.3884 39.0352 48.5182 38.9566 48.657 38.8968C48.693 38.8847 48.7297 38.8748 48.7669 38.8671C48.8169 38.8636 48.8113 38.8684 48.8313 38.8806C48.8521 38.8983 48.8699 38.9194 48.8839 38.9429C48.8671 38.9231 48.9315 39.0336 48.9272 39.0227C48.9634 39.1122 48.9788 39.2086 48.9724 39.3046C48.9784 39.3874 48.9536 39.4693 48.9028 39.5345C48.8521 39.5998 48.7789 39.6438 48.6973 39.6581C48.6011 39.6812 48.3949 39.671 48.3542 39.5599C48.3134 39.4488 48.4255 39.262 48.5184 39.1836C48.5316 39.1722 48.5403 39.1564 48.5429 39.1391C48.5455 39.1219 48.5419 39.1042 48.5328 39.0892C48.5236 39.0742 48.5095 39.063 48.4929 39.0574C48.4762 39.0519 48.4582 39.0524 48.442 39.0589C48.3437 39.0914 48.256 39.1497 48.188 39.2276C48.1199 39.3055 48.074 39.4003 48.0548 39.5022C48.0427 39.5703 48.0487 39.6405 48.0724 39.7057C48.0961 39.7709 48.1366 39.8287 48.1898 39.8733C47.8312 39.8996 47.78 40.2727 47.6802 40.5655C47.4789 41.1796 47.3134 41.8051 47.1847 42.4389C46.5811 42.8029 45.9685 43.1505 45.3419 43.4758C44.6526 43.8268 43.9371 44.1245 43.2018 44.3662C42.5252 44.598 41.3957 44.4362 40.8213 44.829C40.8494 44.8053 40.8532 44.7584 40.8718 44.7233C40.8834 44.7031 40.8889 44.6799 40.8877 44.6566C41.8081 43.9085 42.7384 43.1666 43.6336 42.4059C45.2453 41.0261 46.6485 39.4198 47.8002 37.6366C47.8144 37.6357 47.8282 37.6317 47.8406 37.6248C47.853 37.6178 47.8637 37.6083 47.8719 37.5967C47.8801 37.5851 47.8856 37.5718 47.8881 37.5578C47.8905 37.5438 47.8898 37.5294 47.886 37.5156C48.3481 36.7957 48.7731 36.0489 49.1733 35.2842C49.5399 34.8524 49.9659 34.4748 50.4385 34.1626C50.411 34.21 50.4745 34.268 50.529 34.2413C52.2993 33.3867 54.1168 34.2092 55.885 34.6708C57.3496 35.0277 58.8874 34.9001 60.2675 34.3072C62.9065 33.2429 64.9127 30.9039 64.948 28.1145ZM56.3903 9.19418C56.3981 9.18151 56.4044 9.168 56.4093 9.15389C56.4436 9.0861 56.3385 9.02446 56.3014 9.09462L56.2694 9.16525C56.2308 9.00282 56.2338 8.83353 56.278 8.67305C56.2903 8.58618 56.3078 8.50015 56.3304 8.41542C56.3892 8.37464 56.4599 8.35414 56.5316 8.357C56.6474 8.36081 56.7594 8.39989 56.8528 8.46902C56.9245 8.52373 56.974 8.60265 56.992 8.69097C56.9796 8.7555 56.9534 8.81648 56.9151 8.86972C56.8769 8.92296 56.8275 8.96718 56.7704 8.99934C56.6656 9.08044 56.5509 9.14792 56.4291 9.2002L56.3903 9.19418ZM52.5564 13.9979L52.5266 13.8484C52.5195 13.8277 52.5079 13.8088 52.4925 13.7931C52.4772 13.7775 52.4585 13.7656 52.4379 13.7582C52.4173 13.7508 52.3953 13.7482 52.3736 13.7506C52.3519 13.753 52.331 13.7603 52.3126 13.772C52.2999 13.7337 52.2949 13.6934 52.2979 13.6532C52.3008 13.6131 52.3118 13.574 52.3301 13.5383C52.3484 13.5026 52.3736 13.4708 52.4043 13.445C52.435 13.4192 52.4706 13.3998 52.5089 13.388C52.9844 13.0835 53.1178 14.2804 52.5564 13.9979ZM48.8797 21.7049C48.873 21.6914 48.8632 21.6797 48.851 21.6709L48.8175 21.6312C48.7816 21.5878 48.7303 21.5598 48.6745 21.5532C48.6271 21.4598 48.6 21.3575 48.5949 21.2531C48.5899 21.1487 48.6069 21.0446 48.6451 20.9475C49.0066 20.6907 49.2514 20.7751 49.3684 21.2049C49.4855 21.6347 49.1896 21.9863 48.8797 21.7049ZM44.2885 12.7339C46.3739 16.5166 45.0291 20.1013 44.3403 23.8693C44.3645 22.6364 44.4279 21.4043 44.5102 20.166C44.6614 17.8849 44.8819 15.429 44.2541 13.1898L44.2885 12.7339ZM42.1165 20.4363C42.1621 18.7779 42.8667 17.1693 43.4076 15.6408C43.4895 15.4067 43.7624 14.7252 43.9857 14.0421C43.5014 18.0351 43.0563 22.32 43.8845 26.1893C43.8999 26.2588 44.0113 26.2423 44.0092 26.1713C43.9225 23.8196 43.7185 21.5231 43.8129 19.1689C43.8837 17.3291 44.0803 15.4899 44.2204 13.6693C44.9983 17.6102 44.1393 21.8274 44.0641 25.8825C44.0362 26.2261 44.0182 26.5759 44.0135 26.9243C43.3786 24.7395 42.0677 22.8103 42.1193 20.4339L42.1165 20.4363ZM44.3433 25.962C44.9847 21.4871 46.9044 16.9223 44.3908 12.7009C46.0087 15.011 46.5583 17.9566 46.3921 20.711C46.2665 22.9025 44.7865 24.7002 44.3653 26.7872C44.3565 26.5085 44.3581 26.2307 44.3461 25.9596L44.3433 25.962ZM39.1177 24.6707C40.725 26.1119 41.5083 27.7931 41.9011 29.9252C42.2208 31.668 41.7851 33.4181 41.8513 35.1519C41.4051 33.1279 41.5139 31.1106 41.1679 29.0796C40.9891 28.0739 40.5957 27.1173 40.0146 26.2753C39.7774 25.6515 39.4184 25.0808 38.9586 24.5964L39.1177 24.6707ZM41.1833 32.8253C41.0446 32.2752 40.9376 31.7178 40.8629 31.1558C40.7193 30.021 40.653 28.7723 40.3974 27.5962C40.7994 28.5224 41.0272 29.514 41.0691 30.521C41.1244 31.26 41.1266 32.039 41.1917 32.8182L41.1833 32.8253ZM38.267 24.3996L38.2695 24.3683L38.3719 24.3983C38.3648 24.4125 38.3618 24.4284 38.3633 24.4443C38.3647 24.4602 38.3707 24.4754 38.3804 24.4881C38.9282 25.162 39.4327 25.8701 39.8906 26.6079C40.453 28.1701 40.461 30.0062 40.7157 31.5808C40.9431 32.8564 41.2467 34.1176 41.6249 35.3576C40.3452 33.5281 39.8678 31.6954 39.5406 29.4642C39.3021 27.7547 39.1192 25.974 38.3046 24.4212L38.267 24.3996ZM40.0289 34.0668C37.932 31.6518 38.2107 27.8663 38.2602 24.7739C38.9454 26.7271 39.1701 28.7343 39.4828 30.7885C39.7596 32.5433 40.2736 34.5392 41.6881 35.7407L41.8225 36.248C41.2751 35.481 40.6788 34.75 40.0374 34.0596L40.0289 34.0668ZM42.0429 36.0182C41.9588 32.0541 42.7652 27.8376 39.6455 24.9476C42.8483 26.8799 42.4584 31.7439 42.1825 35.2359L42.0859 36.2632L42.0429 36.0182ZM62.862 17.4697C61.6372 19.0616 59.7728 19.8161 58.0526 20.7642C59.8231 19.1345 61.4517 17.357 62.9212 15.4506C64.0327 14.0271 65.1184 12.1792 65.1489 10.3202C65.6593 12.6828 64.2228 15.7193 62.8776 17.471L62.862 17.4697ZM64.8611 10.3789C64.8574 14.747 60.0519 17.9946 57.1084 21.0958C58.3875 18.8033 59.7075 16.5878 61.5453 14.5802C62.5934 13.4527 64.1241 11.9663 64.8767 10.3802L64.8611 10.3789ZM60.0151 14.0923C60.3981 13.7011 60.8018 13.3116 61.1939 12.9369C59.1025 15.3575 57.1347 17.9018 56.3337 20.9546C56.398 18.228 58.0769 16.078 60.0307 14.0937L60.0151 14.0923ZM56.375 21.7684C56.3643 21.6416 56.3589 21.5153 56.353 21.3942C56.3721 21.3873 56.3881 21.3738 56.398 21.3561C58.1735 16.5348 61.673 13.2987 64.5976 9.26763C64.611 9.25627 64.6266 9.24779 64.6434 9.24271C64.6603 9.23763 64.678 9.23605 64.6955 9.23808C64.713 9.2401 64.7299 9.24569 64.7452 9.25449C64.7605 9.26328 64.7739 9.2751 64.7845 9.28923L64.8309 9.58959C63.8264 11.8248 62.0873 13.6182 60.4351 15.406C58.7395 17.2451 57.525 19.5171 56.3765 21.7817L56.375 21.7684ZM46.6061 30.206C47.3931 27.7131 49.341 26.0586 51.8108 25.1421C52.9291 24.7573 54.0992 24.5407 55.283 24.4995C56.1595 24.4997 57.0346 24.5807 57.8972 24.7414C54.0755 24.7818 48.1133 26.0088 46.7316 30.0806C46.6905 30.1347 46.6451 30.1779 46.6076 30.2192L46.6061 30.206ZM46.7877 30.3582C47.4751 29.6139 48.2375 28.9426 49.0627 28.3548C51.2119 26.836 53.6076 26.3797 56.1613 26.0762C56.1811 26.0762 56.2 26.0683 56.214 26.0543C56.2279 26.0402 56.2356 26.0212 56.2355 26.0014C56.2354 25.9816 56.2274 25.9625 56.2133 25.9485C56.1992 25.9345 56.1801 25.9266 56.1603 25.9266C52.7594 25.7233 49.5233 27.3305 47.0897 29.7055C49.0965 26.0031 54.2251 25.1987 58.0997 24.9584C58.1155 24.9579 58.131 24.9537 58.1449 24.9462C58.1588 24.9388 58.1708 24.9282 58.18 24.9153C58.1891 24.9024 58.1952 24.8876 58.1977 24.8719C58.2002 24.8563 58.1991 24.8403 58.1944 24.8251L58.3732 24.8827C56.2606 26.5306 53.9448 27.1329 51.3704 27.8855C49.6289 28.386 47.9305 29.0974 46.7395 30.4667L46.7877 30.3582ZM51.6375 28.824C49.971 29.5618 48.3991 30.3944 46.6219 30.8183C49.7288 27.3171 55.6124 28.4457 58.569 24.989C58.7283 25.0921 58.7867 25.2126 58.6623 25.3564C57.2131 27.065 54.4218 27.6807 52.4407 28.4853C52.1767 28.6064 51.9078 28.7219 51.639 28.8373L51.6375 28.824ZM51.6621 29.23C52.0297 29.0603 52.4045 28.8991 52.7792 28.7378C52.2701 29.7788 51.6813 30.9937 50.7767 31.709C51.0936 30.9047 51.3893 30.0828 51.6637 29.2432L51.6621 29.23ZM54.8339 40.35C54.8838 40.3155 54.9446 40.3003 55.0051 40.3073C55.0515 40.3229 55.0927 40.351 55.1244 40.3885C55.156 40.4259 55.1768 40.4713 55.1844 40.5197C55.1883 40.562 55.1785 40.6044 55.1562 40.6405C55.08 40.7194 54.9802 40.7714 54.8716 40.7886C54.8108 40.804 54.7473 40.8054 54.6857 40.7927C54.6241 40.7801 54.566 40.7537 54.5159 40.7155L54.5412 40.6941C54.5526 40.6728 54.5596 40.6493 54.5615 40.6251C54.5635 40.6009 54.5605 40.5766 54.5527 40.5535C54.6517 40.4934 54.7458 40.4253 54.8339 40.35ZM55.9306 37.8187C55.9585 37.7964 55.9918 37.7819 56.0272 37.7767C56.0626 37.7715 56.0988 37.7758 56.1322 37.7892C56.2329 37.8438 56.3193 37.9216 56.3841 38.0162C56.4489 38.1109 56.4902 38.2195 56.5047 38.3331C56.5204 38.3863 56.5241 38.4424 56.5153 38.497C56.5065 38.5517 56.4855 38.6037 56.4539 38.649C56.4223 38.6943 56.3808 38.7319 56.3326 38.7589C56.2844 38.7859 56.2307 38.8017 56.1754 38.8051C55.8387 38.8857 55.7098 38.6647 55.6998 38.4016L55.7167 38.3873C55.8473 38.3594 55.8192 38.1892 55.7149 38.1512C55.7309 38.0822 55.753 38.0148 55.781 37.9498C55.8274 37.8934 55.8836 37.8459 55.947 37.8097L55.9306 37.8187ZM51.0216 37.1136C50.9958 37.0127 50.9933 36.9073 51.0142 36.8056C51.0352 36.7038 51.0792 36.6083 51.1427 36.5264C51.1431 36.597 51.1618 36.6664 51.1971 36.7278C51.2063 36.7434 51.2194 36.7562 51.2351 36.7652C51.2508 36.7741 51.2686 36.7788 51.2866 36.7788C51.3046 36.7788 51.3222 36.7741 51.3378 36.7651C51.3534 36.7561 51.3663 36.7432 51.3753 36.7277C51.4565 36.567 51.4814 36.4538 51.6567 36.4901C51.7429 36.5059 51.8232 36.5456 51.8883 36.6046C51.9535 36.6636 52.0009 36.7396 52.0253 36.8239C52.0842 37.0992 51.5865 37.3545 51.3838 37.3656C51.3063 37.3637 51.2312 37.3375 51.1692 37.2907C51.1071 37.2438 51.0613 37.1787 51.0381 37.1046L51.0216 37.1136ZM64.6154 27.9831L64.624 28.1359C64.5331 28.2795 64.4344 28.4179 64.3282 28.5505C64.4145 28.3236 64.4834 28.0903 64.5343 27.8527C64.5924 27.8473 64.6211 27.8813 64.6291 27.9764L64.6154 27.9831ZM64.1483 28.3775C64.066 28.6152 63.9666 28.8466 63.851 29.0699C62.0244 30.714 58.8338 31.0509 56.6495 31.7118C55.3542 32.1071 53.867 32.4122 52.4984 32.9034C52.509 32.8702 52.5196 32.837 52.5325 32.8067C54.274 31.0162 56.8059 31.3034 59.0968 30.9113C60.993 30.5713 62.9416 29.8765 64.1552 28.3571L64.1483 28.3775ZM59.1256 29.6212C60.2948 29.3905 61.4612 29.1622 62.6029 28.819C63.0466 28.6823 63.4786 28.5106 63.8947 28.3054C63.9229 28.2817 63.9538 28.2556 63.982 28.2318C62.0322 30.4892 59.1608 30.639 56.372 30.9665C55.0188 31.1391 53.7197 31.4842 52.7027 32.3575C53.7924 30.3316 57.1624 29.979 59.1325 29.6008L59.1256 29.6212ZM51.7597 33.5126C51.5968 33.5374 51.4366 33.5769 51.281 33.6306C53.3671 32.5336 56.066 32.0882 58.1372 31.5615C59.7915 31.1347 61.9596 30.7057 63.5061 29.6375C62.331 31.2481 60.6621 32.4292 58.7513 33.0024C56.5546 33.6544 54.1007 33.117 51.841 33.4148C51.8213 33.4163 51.8028 33.425 51.7891 33.4393C51.7754 33.4535 51.7674 33.4724 51.7666 33.4922L51.7597 33.5126ZM56.4211 34.4267C55.3802 34.2386 54.1626 33.7098 52.9971 33.5396C55.2885 33.4963 57.7202 33.8875 59.8302 32.9159C61.4013 32.1907 63.1322 30.8844 64.0296 29.2586C64.1309 29.1731 64.2322 29.0875 64.3191 28.985C63.2579 31.273 61.1957 32.5923 58.8349 33.4895C58.8212 33.4953 58.8101 33.5058 58.8035 33.519C58.7968 33.5323 58.7951 33.5475 58.7987 33.562C58.8022 33.5765 58.8108 33.5893 58.8228 33.5981C58.8348 33.6069 58.8496 33.6111 58.8644 33.6101C60.17 33.3326 61.3828 32.7303 62.3911 31.8585C63.3994 30.9868 64.1708 29.8738 64.6343 28.6219C64.6343 28.6219 64.6512 28.6077 64.6596 28.6005C64.5501 32.3353 59.7999 34.9978 56.416 34.3922L56.4211 34.4267Z" fill="#455C6B"/>
<path opacity="0.7" d="M12.3936 63.9519C12.3674 63.9721 12.3547 64.0099 12.3352 64.039C12.3259 64.0543 12.3199 64.0713 12.3175 64.0891C12.3152 64.1069 12.3165 64.125 12.3215 64.1423C12.3265 64.1595 12.3351 64.1756 12.3466 64.1894C12.3581 64.2032 12.3723 64.2145 12.3884 64.2226C12.386 64.3461 12.3835 64.4696 12.3885 64.5968C12.3897 64.6297 12.4 64.6617 12.4184 64.6892C12.4367 64.7167 12.4623 64.7386 12.4922 64.7525C12.5222 64.7663 12.5554 64.7715 12.588 64.7675C12.6207 64.7636 12.6515 64.7505 12.6771 64.7299C14.7447 63.0149 18.264 63.1474 20.7876 62.6576C22.5068 62.3245 24.5521 61.7449 25.1501 59.9508C25.1997 59.9125 25.2493 59.8743 25.2875 59.8214C25.2978 59.8107 25.3053 59.7975 25.3094 59.7831C25.3135 59.7688 25.314 59.7536 25.3109 59.739C25.3079 59.7243 25.3013 59.7106 25.2918 59.699C25.2823 59.6874 25.2701 59.6783 25.2563 59.6724C26.3097 59.3653 27.2841 58.8362 28.1143 58.1203C27.6459 58.9724 27.2141 59.8479 26.8143 60.7408C26.8072 60.7385 26.7997 60.7377 26.7923 60.7386C26.785 60.7394 26.7779 60.7418 26.7715 60.7457C25.5422 61.4731 25.1006 62.8005 24.3563 63.9402L23.9423 64.0908C21.8344 64.8123 19.1768 65.424 17.7995 67.3228C17.7861 67.3466 17.7782 67.373 17.7763 67.4002C17.7744 67.4274 17.7785 67.4547 17.7884 67.4802C17.7983 67.5057 17.8136 67.5287 17.8334 67.5476C17.8532 67.5665 17.8768 67.5808 17.9027 67.5895C19.1422 68.0324 20.4446 68.2694 21.7581 68.291C21.4198 68.8293 21.0878 69.3658 20.7622 69.9005C20.7453 69.8917 20.7263 69.8878 20.7073 69.8894C20.6884 69.891 20.6704 69.8981 20.6553 69.9096C20.6403 69.9212 20.6289 69.9369 20.6225 69.9548C20.6161 69.9727 20.615 69.9921 20.6193 70.0107L20.6317 70.1414L20.4964 70.358C17.7235 71.924 14.581 72.9984 12.8174 75.8077C11.6684 77.6288 10.5867 80.3337 11.3116 82.5353C11.238 82.7486 11.1813 82.9675 11.142 83.19C11.1298 83.307 11.2946 83.3156 11.3329 83.2206L11.4531 82.9362L11.4893 82.9831L11.5524 83.2339C11.5467 83.242 11.543 83.2513 11.5415 83.2611C11.5401 83.2709 11.541 83.2809 11.5442 83.2904C11.5474 83.2998 11.5527 83.3083 11.5598 83.3153C11.5669 83.3223 11.5755 83.3275 11.585 83.3305C11.6075 83.402 11.6272 83.4757 11.6549 83.5479C11.6827 83.6201 11.8889 83.5922 11.859 83.4749L11.8365 83.3612C11.861 83.3493 11.8828 83.3324 11.9007 83.3118C14.7964 79.1481 21.6172 76.3433 20.8773 70.4481C21.0232 70.3357 21.169 70.2233 21.3148 70.1109C21.4024 70.0435 21.2957 69.887 21.1927 69.9524L21.0391 70.0427C21.3686 69.4566 21.698 68.8706 22.0248 68.3053C22.7528 68.3047 23.4788 68.237 24.1936 68.103C23.0694 70.4571 22.6691 73.0205 22.2593 75.5959C22.0521 75.4234 21.7765 75.5002 21.5484 75.5964C21.2601 75.7109 20.9733 75.9179 20.6695 76.0304C20.7228 75.9159 20.7486 75.7903 20.7448 75.6636C20.7613 75.611 20.7743 75.5572 20.7835 75.5028C20.7879 75.4788 20.7872 75.4541 20.7814 75.4303C20.7756 75.4066 20.7649 75.3843 20.75 75.3649C20.735 75.3455 20.7162 75.3295 20.6947 75.3178C20.6732 75.3062 20.6495 75.2992 20.6252 75.2973C20.6051 75.2909 20.5839 75.2895 20.5632 75.2932C20.5426 75.2968 20.5232 75.3055 20.5067 75.3184C20.4801 75.3294 20.4569 75.3472 20.4396 75.3701L20.4162 75.3881C20.3066 75.5239 20.2383 75.6886 20.2194 75.8627C20.204 75.9079 20.2043 75.9571 20.2201 76.0024L20.202 76.2082C20.1996 76.2266 20.2009 76.2453 20.2057 76.2632C20.2106 76.2812 20.2189 76.298 20.2303 76.3127C20.2416 76.3275 20.2558 76.3398 20.2719 76.3491C20.288 76.3583 20.3058 76.3643 20.3242 76.3667C20.6465 76.323 20.9545 76.2072 21.2253 76.0278C21.4346 75.9133 21.9308 75.5496 22.173 75.7372C22.1881 75.7474 22.2062 75.7517 22.2242 75.7493L22.1036 76.4737C21.5902 77.1897 21.0225 77.8649 20.4056 78.4934C20.3794 78.4951 20.3543 78.5045 20.3335 78.5205C20.3128 78.5365 20.2972 78.5584 20.2889 78.5833C20.2711 78.6205 20.2561 78.6554 20.236 78.6896C20.2311 78.7001 20.227 78.711 20.224 78.7222L20.1983 78.7795C19.2926 78.2798 18.4142 80.0841 19.6729 80.354C19.7101 80.3633 19.7489 80.3641 19.7863 80.3563C19.8238 80.3485 19.859 80.3324 19.8893 80.309C19.9196 80.2857 19.9442 80.2558 19.9612 80.2215C19.9783 80.1873 19.9874 80.1496 19.9879 80.1112C20.0054 79.9653 19.968 79.8177 19.883 79.6973C19.7979 79.5768 19.6713 79.4922 19.5278 79.4599C19.543 79.3998 19.5731 79.3445 19.6153 79.2993C19.6575 79.254 19.7104 79.2202 19.7693 79.201C19.8281 79.1818 19.8909 79.1777 19.9519 79.1892C20.0129 79.2007 20.0701 79.2274 20.1183 79.2668C20.2263 79.3708 20.4594 79.3596 20.4927 79.1795C20.5259 78.9995 20.5517 78.858 20.5876 78.6994C20.5921 78.6766 20.5915 78.6531 20.5857 78.6306C20.8484 78.1148 21.495 77.5603 21.8369 77.1472C21.9021 77.0689 21.965 76.9876 22.0279 76.9064C21.8833 77.7383 21.7089 78.5557 21.517 79.3866C21.5035 79.3772 21.4873 79.3724 21.4709 79.3728C21.4545 79.3731 21.4386 79.3787 21.4256 79.3887C21.4127 79.3987 21.4032 79.4126 21.3987 79.4284C21.3941 79.4442 21.3947 79.461 21.4003 79.4765C21.5773 80.2431 20.3942 81.1875 19.5904 81.6526C19.5564 81.6263 19.5161 81.6097 19.4736 81.6045C19.4312 81.5994 19.3882 81.6058 19.3492 81.6232C19.0551 81.7423 18.6353 82.1266 19.0282 82.4133C19.4515 82.7514 19.9049 82.2056 20.0045 81.8341C20.0123 81.8057 20.0085 81.7754 19.9939 81.7498C19.9794 81.7241 19.9553 81.7052 19.927 81.6973C20.3668 81.4192 20.7798 81.1009 21.1609 80.7464C20.9219 81.4657 20.6302 82.1659 20.2879 82.8414C20.0232 82.8112 19.7575 82.8823 19.544 83.0404C19.4208 83.0983 19.3132 83.1844 19.2296 83.2919C19.1461 83.3993 19.089 83.5251 19.063 83.659C19.0047 84.1203 19.4646 84.4396 19.865 84.5006C19.9025 84.5041 19.9403 84.5047 19.978 84.5024C20.0008 84.5924 20.1529 84.639 20.2052 84.5379C20.2285 84.5199 20.2337 84.4784 20.248 84.4487C20.4229 84.3735 20.5615 84.2332 20.6348 84.0572C20.7081 83.8812 20.7104 83.6833 20.6411 83.5048C20.6329 83.4852 20.6196 83.4679 20.6027 83.4549C20.6242 83.3618 20.6223 83.2647 20.5972 83.1721C20.5722 83.0796 20.5247 82.9946 20.4591 82.9247L20.4342 82.8924C20.9656 81.8832 21.3942 80.8225 21.7137 79.7263C22.4678 80.3007 22.5909 81.3895 23.004 82.2875C22.82 82.3605 22.6541 82.4724 22.5175 82.6156C22.4994 82.6478 22.4911 82.6847 22.4939 82.7217C22.4966 82.7587 22.5101 82.7942 22.5328 82.8237C22.5555 82.8531 22.5864 82.8753 22.6215 82.8873C22.6566 82.8994 22.6944 82.9008 22.7302 82.8915C22.8068 82.8549 22.89 82.8337 22.975 82.8291C23.0443 82.8225 23.0658 82.7358 23.0332 82.6814C23.0754 82.6578 23.1202 82.639 23.1666 82.6253C23.1573 82.7615 23.1972 82.8968 23.2791 83.0065C23.3159 83.0398 23.3604 83.0635 23.4085 83.0754C23.4567 83.0873 23.5069 83.0871 23.5548 83.0747C23.5827 83.0981 23.6181 83.1107 23.6544 83.1102C23.6907 83.1097 23.7256 83.0961 23.7526 83.072C23.7842 83.037 23.8128 82.9994 23.8379 82.9595C23.9152 82.9249 23.9803 82.868 24.025 82.796C24.0697 82.7241 24.092 82.6403 24.0891 82.5554C24.0702 82.4706 24.0315 82.3914 23.9761 82.3243C23.9429 82.2476 23.8891 82.1816 23.8209 82.1334C23.7526 82.0853 23.6724 82.057 23.5893 82.0516C23.5339 82.0412 23.4767 82.0469 23.4246 82.068C23.3725 82.0891 23.3276 82.1247 23.2952 82.1707C22.8459 81.2257 22.7001 79.9626 21.7817 79.5008C22.0872 78.4373 22.3193 77.3508 22.5297 76.2483C22.5975 76.1493 22.6676 76.0532 22.7331 75.9512C22.7444 75.9339 22.75 75.9135 22.7491 75.8928C22.7483 75.8721 22.741 75.8521 22.7283 75.8357C22.7156 75.8192 22.6982 75.8071 22.6784 75.801C22.6585 75.7948 22.6374 75.7951 22.6178 75.8015L22.9703 73.8036C23.3877 74.4176 23.3978 75.2753 23.579 75.9871C23.7602 76.6989 23.9587 77.3787 24.0962 78.0821C23.3262 77.9878 22.6581 79.2324 23.5283 79.6799C24.3985 80.1274 25.3999 78.9955 24.5739 78.4063C24.5859 78.3091 24.5777 78.2102 24.5501 78.116C24.5446 78.0938 24.5348 78.0729 24.5212 78.0544C24.5077 78.036 24.4907 78.0204 24.4711 78.0085C24.4516 77.9966 24.43 77.9887 24.4074 77.9851C24.3849 77.9816 24.3619 77.9825 24.3398 77.9879C24.154 77.0832 23.8918 76.1999 23.6655 75.3029C23.5045 74.6597 23.5248 74.0405 22.992 73.5904C23.2878 71.6899 23.7662 69.8235 24.4203 68.0172C25.4185 67.8158 26.3811 67.4696 27.2779 66.9894C27.7173 68.0543 28.3695 69.2686 28.2577 70.4448C27.5809 70.1336 26.8158 71.0413 27.2281 71.8417C27.8812 73.1115 29.5188 72.1115 28.5957 71.1247C28.6251 71.1053 28.6497 71.0795 28.6678 71.0492C28.6859 71.0189 28.697 70.9849 28.7001 70.9496C28.7033 70.9144 28.6986 70.8789 28.6863 70.8456C28.6739 70.8124 28.6543 70.7823 28.6289 70.7576L28.6176 70.7429C28.5817 70.6865 28.5408 70.6335 28.4954 70.5844C28.6649 69.3684 28.0821 67.8761 27.4425 66.8953C29.2274 65.9225 30.5563 64.2854 31.144 62.3352C31.2805 62.1926 31.4124 62.0441 31.5467 61.8986L31.8753 61.8605C32.0965 61.8398 32.1064 61.4907 31.8859 61.5062C32.2435 61.0814 32.5782 60.6376 32.8885 60.1768C32.7502 61.279 32.7285 62.3934 32.8238 63.5015C32.8674 64.0106 32.8955 64.5176 32.9155 65.0262C32.8873 65.0338 32.8622 65.05 32.8438 65.0726C32.8254 65.0952 32.8145 65.123 32.8127 65.1522C32.67 66.8434 31.6769 68.3058 30.9738 69.8066C30.5244 70.8678 30.283 72.0067 30.2629 73.1615C30.1073 75.9753 30.8976 78.7658 32.5076 81.0878C32.5232 81.116 32.5475 81.1385 32.5769 81.1517C32.6063 81.1649 32.6391 81.1681 32.6704 81.1609C32.7017 81.1538 32.7297 81.1366 32.7503 81.1119C32.7708 81.0873 32.7827 81.0565 32.7841 81.0244C32.973 78.0719 34.821 75.5531 35.1946 72.6172C35.5388 69.9145 33.7117 67.622 33.2592 65.056C33.2584 64.9584 33.2605 64.8586 33.2545 64.7603C33.1611 61.9785 33.2054 59.5443 34.0154 56.8429C34.3794 55.6482 34.8269 54.481 35.3547 53.3501C35.2885 54.1284 35.3122 54.9123 35.4254 55.6862C35.4147 55.7085 35.4081 55.7327 35.4059 55.7574C34.9731 60.2032 33.2496 67.4869 38.9039 69.1833L38.9152 69.198C38.9079 69.2972 39.0342 69.2981 39.0625 69.2202C39.1336 69.2402 39.2019 69.2624 39.2738 69.2772C39.4754 69.3277 39.5496 69.0319 39.3649 68.9731L39.1082 68.8995C39.4387 66.5356 39.4399 64.1352 39.1118 61.767C38.7172 59.2641 36.5344 57.9941 35.7404 55.7148C35.7268 55.6853 35.7066 55.6592 35.6816 55.6385C35.5321 54.7081 35.5055 53.7628 35.6024 52.827C36.2146 51.5459 36.9114 50.3025 37.6368 49.0839C37.6553 49.0535 37.6609 49.0169 37.6525 48.9822C37.644 48.9475 37.6222 48.9174 37.5917 48.8987C37.5613 48.88 37.5247 48.8741 37.4901 48.8824C37.4555 48.8906 37.4256 48.9123 37.4071 48.9427C35.3641 52.1919 33.5221 55.9132 32.9561 59.7879C32.5239 60.3979 32.0612 60.9855 31.5699 61.5486C29.5937 61.7896 27.8327 62.5571 26.0223 63.2786C27.084 60.7107 28.2017 58.1793 29.7794 55.8828C29.8219 55.8173 29.8741 55.7583 29.9195 55.6906C30.0967 57.2055 29.6613 58.734 29.75 60.2609C29.7554 60.3222 29.8214 60.3837 29.8843 60.3446C29.8843 60.3446 29.9018 60.3311 29.9076 60.3266C29.9284 60.5165 30.2576 60.5575 30.3022 60.35C30.3031 60.3326 30.3053 60.3153 30.3088 60.2982C30.3384 60.1549 30.3383 60.0069 30.3084 59.8634C30.3144 59.8205 30.3259 59.7786 30.3426 59.7388C30.3588 59.7144 30.3669 59.6855 30.3658 59.6561C30.3647 59.6267 30.3545 59.5984 30.3365 59.575C30.3185 59.5517 30.2937 59.5346 30.2656 59.526C30.2375 59.5175 30.2074 59.518 30.1797 59.5274C30.1665 59.5157 30.1503 59.508 30.1329 59.5052C30.1155 59.5024 30.0977 59.5046 30.0816 59.5116C30.0655 59.5186 30.0517 59.5301 30.042 59.5447C30.0322 59.5593 30.0268 59.5765 30.0265 59.5941C30.0256 59.636 30.0221 59.6777 30.016 59.7191C29.9833 59.8046 29.9598 59.8933 29.9456 59.9839C29.8531 60.1534 29.9346 59.5713 29.9353 59.524C29.95 59.0121 30.0313 58.5143 30.0851 58.005C30.2142 57.1626 30.2206 56.3052 30.104 55.4595C31.8603 53.0628 34.1519 51.1799 36.575 49.4858C36.878 49.2757 37.1787 49.0626 37.4772 48.8466C37.5027 48.8388 37.5244 48.8221 37.5384 48.7994L37.801 48.5971C37.8196 48.5875 37.8364 48.5745 37.8505 48.5589C41.8355 45.6518 45.5295 42.2343 46.5593 37.1695C46.5968 36.9769 46.3097 36.894 46.2625 37.0801C45.5036 40.7105 43.4207 43.3167 40.8861 45.56C40.0495 45.1802 39.1121 45.7014 38.2589 45.9939C38.2466 45.9606 38.2237 45.9322 38.1938 45.913C38.1639 45.8938 38.1286 45.8849 38.0933 45.8876C38.0056 45.8998 37.9227 45.9346 37.8527 45.9886C37.7827 46.0426 37.7279 46.1139 37.6937 46.1956C37.6808 46.2189 37.675 46.2456 37.677 46.2722C37.6791 46.2989 37.6889 46.3245 37.7053 46.3457C37.7216 46.367 37.7439 46.383 37.7691 46.3918C37.7944 46.4006 37.8217 46.4017 37.8475 46.3952C38.3185 46.2521 38.772 46.0804 39.2351 45.9153C39.6891 45.6987 40.2008 45.632 40.6968 45.7246C39.7474 46.5498 38.7374 47.3328 37.714 48.0981C37.6997 48.0758 37.6799 48.0576 37.6565 48.0452C37.6332 48.0329 37.607 48.0268 37.5807 48.0277C35.4452 48.0499 33.5377 48.748 31.7024 49.6664C31.5576 49.6236 31.4043 49.6205 31.2585 49.6576C30.5462 49.7241 29.8298 49.7399 29.1146 49.705C28.5063 49.706 27.9177 49.7385 27.3181 49.7327C27.3677 49.6945 27.4118 49.6371 27.4634 49.5834C27.485 49.5667 27.4991 49.542 27.5026 49.5148C27.506 49.4876 27.4985 49.46 27.4817 49.4382C27.4649 49.4164 27.4402 49.4022 27.413 49.3986C27.3858 49.3949 27.3584 49.4023 27.3367 49.419C27.1838 49.509 27.0427 49.6178 26.9167 49.7427L26.783 49.7381C26.7577 49.7355 26.7325 49.7427 26.7124 49.7582C26.6924 49.7736 26.679 49.7962 26.675 49.8213L26.6952 50.0163C26.6997 50.0335 26.7081 50.0496 26.7197 50.0632C26.7313 50.0767 26.7457 50.0876 26.762 50.0948C26.7783 50.102 26.796 50.1055 26.8138 50.1049C26.8316 50.1043 26.849 50.0998 26.8647 50.0915C26.9634 50.029 27.0562 49.9575 27.1418 49.878C27.3036 49.8889 27.5118 49.9297 27.6196 49.9308C28.2162 49.9389 28.7996 49.9056 29.3886 49.8916C29.8386 49.8723 30.2701 49.8953 30.7139 49.9041C30.7693 49.9036 31.0487 49.8801 31.2737 49.8704L30.7042 50.169C30.6752 50.1548 30.642 50.1523 30.6114 50.162C30.5807 50.1717 30.5551 50.1928 30.5396 50.2209C30.5221 50.2344 30.5189 50.2603 30.5088 50.2774C29.878 50.6232 29.2562 50.9807 28.627 51.3346C28.6208 51.3294 28.6136 51.3255 28.6059 51.3231C28.5981 51.3208 28.59 51.32 28.582 51.321C28.574 51.3219 28.5663 51.3244 28.5593 51.3284C28.5523 51.3325 28.5463 51.3379 28.5415 51.3443C28.5211 51.3601 28.5149 51.3882 28.5019 51.4076C28.2751 51.5356 28.046 51.6607 27.8221 51.7864C26.6311 51.1277 25.2615 51.4439 23.9865 51.72C23.9796 51.6956 23.9645 51.6743 23.9439 51.6596C23.9232 51.6448 23.8982 51.6376 23.873 51.6391L23.8257 51.6381C23.8177 51.6226 23.807 51.6086 23.7941 51.597C23.7882 51.5802 23.7771 51.5658 23.7624 51.5559L23.7466 51.5353C23.7466 51.5353 23.7352 51.5206 23.7307 51.5148L23.7172 51.4972C23.6287 51.4008 23.5208 51.3244 23.4005 51.2733C23.1842 51.1901 22.9443 51.1954 22.733 51.2882C22.5216 51.381 22.3558 51.5538 22.2716 51.7691C22.2353 51.9379 22.2594 52.1144 22.3395 52.2681C22.4197 52.4217 22.5509 52.5426 22.7103 52.6099C22.8323 52.6557 22.9651 52.6632 23.0909 52.6314C23.2168 52.5996 23.3298 52.53 23.4147 52.432C23.4287 52.4435 23.4458 52.4507 23.4638 52.4526C23.4819 52.4546 23.5 52.4511 23.516 52.4428C23.6023 52.3974 23.6771 52.333 23.7349 52.2544C23.7927 52.1759 23.832 52.0852 23.8498 51.9891C25.0731 51.664 26.4915 51.3568 27.6666 51.8922C27.2648 52.113 26.8614 52.3256 26.4542 52.5271C26.115 52.2318 25.6011 52.319 25.1532 52.4677C25.1591 52.4448 25.1592 52.4207 25.1534 52.3977C25.1475 52.3746 25.136 52.3534 25.1198 52.336C25.1036 52.3186 25.0833 52.3056 25.0607 52.2981C25.0382 52.2906 25.0142 52.289 24.9909 52.2934C24.7296 52.4076 24.5247 52.621 24.4209 52.887C24.3976 52.9261 24.3877 52.9717 24.3926 53.0171C24.3974 53.0625 24.4169 53.1051 24.4479 53.1387C24.479 53.1722 24.5201 53.1948 24.5649 53.2031C24.6097 53.2113 24.656 53.2048 24.6966 53.1845C24.823 53.1432 24.9408 53.0794 25.0443 52.9961C25.0649 52.9756 25.0806 52.9506 25.0903 52.9231C25.3868 52.7892 25.71 52.724 26.036 52.7325C24.896 53.2956 23.6899 53.7144 22.4451 53.9791C22.4527 53.9362 22.4564 53.8926 22.4563 53.8489C22.4578 53.6942 22.4029 53.544 22.3019 53.4263C22.201 53.3086 22.0609 53.2315 21.9079 53.2096C21.7877 53.1844 21.6636 53.1855 21.5442 53.2128C21.4248 53.24 21.3129 53.2928 21.2159 53.3675C21.119 53.4422 21.0395 53.537 20.9827 53.6455C20.9259 53.754 20.8933 53.8737 20.8869 53.9963C20.8811 54.1988 20.929 54.3996 21.0258 54.5782C21.1226 54.7567 21.2647 54.9067 21.4378 55.0128C21.5449 55.0604 21.6623 55.0803 21.7788 55.0704C21.8953 55.0606 22.0073 55.0214 22.1043 54.9564C22.2014 54.8914 22.2802 54.8029 22.3337 54.6989C22.3871 54.595 22.4133 54.479 22.4099 54.3618C22.4093 54.3353 22.3995 54.3098 22.3822 54.2896L22.3913 54.2592C23.8261 53.9858 25.2107 53.499 26.4994 52.8151C26.5059 52.8094 26.5128 52.8042 26.5199 52.7993C27.0962 52.5096 27.6619 52.1999 28.2231 51.8844C27.6938 52.7601 27.3392 53.7539 26.8438 54.6737C26.8315 54.6648 26.8164 54.6609 26.8015 54.6629C26.7866 54.6648 26.773 54.6724 26.7635 54.6841C26.6845 54.7633 26.6231 54.8584 26.5834 54.9632C26.5834 54.9632 26.5698 54.9456 26.5485 54.948C26.2866 54.9009 26.0173 54.9543 25.7942 55.0976C25.5711 55.2409 25.4107 55.4636 25.345 55.7211C25.3432 55.9009 25.4021 56.0764 25.5122 56.2191C25.6222 56.3619 25.7769 56.4636 25.9512 56.5077C26.0628 56.5438 26.183 56.5418 26.2928 56.5021C26.4027 56.4623 26.4961 56.3869 26.5582 56.2879C26.5679 56.3023 26.5809 56.3142 26.5961 56.3227C26.6113 56.3312 26.6282 56.336 26.6455 56.3368C26.6628 56.3376 26.6801 56.3342 26.6958 56.3271C26.7116 56.32 26.7254 56.3092 26.7362 56.2957C27.0041 55.9676 27.1143 55.4289 26.8289 55.1249C27.4772 54.0254 28.0484 52.8818 28.5384 51.7023L28.8844 51.5058C29.3468 51.2431 29.8062 50.9826 30.2679 50.725C30.2264 50.8038 30.1803 50.8768 30.1365 50.9526C30.1222 50.9732 30.1149 50.9979 30.1156 51.023C30.1163 51.0481 30.125 51.0724 30.1404 51.0923C30.1557 51.1123 30.177 51.1268 30.2011 51.1339C30.2252 51.141 30.2509 51.1402 30.2745 51.1317L30.1573 51.5167C30.0822 51.8685 29.964 52.2095 29.8053 52.5318L29.7781 52.4966C29.7716 52.4852 29.7624 52.4756 29.7513 52.4687C29.7401 52.4619 29.7274 52.4579 29.7144 52.4572C29.7013 52.4565 29.6883 52.4592 29.6766 52.4649C29.6649 52.4706 29.6548 52.4791 29.6473 52.4898C29.575 52.583 29.4476 52.6952 29.4393 52.8232L29.4122 52.788C29.3176 52.7549 29.2174 52.7413 29.1177 52.7481C29.018 52.7549 28.9208 52.782 28.8321 52.8276C28.7433 52.8732 28.6649 52.9365 28.6015 53.0136C28.5381 53.0907 28.491 53.1799 28.4632 53.276C28.4052 53.4462 28.3985 53.63 28.4438 53.8046C28.4891 53.9793 28.5845 54.137 28.7182 54.2584C28.7861 54.3083 28.8654 54.3402 28.9487 54.3513C29.032 54.3623 29.1166 54.3521 29.1947 54.3217C29.3083 54.2742 29.4094 54.2012 29.4901 54.1082C29.5708 54.0152 29.6289 53.9047 29.66 53.7853C29.664 53.7702 29.6635 53.7543 29.6587 53.7395C29.6538 53.7246 29.6449 53.7114 29.6328 53.7015C29.6208 53.6916 29.6061 53.6853 29.5906 53.6834C29.5752 53.6816 29.5595 53.6842 29.5456 53.691C29.4242 53.7809 29.291 53.8537 29.1496 53.9073C29.1131 53.9177 29.076 53.926 29.0386 53.932C28.9884 53.9333 28.9942 53.9288 28.9748 53.9157C28.9547 53.8971 28.9379 53.8752 28.925 53.8511C28.9409 53.8716 28.8815 53.7584 28.8853 53.7694C28.8532 53.6784 28.842 53.5814 28.8527 53.4858C28.8504 53.4028 28.8789 53.3221 28.9325 53.2592C28.9861 53.1963 29.0612 53.1556 29.1433 53.1449C29.2404 53.1262 29.446 53.1455 29.4818 53.2583C29.5175 53.3711 29.3972 53.5528 29.3009 53.6269C29.2872 53.6378 29.2778 53.6531 29.2744 53.6703C29.271 53.6874 29.2738 53.7053 29.2823 53.7206C29.2908 53.736 29.3044 53.7478 29.3208 53.7541C29.3371 53.7604 29.3552 53.7607 29.3716 53.7549C29.4713 53.7268 29.5615 53.6725 29.6329 53.5977C29.7044 53.5229 29.7545 53.4303 29.7782 53.3293C29.7934 53.2618 29.7905 53.1915 29.7697 53.1253C29.7489 53.0591 29.7111 52.9995 29.6599 52.9526C30.0193 52.9423 30.0872 52.5719 30.1999 52.2838C30.4285 51.6793 30.6217 51.0618 30.7786 50.4344C31.3977 50.0977 32.0253 49.7778 32.6658 49.4807C33.3701 49.1608 34.0981 48.8954 34.8434 48.6868C35.5297 48.4854 36.6509 48.6974 37.2422 48.3306C37.2131 48.3531 37.2072 48.3997 37.1871 48.434C37.1746 48.4537 37.168 48.4766 37.1682 48.5C36.2154 49.2062 35.2528 49.9058 34.3246 50.6258C32.653 51.9324 31.1794 53.4744 29.9493 55.2044C29.9351 55.2047 29.9212 55.2081 29.9085 55.2145C29.8958 55.2208 29.8847 55.2299 29.8759 55.2411C29.8672 55.2523 29.8611 55.2653 29.858 55.2792C29.855 55.2931 29.855 55.3075 29.8582 55.3214C29.3644 56.0201 28.9066 56.7472 28.4727 57.4932C28.0871 57.9083 27.6447 58.2665 27.1587 58.5573C27.1882 58.5112 27.1274 58.4504 27.0717 58.4746C25.2651 59.2493 23.4861 58.3465 21.7403 57.8065C20.2931 57.3846 18.7511 57.4434 17.3459 57.9742C14.662 58.9197 12.5534 61.1668 12.3936 63.9519ZM20.0986 83.2352C20.0902 83.2475 20.0832 83.2607 20.0778 83.2746C20.0405 83.3408 20.1427 83.4071 20.183 83.3386L20.218 83.2695C20.2493 83.4335 20.2388 83.6025 20.1875 83.7608C20.1713 83.8471 20.15 83.9322 20.1237 84.0159C20.063 84.054 19.9916 84.0713 19.92 84.0652C19.8045 84.0563 19.6944 84.0122 19.6042 83.939C19.535 83.8811 19.489 83.8001 19.475 83.7111C19.4902 83.6471 19.5192 83.5874 19.5598 83.5359C19.6004 83.4844 19.6517 83.4425 19.7102 83.4129C19.8185 83.3365 19.936 83.2742 20.0601 83.2275L20.0986 83.2352ZM24.143 78.6074L24.1661 78.758C24.1722 78.7791 24.183 78.7985 24.1977 78.8148C24.2123 78.8311 24.2305 78.8438 24.2507 78.8521C24.271 78.8604 24.2928 78.8639 24.3146 78.8625C24.3364 78.8611 24.3575 78.8547 24.3764 78.8439C24.3875 78.8827 24.3907 78.9232 24.3859 78.9632C24.3811 79.0032 24.3684 79.0417 24.3486 79.0766C24.3287 79.1115 24.3021 79.142 24.2703 79.1664C24.2385 79.1909 24.2021 79.2086 24.1632 79.2188C23.6746 79.5017 23.5947 78.3001 24.143 78.6074ZM28.16 71.0721C28.166 71.0859 28.1754 71.098 28.1871 71.1074L28.2188 71.1485C28.2528 71.1935 28.3027 71.2237 28.3582 71.2328C28.4014 71.3283 28.4239 71.4316 28.4243 71.5362C28.4247 71.6407 28.403 71.744 28.3606 71.8392C27.9879 72.0796 27.7472 71.9844 27.6494 71.5498C27.5516 71.1152 27.8629 70.7771 28.16 71.0721ZM32.3463 80.239C30.4318 76.367 31.9352 72.8459 32.7914 69.1125C32.7122 70.343 32.5939 71.5711 32.4564 72.8044C32.2035 75.0765 31.8737 77.5202 32.401 79.7852L32.3463 80.239ZM34.8598 72.6412C34.7402 74.296 33.9645 75.8715 33.356 77.3744C33.2637 77.6046 32.9607 78.2732 32.7072 78.9457C33.3692 74.9783 34.005 70.7175 33.3503 66.8151C33.3381 66.745 33.226 66.7565 33.2249 66.8275C33.2066 69.1807 33.3079 71.484 33.1086 73.8317C32.9557 75.6665 32.6772 77.4951 32.4561 79.3076C31.8548 75.3359 32.9011 71.1612 33.1572 67.1136C33.2004 66.7715 33.2339 66.4229 33.2542 66.0751C33.791 68.286 35.0145 70.2718 34.8569 72.6435L34.8598 72.6412ZM32.8818 67.0217C32.0414 71.4635 29.9199 75.9381 32.2426 80.2674C30.7294 77.8874 30.3118 74.9203 30.6007 72.1761C30.824 69.9923 32.3828 68.2624 32.8966 66.1963C32.893 66.4751 32.879 66.7526 32.8789 67.024L32.8818 67.0217ZM38.0446 68.5449C36.5032 67.0333 35.7957 65.3189 35.4984 63.1714C35.2568 61.4161 35.7702 59.6871 35.7815 57.9522C36.1369 59.994 35.9381 62.0045 36.1932 64.0489C36.3269 65.0616 36.6772 66.0348 37.2202 66.9019C37.4293 67.5356 37.7625 68.1218 38.2002 68.6262L38.0446 68.5449ZM36.3449 60.3062C36.459 60.8619 36.541 61.4236 36.5905 61.9883C36.6834 63.1285 36.6938 64.3788 36.8967 65.5652C36.5364 64.622 36.3532 63.6212 36.3562 62.6134C36.3339 61.8726 36.3665 61.0943 36.3362 60.313L36.3449 60.3062ZM38.8823 68.8537L38.8784 68.8848L38.7774 68.8503C38.7852 68.8365 38.7889 68.8206 38.7882 68.8047C38.7874 68.7887 38.7822 68.7733 38.773 68.7602C38.2558 68.0625 37.7834 67.3327 37.3589 66.5751C36.8668 64.9894 36.9407 63.1547 36.7565 61.5703C36.5863 60.2859 36.3393 59.0124 36.0168 57.7568C37.2135 59.6416 37.6087 61.4937 37.836 63.7373C37.9979 65.4557 38.1012 67.2428 38.8458 68.8304L38.8823 68.8537ZM37.5536 59.1175C39.5406 61.6237 39.0933 65.393 38.9059 68.48C38.3085 66.4983 38.1735 64.483 37.9528 62.4169C37.7547 60.6514 37.3302 58.6347 35.9707 57.3712L35.8591 56.8584C36.3718 57.6491 36.9348 58.406 37.5448 59.1243L37.5536 59.1175ZM35.6286 57.0781C35.5358 61.042 34.542 65.2184 37.5296 68.2447C34.4163 66.1714 35.0229 61.3297 35.4543 57.8534L35.5966 56.8314L35.6286 57.0781ZM14.0026 74.6791C15.2972 73.1435 17.1934 72.4729 18.9542 71.6025C17.1128 73.1516 15.4064 74.8547 13.8534 76.6936C12.6794 78.0661 11.5123 79.8637 11.3989 81.7195C10.9944 79.3365 12.565 76.3671 13.9871 74.6771L14.0026 74.6791ZM11.689 81.6737C11.8877 77.3101 16.8334 74.2802 19.9123 71.3134C18.5321 73.5465 17.1146 75.7009 15.1891 77.6245C14.0916 78.7041 12.4961 80.1208 11.6735 81.6716L11.689 81.6737ZM16.6959 78.1802C16.2959 78.554 15.8752 78.925 15.4667 79.2819C17.6641 76.9569 19.7435 74.5031 20.6799 71.489C20.494 74.2101 18.7208 76.283 16.6804 78.1781L16.6959 78.1802ZM20.675 70.6742C20.68 70.8013 20.6798 70.9278 20.6802 71.049C20.6609 71.055 20.6443 71.0678 20.6336 71.085C18.6447 75.8223 15.0043 78.899 11.9027 82.7956C11.8888 82.8063 11.8729 82.8141 11.8558 82.8184C11.8388 82.8227 11.821 82.8235 11.8036 82.8207C11.7862 82.8179 11.7695 82.8116 11.7546 82.8021C11.7397 82.7926 11.7269 82.7802 11.7169 82.7656L11.684 82.4635C12.7873 80.2753 14.6047 78.5614 16.335 76.849C18.111 75.0874 19.4257 72.872 20.674 70.6609L20.675 70.6742ZM30.8107 62.681C29.9132 65.1363 27.8934 66.7022 25.3852 67.5076C24.2508 67.842 23.0722 68.0062 21.8877 67.9946C21.0121 67.9552 20.1415 67.8353 19.2869 67.6362C23.1066 67.7664 29.1176 66.8067 30.6797 62.8006C30.7231 62.7484 30.7705 62.7073 30.8097 62.6677L30.8107 62.681ZM30.6361 62.5208C29.9161 63.2337 29.1245 63.8703 28.2739 64.4207C26.059 65.8421 23.6453 66.191 21.0807 66.3802C21.0609 66.3794 21.0416 66.3864 21.0271 66.3998C21.0126 66.4132 21.004 66.4318 21.0032 66.4516C21.0024 66.4715 21.0096 66.4908 21.023 66.5054C21.0365 66.5201 21.0552 66.5288 21.075 66.5297C24.4634 66.8846 27.768 65.4233 30.3052 63.1593C28.1351 66.7685 22.9758 67.3432 19.0943 67.4104C19.0785 67.4102 19.0629 67.4137 19.0486 67.4205C19.0344 67.4274 19.0219 67.4374 19.0122 67.4499C19.0025 67.4623 18.9958 67.4769 18.9926 67.4924C18.9894 67.5079 18.9898 67.524 18.9938 67.5393L18.8178 67.4738C21.0017 65.9218 23.3421 65.4235 25.9476 64.7865C27.7097 64.3642 29.4381 63.7294 30.689 62.4145L30.6361 62.5208ZM25.7226 63.837C27.4203 63.1743 29.0279 62.4127 30.8222 62.0686C27.5621 65.4276 21.7348 64.0376 18.6269 67.3589C18.4723 67.2488 18.4194 67.1258 18.5501 66.9877C20.0741 65.3455 22.89 64.8549 24.9051 64.1395C25.1743 64.0303 25.448 63.927 25.7217 63.8237L25.7226 63.837ZM25.7161 63.4303C25.3413 63.5835 24.9597 63.7278 24.5782 63.8722C25.1332 62.8549 25.7757 61.6675 26.7113 60.9933C26.3588 61.7827 26.0267 62.5906 25.7152 63.417L25.7161 63.4303ZM23.0437 52.1798C22.9924 52.2121 22.9309 52.2246 22.8708 52.2149C22.8252 52.1972 22.7852 52.1673 22.7553 52.1285C22.7253 52.0896 22.7066 52.0434 22.7012 51.9947C22.6991 51.9522 22.7109 51.9103 22.7347 51.8753C22.8143 51.7999 22.9164 51.7524 23.0256 51.74C23.087 51.7274 23.1506 51.7288 23.2116 51.7442C23.2725 51.7596 23.3293 51.7885 23.3777 51.8289L23.3515 51.8491C23.3391 51.87 23.3312 51.8931 23.3281 51.9172C23.3251 51.9413 23.327 51.9657 23.3338 51.9891C23.2321 52.0448 23.1351 52.1086 23.0437 52.1798ZM21.8352 54.6597C21.8063 54.6807 21.7724 54.6937 21.7368 54.6973C21.7012 54.7009 21.6652 54.695 21.6325 54.6802C21.5343 54.6212 21.4515 54.5395 21.3909 54.4421C21.3304 54.3447 21.294 54.2343 21.2846 54.1202C21.2712 54.0663 21.2701 54.0102 21.2813 53.956C21.2926 53.9017 21.3159 53.8508 21.3495 53.8069C21.3831 53.763 21.4262 53.7273 21.4755 53.7025C21.5249 53.6777 21.5792 53.6643 21.6346 53.6634C21.9746 53.5979 22.0934 53.8244 22.0918 54.0877L22.0743 54.1012C21.9425 54.1232 21.9629 54.2946 22.0655 54.3372C22.0464 54.4054 22.0213 54.4717 21.9904 54.5354C21.9416 54.5897 21.8833 54.6346 21.8183 54.668L21.8352 54.6597ZM26.7078 55.5831C26.7291 55.6851 26.7269 55.7905 26.7014 55.8912C26.6759 55.9919 26.6278 56.0854 26.5606 56.1644C26.5634 56.0938 26.5478 56.0236 26.5153 55.9607C26.5067 55.9448 26.4942 55.9314 26.4789 55.9217C26.4637 55.9121 26.4462 55.9066 26.4282 55.9058C26.4102 55.905 26.3923 55.909 26.3764 55.9172C26.3604 55.9255 26.3469 55.9378 26.3372 55.9529C26.2489 56.1098 26.219 56.2218 26.0455 56.1777C25.9601 56.158 25.8817 56.1148 25.8192 56.053C25.7568 55.9912 25.7128 55.9131 25.6922 55.8278C25.6456 55.5502 26.1543 55.3173 26.3572 55.3153C26.4346 55.3206 26.5084 55.3501 26.5683 55.3997C26.6282 55.4492 26.6711 55.5163 26.6909 55.5914L26.7078 55.5831ZM12.7201 64.098L12.7184 63.9449C12.8155 63.8055 12.9203 63.6716 13.0323 63.5439C12.936 63.7667 12.8568 63.9967 12.7953 64.2318C12.7371 64.2346 12.7099 64.1994 12.7062 64.104L12.7201 64.098ZM13.2043 63.7248C13.2971 63.491 13.4067 63.2642 13.5323 63.0464C15.4304 61.4854 18.6328 61.2912 20.8445 60.7284C22.1561 60.3913 23.6554 60.1529 25.0446 59.7233C25.0325 59.756 25.0205 59.7886 25.0062 59.8184C23.1866 61.5294 20.67 61.1295 18.3639 61.4189C16.4544 61.674 14.4768 62.2811 13.1965 63.7449L13.2043 63.7248ZM18.2775 62.7065C17.0992 62.8848 15.9237 63.0608 14.7679 63.3527C14.3185 63.4694 13.8793 63.6217 13.4544 63.8081C13.4253 63.8306 13.3932 63.8553 13.364 63.8778C15.4126 61.7096 18.2878 61.6881 21.0884 61.4854C22.448 61.3734 23.7612 61.0866 24.8162 60.2595C23.6372 62.2348 20.2547 62.4367 18.2697 62.7266L18.2775 62.7065ZM25.8097 59.1477C25.9736 59.1302 26.1354 59.0978 26.2932 59.0511C24.1603 60.0539 21.4442 60.3785 19.3516 60.8122C17.6799 61.1647 15.4948 61.4966 13.9021 62.4947C15.1479 60.9381 16.8678 59.8327 18.8023 59.3454C21.026 58.792 23.4534 59.4384 25.7241 59.2417C25.7439 59.2411 25.7628 59.2332 25.7771 59.2196C25.7915 59.2059 25.8003 59.1875 25.8019 59.1677L25.8097 59.1477ZM21.1938 58.0265C22.2252 58.2609 23.418 58.8434 24.5748 59.0654C22.2837 59.0064 19.8719 58.5071 17.7207 59.3836C16.1188 60.0379 14.3313 61.2657 13.3623 62.8499C13.2573 62.9308 13.1522 63.0117 13.0608 63.1103C14.2231 60.8719 16.3421 59.646 18.7406 58.855C18.7545 58.8498 18.7661 58.8399 18.7733 58.8269C18.7805 58.8139 18.7829 58.7988 18.78 58.7842C18.7771 58.7695 18.7691 58.7564 18.7575 58.7471C18.7459 58.7377 18.7313 58.7328 18.7165 58.7332C17.3998 58.9522 16.1614 59.4998 15.1151 60.3256C14.0689 61.1515 13.2486 62.229 12.7298 63.4589C12.7298 63.4589 12.7123 63.4724 12.7035 63.4792C12.9796 59.753 17.8438 57.3051 21.1973 58.0612L21.1938 58.0265Z" fill="#455C6B"/>
<rect x="6.94995" y="31" width="65" height="27" fill="white"/>
<path d="M25.08 38.008C25.784 38.008 26.4953 38.074 27.214 38.206C27.9326 38.338 28.5046 38.5287 28.93 38.778C29.062 38.8367 29.1426 38.9027 29.172 38.976C29.216 39.0347 29.2453 39.1447 29.26 39.306L29.502 41.77C29.502 41.814 29.4653 41.8433 29.392 41.858C29.3186 41.858 29.2746 41.836 29.26 41.792C28.9373 40.6627 28.336 39.834 27.456 39.306C26.5906 38.7633 25.5126 38.492 24.222 38.492C23.1073 38.492 22.132 38.7413 21.296 39.24C20.46 39.724 19.8146 40.4133 19.36 41.308C18.9053 42.2027 18.678 43.2367 18.678 44.41C18.678 45.774 18.9566 47.0353 19.514 48.194C20.086 49.3527 20.8486 50.2693 21.802 50.944C22.77 51.6187 23.8113 51.956 24.926 51.956C25.982 51.956 26.8986 51.67 27.676 51.098C28.4533 50.5113 29.0473 49.6167 29.458 48.414C29.458 48.37 29.4873 48.348 29.546 48.348C29.59 48.348 29.6266 48.3553 29.656 48.37C29.7 48.3847 29.722 48.4067 29.722 48.436L29.414 50.922C29.3846 51.098 29.348 51.2153 29.304 51.274C29.2746 51.318 29.194 51.3693 29.062 51.428C27.742 51.9853 26.3486 52.264 24.882 52.264C23.122 52.264 21.648 51.912 20.46 51.208C19.2866 50.4893 18.4213 49.58 17.864 48.48C17.3066 47.38 17.028 46.2213 17.028 45.004C17.028 43.6547 17.402 42.4447 18.15 41.374C18.898 40.3033 19.888 39.4747 21.12 38.888C22.352 38.3013 23.672 38.008 25.08 38.008Z" fill="#4B4444"/>
<path d="M65.6679 38.25C65.7119 38.25 65.7339 38.294 65.7339 38.382C65.7339 38.47 65.7119 38.514 65.6679 38.514C65.1693 38.514 64.7366 38.646 64.3699 38.91C64.0033 39.174 63.6953 39.6213 63.4459 40.252L58.7599 51.978C58.7453 52.0367 58.6646 52.066 58.5179 52.066C58.4006 52.066 58.3199 52.0367 58.2759 51.978L52.7979 40.076C52.5486 39.504 52.2846 39.1007 52.0059 38.866C51.7273 38.6313 51.3679 38.514 50.9279 38.514C50.8839 38.514 50.8619 38.47 50.8619 38.382C50.8619 38.294 50.8839 38.25 50.9279 38.25L51.7639 38.272C52.1746 38.3013 52.5046 38.316 52.7539 38.316C53.3406 38.316 53.9713 38.3013 54.6459 38.272L55.5479 38.25C55.5919 38.25 55.6139 38.294 55.6139 38.382C55.6139 38.47 55.5919 38.514 55.5479 38.514C55.0933 38.514 54.7486 38.5727 54.5139 38.69C54.2939 38.8073 54.1839 39.0053 54.1839 39.284C54.1839 39.46 54.2499 39.6947 54.3819 39.988L58.9799 50.064L62.9399 40.142C63.0573 39.834 63.1159 39.592 63.1159 39.416C63.1159 39.108 62.9766 38.8807 62.6979 38.734C62.4193 38.5873 61.9866 38.514 61.3999 38.514C61.3559 38.514 61.3339 38.47 61.3339 38.382C61.3339 38.294 61.3559 38.25 61.3999 38.25L62.3459 38.272C62.8446 38.3013 63.2993 38.316 63.7099 38.316C64.0179 38.316 64.3626 38.3013 64.7439 38.272L65.6679 38.25Z" fill="#4B4444"/>
<line x1="71.7" y1="31.25" x2="7.19995" y2="31.25" stroke="#455C6B" stroke-width="0.5" stroke-linecap="round"/>
<line x1="71.7" y1="58.25" x2="7.19995" y2="58.25" stroke="#455C6B" stroke-width="0.5" stroke-linecap="round"/>
<path d="M43.1139 43.0001C44.2127 43.0054 45.1021 43.8948 45.1074 44.9935C45.1074 47.0065 41.443 49 41.443 49C41.443 49 37.7785 46.9772 37.7785 44.9935C37.7785 43.8926 38.671 43.0001 39.772 43.0001C40.4459 42.9948 41.076 43.3338 41.443 43.8991C41.8125 43.3365 42.4409 42.9984 43.1139 43.0001Z" fill="#BF9B1C"/>
</svg>
