<svg width="132" height="132" viewBox="0 0 132 132" fill="none" xmlns="http://www.w3.org/2000/svg">
<path d="M80.8325 60.7231C80.6033 60.1606 80.322 59.6502 79.9887 59.1918C79.1762 58.1189 78.2804 57.5825 77.3012 57.5825C76.6658 57.5825 76.0252 57.8168 75.3793 58.2856C74.1502 59.1606 73.0929 60.6814 72.2075 62.8481C71.2804 65.0773 70.8168 67.2648 70.8168 69.4106C70.8168 71.4731 71.1502 73.1918 71.8168 74.5668C72.5564 76.0877 73.5668 76.8481 74.8481 76.8481C75.4418 76.8481 76.1033 76.5773 76.8325 76.0356C77.9783 75.171 78.9627 73.9158 79.7856 72.27C79.8064 72.2075 79.8377 72.145 79.8793 72.0825C80.1189 71.6762 80.4679 71.4731 80.9262 71.4731C81.145 71.4731 81.3533 71.5252 81.5512 71.6293C81.9679 71.8689 82.1762 72.2335 82.1762 72.7231C82.1762 72.9002 82.1241 73.1033 82.02 73.3325C81.3533 74.7491 80.5512 75.9523 79.6137 76.9418C78.0512 78.5773 76.3741 79.395 74.5825 79.395C74.3533 79.395 74.1241 79.3793 73.895 79.3481C72.2908 79.1189 70.9627 78.1658 69.9106 76.4887C68.7439 74.6241 68.1606 72.2908 68.1606 69.4887C68.1606 67.822 68.4002 66.1345 68.8793 64.4262C69.6293 61.7387 70.7856 59.5095 72.3481 57.7387C73.9835 55.9054 75.7127 54.9887 77.5356 54.9887C78.3168 54.9887 79.0616 55.1606 79.77 55.5043C81.27 56.2543 82.395 57.6658 83.145 59.7387C83.2283 59.9366 83.27 60.1293 83.27 60.3168C83.27 60.5356 83.2127 60.7439 83.0981 60.9418C82.8481 61.3585 82.4887 61.5668 82.02 61.5668C81.5408 61.5356 81.145 61.2543 80.8325 60.7231Z" fill="#455C6B"/>
<path d="M51.6918 55.2231C51.9002 55.2231 52.1033 55.2804 52.3012 55.395C52.7075 55.645 52.921 55.9939 52.9418 56.4418C52.5148 59.8064 52.1814 62.4627 51.9418 64.4106C51.3377 69.2231 51.0356 71.9523 51.0356 72.5981C51.0356 75.2231 51.7127 76.5408 53.0668 76.5512C55.5668 76.5408 57.796 75.3585 59.7543 73.0043C61.4002 71.0148 62.671 68.4627 63.5668 65.3481C61.671 65.2648 60.1502 64.7648 59.0043 63.8481C57.671 62.7752 57.0043 61.2908 57.0043 59.395C57.0148 58.0929 57.5356 56.9887 58.5668 56.0825C59.4731 55.3116 60.4835 54.9262 61.5981 54.9262C63.046 54.9262 64.2543 55.395 65.2231 56.3325C66.3168 57.4054 66.8637 58.8325 66.8637 60.6137C66.8637 61.02 66.8273 61.6762 66.7543 62.5825C66.9835 62.5304 67.2127 62.4627 67.4418 62.3793C68.0043 62.1918 68.7023 61.8377 69.5356 61.3168C70.1293 60.9418 70.6189 60.7543 71.0043 60.7543C71.1606 60.7543 71.322 60.8012 71.4887 60.895C71.8741 61.1137 72.0668 61.4523 72.0668 61.9106C72.0564 62.5564 71.5408 63.1814 70.52 63.7856C69.3116 64.4939 67.8637 64.9627 66.1762 65.1918C66.1762 65.2023 66.171 65.2127 66.1606 65.2231C65.2023 68.8481 63.7595 71.9002 61.8325 74.3793C59.2283 77.7543 56.1398 79.4418 52.5668 79.4418C52.0668 79.4418 51.6085 79.3637 51.1918 79.2075C49.4002 78.52 48.5043 76.4158 48.5043 72.895C48.5043 70.9887 48.7387 68.5148 49.2075 65.4731C49.6866 62.3793 49.9731 60.2543 50.0668 59.0981C49.0356 59.7543 48.2179 60.2648 47.6137 60.6293C46.5929 61.2543 45.9887 61.5668 45.8012 61.5668C45.5616 61.5668 45.3325 61.4991 45.1137 61.3637C44.7179 61.1033 44.52 60.7491 44.52 60.3012C44.5304 59.8429 44.7804 59.4523 45.27 59.1293C45.3012 59.1085 45.3429 59.0825 45.395 59.0512C48.9991 56.645 51.0981 55.3689 51.6918 55.2231ZM59.5356 59.7856C59.5356 60.296 59.6502 60.7543 59.8793 61.1606C60.5252 62.3064 61.947 62.8793 64.145 62.8793C64.3116 61.9939 64.395 61.2127 64.395 60.5356C64.395 60.0668 64.3273 59.6241 64.1918 59.2075C63.8168 58.1137 63.0929 57.5668 62.02 57.5668C61.4991 57.5668 61.0252 57.6918 60.5981 57.9418C59.8898 58.3689 59.5356 58.9835 59.5356 59.7856Z" fill="#455C6B"/>
<line x1="30.645" y1="67.145" x2="40.145" y2="67.145" stroke="#BF9B1C" stroke-width="0.5" stroke-linecap="round"/>
<line x1="91.645" y1="67.145" x2="101.145" y2="67.145" stroke="#BF9B1C" stroke-width="0.5" stroke-linecap="round"/>
<path d="M65.9519 83.395C66.6844 83.3986 67.2773 83.9915 67.2809 84.724C67.2809 86.066 64.8379 87.395 64.8379 87.395C64.8379 87.395 62.395 86.0464 62.395 84.724C62.395 83.99 62.99 83.395 63.7239 83.395C64.1732 83.3915 64.5933 83.6175 64.8379 83.9943C65.0843 83.6193 65.5032 83.3939 65.9519 83.395Z" fill="#455C6B"/>
<path fill-rule="evenodd" clip-rule="evenodd" d="M130.701 67.5025L67.5025 0.706836L59.9776 7.82648L59.6417 7.45593L67.1589 0.343637L67.5221 0L67.8657 0.363199L131.064 67.1589L131.408 67.5221L131.044 67.8657L112.524 85.3889L112.188 85.0183L130.701 67.5025ZM18.7538 46.1417L19.0897 46.5123L0.70684 63.905L63.905 130.701L71.2998 123.704L71.6357 124.075L64.2486 131.064L63.8854 131.407L63.5418 131.044L0.343641 64.2486L3.61062e-06 63.8854L0.363202 63.5418L18.7538 46.1417ZM20.2277 47.7678L19.8918 47.3972L2.75814 63.6081L2.39494 63.9517L2.73858 64.3149L63.6081 128.649L63.9517 129.013L64.3149 128.669L70.4977 122.819L70.1618 122.449L63.9713 128.306L3.10178 63.9713L20.2277 47.7678ZM67.0926 2.7386L60.7797 8.71146L61.1156 9.08201L67.4362 3.10179L128.306 67.4362L111.05 83.7628L111.386 84.1334L128.649 67.7994L129.013 67.4558L128.669 67.0926L67.7994 2.75816L67.4558 2.39496L67.0926 2.7386Z" fill="#4B4444"/>
<path d="M107.312 105.499C107.339 105.487 107.357 105.457 107.38 105.436C107.391 105.424 107.399 105.411 107.405 105.396C107.41 105.382 107.413 105.366 107.412 105.35C107.411 105.334 107.407 105.319 107.4 105.305C107.393 105.29 107.383 105.278 107.371 105.268C107.397 105.162 107.424 105.057 107.445 104.947C107.451 104.918 107.448 104.889 107.438 104.862C107.428 104.834 107.41 104.811 107.387 104.793C107.364 104.775 107.337 104.764 107.308 104.761C107.279 104.758 107.25 104.763 107.224 104.775C105.11 105.833 102.119 105.018 99.8581 104.935C98.3179 104.878 96.4489 104.967 95.5786 106.386C95.5285 106.409 95.4784 106.431 95.435 106.469C95.424 106.476 95.415 106.486 95.4086 106.498C95.4023 106.509 95.3988 106.522 95.3985 106.535C95.3982 106.548 95.4011 106.561 95.4069 106.573C95.4128 106.585 95.4214 106.595 95.432 106.603C94.4678 106.656 93.527 106.916 92.6725 107.364C93.2439 106.727 93.7887 106.062 94.3095 105.377C94.3151 105.38 94.3213 105.382 94.3278 105.383C94.3343 105.384 94.3409 105.383 94.3471 105.381C95.546 105.002 96.1892 103.952 97.0545 103.124L97.4394 103.077C99.3903 102.879 101.791 102.884 103.35 101.531C103.366 101.513 103.378 101.492 103.385 101.469C103.392 101.447 103.394 101.422 103.391 101.398C103.387 101.375 103.379 101.352 103.366 101.332C103.352 101.312 103.335 101.295 103.315 101.282C102.34 100.655 101.271 100.192 100.149 99.912C100.547 99.518 100.938 99.1242 101.324 98.7307C101.337 98.7417 101.352 98.7488 101.369 98.7512C101.385 98.7536 101.402 98.7511 101.417 98.7442C101.433 98.7373 101.445 98.7261 101.454 98.712C101.463 98.698 101.468 98.6816 101.468 98.6648L101.484 98.5502L101.643 98.3915C104.332 97.6018 107.24 97.3073 109.312 95.2505C110.661 93.9183 112.127 91.8151 111.945 89.7832C112.05 89.615 112.143 89.4387 112.221 89.2558C112.254 89.158 112.115 89.1177 112.063 89.1915L111.903 89.4114L111.882 89.3639L111.877 89.1363C111.884 89.1305 111.889 89.1233 111.892 89.1152C111.895 89.1071 111.897 89.0983 111.896 89.0896C111.895 89.0809 111.892 89.0725 111.887 89.0651C111.883 89.0577 111.876 89.0515 111.869 89.0471C111.864 88.9813 111.862 88.9141 111.852 88.8467C111.843 88.7793 111.66 88.7621 111.663 88.8686L111.659 88.9706C111.636 88.9759 111.614 88.986 111.594 89.0002C108.282 91.9923 101.875 93.037 101.334 98.2384C101.187 98.3056 101.039 98.3729 100.892 98.4402C100.804 98.4806 100.864 98.6359 100.965 98.6004L101.115 98.5536C100.716 98.9904 100.316 99.4271 99.9234 99.8466C99.2992 99.7019 98.6634 99.6153 98.0239 99.5876C99.457 97.7936 100.311 95.6759 101.176 93.5497C101.319 93.7389 101.571 93.7281 101.785 93.691C102.055 93.6503 102.343 93.53 102.625 93.4942C102.557 93.5817 102.51 93.6843 102.488 93.7936C102.463 93.8354 102.441 93.8789 102.422 93.9238C102.414 93.9435 102.41 93.9648 102.41 93.9863C102.41 94.0078 102.415 94.0291 102.424 94.0487C102.433 94.0683 102.446 94.0858 102.462 94.1C102.478 94.1143 102.497 94.125 102.517 94.1315C102.533 94.141 102.551 94.1464 102.57 94.1474C102.588 94.1483 102.606 94.1448 102.623 94.137C102.648 94.1329 102.671 94.1222 102.691 94.106L102.714 94.0953C102.836 94.0007 102.927 93.8731 102.978 93.7277C103 93.692 103.01 93.6497 103.005 93.6078L103.062 93.435C103.067 93.4197 103.07 93.4034 103.069 93.387C103.069 93.3707 103.065 93.3546 103.058 93.3397C103.051 93.3248 103.042 93.3114 103.03 93.3002C103.018 93.2891 103.004 93.2804 102.988 93.2747C102.703 93.2479 102.416 93.2858 102.148 93.3856C101.946 93.442 101.448 93.6549 101.278 93.4457C101.267 93.434 101.252 93.4267 101.237 93.4252L101.484 92.8282C102.067 92.3168 102.689 91.8511 103.343 91.4353C103.366 91.4391 103.389 91.436 103.41 91.4264C103.431 91.4168 103.449 91.4012 103.461 91.3815C103.483 91.3532 103.503 91.3262 103.527 91.3009C103.534 91.2929 103.539 91.2843 103.544 91.2753L103.577 91.2314C104.254 91.8403 105.367 90.4686 104.342 89.9864C104.312 89.9709 104.279 89.9625 104.245 89.9617C104.211 89.9609 104.178 89.9678 104.147 89.9817C104.117 89.9957 104.09 90.0164 104.068 90.0424C104.047 90.0684 104.031 90.0989 104.023 90.1317C103.979 90.2533 103.982 90.3872 104.031 90.5074C104.08 90.6276 104.171 90.7254 104.288 90.7817C104.263 90.8303 104.226 90.8716 104.181 90.902C104.136 90.9324 104.084 90.9508 104.029 90.9555C103.975 90.9603 103.92 90.9513 103.87 90.9292C103.82 90.9072 103.777 90.8729 103.743 90.8295C103.671 90.7189 103.469 90.682 103.405 90.8297C103.34 90.9774 103.29 91.0936 103.228 91.2224C103.219 91.241 103.215 91.2613 103.216 91.2818C102.888 91.6716 102.223 92.018 101.847 92.3041C101.776 92.3582 101.706 92.4153 101.636 92.4724C101.925 91.788 102.238 91.122 102.568 90.448C102.578 90.4587 102.591 90.4661 102.605 90.4691C102.619 90.472 102.634 90.4704 102.647 90.4644C102.66 90.4584 102.671 90.4484 102.678 90.4357C102.685 90.4231 102.688 90.4086 102.686 90.3942C102.687 89.7017 103.89 89.128 104.671 88.8895C104.695 88.9188 104.727 88.9411 104.762 88.954C104.797 88.9669 104.835 88.9699 104.872 88.9627C105.148 88.9193 105.585 88.6735 105.305 88.3494C105.01 87.9752 104.512 88.3528 104.353 88.6514C104.34 88.6741 104.337 88.7009 104.345 88.7257C104.352 88.7506 104.369 88.7716 104.392 88.7841C103.959 88.9348 103.542 89.1254 103.144 89.3532C103.493 88.7843 103.882 88.2422 104.31 87.7313C104.531 87.81 104.773 87.802 104.988 87.709C105.105 87.6839 105.214 87.6315 105.307 87.5561C105.401 87.4806 105.475 87.3842 105.524 87.2746C105.665 86.8907 105.335 86.5254 105.004 86.3932C104.972 86.3827 104.94 86.3747 104.907 86.3691C104.906 86.2874 104.785 86.2172 104.72 86.2934C104.696 86.3042 104.683 86.3387 104.665 86.3613C104.5 86.391 104.353 86.4836 104.255 86.6199C104.157 86.7561 104.116 86.9253 104.14 87.0921C104.143 87.1107 104.151 87.128 104.163 87.1426C104.126 87.2181 104.108 87.3018 104.111 87.3861C104.114 87.4704 104.138 87.5527 104.18 87.6258L104.195 87.6584C103.538 88.4176 102.959 89.2415 102.467 90.1176C101.935 89.4748 102.047 88.5169 101.872 87.6647C102.044 87.6388 102.208 87.576 102.354 87.4804C102.376 87.4564 102.39 87.4264 102.395 87.3941C102.4 87.3618 102.396 87.3287 102.382 87.299C102.369 87.2692 102.347 87.244 102.319 87.2267C102.291 87.2094 102.259 87.2006 102.227 87.2015C102.154 87.2176 102.078 87.2191 102.004 87.2061C101.944 87.198 101.908 87.2681 101.925 87.3212C101.884 87.333 101.842 87.3402 101.799 87.3426C101.835 87.2278 101.827 87.1038 101.779 86.9934C101.754 86.9575 101.721 86.9284 101.682 86.9086C101.643 86.8888 101.6 86.8789 101.556 86.88C101.537 86.8544 101.509 86.8365 101.478 86.8297C101.447 86.8229 101.414 86.8276 101.386 86.8429C101.352 86.8666 101.32 86.8932 101.291 86.9223C101.217 86.9366 101.15 86.9724 101.098 87.0252C101.045 87.0779 101.009 87.1453 100.995 87.2187C100.994 87.2951 101.011 87.3708 101.046 87.4393C101.059 87.5116 101.092 87.579 101.141 87.6339C101.189 87.6888 101.253 87.729 101.323 87.7502C101.368 87.7701 101.418 87.7766 101.467 87.769C101.516 87.7613 101.562 87.7397 101.599 87.7067C101.795 88.6064 101.669 89.7183 102.364 90.2973C101.89 91.1482 101.474 92.0333 101.074 92.9365C100.996 93.0079 100.917 93.0763 100.841 93.1506C100.827 93.1632 100.819 93.1796 100.815 93.1975C100.812 93.2155 100.814 93.234 100.822 93.2507C100.829 93.2673 100.842 93.2812 100.858 93.2904C100.873 93.2996 100.891 93.3036 100.91 93.302L100.209 94.9445C99.9736 94.3349 100.136 93.5976 100.123 92.9512C100.109 92.3049 100.074 91.6825 100.097 91.0521C100.738 91.2865 101.559 90.3527 100.902 89.7956C100.245 89.2384 99.1613 90.0091 99.7519 90.6789C99.7223 90.7599 99.7095 90.8463 99.7145 90.9326C99.7148 90.9527 99.719 90.9726 99.7269 90.9911C99.7348 91.0096 99.7463 91.0264 99.7607 91.0405C99.7751 91.0546 99.792 91.0657 99.8107 91.0732C99.8293 91.0807 99.8492 91.0845 99.8692 91.0843C99.8481 91.897 99.8968 92.7065 99.912 93.5205C99.9217 94.104 99.7809 94.6308 100.148 95.123C99.5154 96.6932 98.7333 98.1979 97.8124 99.616C96.9165 99.5896 96.0222 99.6945 95.1577 99.9274C94.9934 98.9269 94.6763 97.7558 95.0066 96.7698C95.5248 97.1715 96.3616 96.5459 96.1678 95.7775C95.8611 94.5587 94.2578 95.0895 94.8525 96.1196C94.8234 96.1303 94.7971 96.1475 94.7755 96.1699C94.754 96.1923 94.7377 96.2192 94.728 96.2488C94.7182 96.2784 94.7152 96.3098 94.7192 96.3407C94.7231 96.3717 94.7339 96.4014 94.7508 96.4277L94.7576 96.4425C94.7771 96.498 94.8016 96.5516 94.8307 96.6027C94.443 97.6114 94.6451 99.0069 94.9979 99.9753C93.2737 100.453 91.8081 101.592 90.9156 103.147C90.7701 103.242 90.6274 103.343 90.4833 103.441L90.1939 103.408C90.0002 103.381 89.9221 103.679 90.1142 103.709C89.7229 104.002 89.3476 104.316 88.9897 104.649C89.328 103.732 89.5687 102.781 89.708 101.812C89.7721 101.367 89.8491 100.926 89.9334 100.486C89.959 100.486 89.9837 100.477 90.004 100.461C90.0243 100.445 90.0392 100.424 90.0466 100.399C90.5061 98.9775 91.649 97.9219 92.5509 96.7754C93.1478 95.9553 93.5817 95.0271 93.8292 94.0411C94.5235 91.6599 94.4024 89.1101 93.4851 86.7985C93.4774 86.7712 93.461 86.7471 93.4384 86.7299C93.4158 86.7127 93.3884 86.7034 93.3601 86.7033C93.3318 86.7032 93.3044 86.7124 93.2819 86.7294C93.2594 86.7465 93.243 86.7704 93.2354 86.7977C92.4849 89.2912 90.3985 91.0821 89.4928 93.5245C88.659 95.7728 89.7683 98.1024 89.6446 100.392C89.6258 100.476 89.6041 100.561 89.5897 100.647C89.1152 103.05 88.5919 105.128 87.3589 107.283C86.8087 108.234 86.1924 109.146 85.5145 110.01C85.7264 109.356 85.8623 108.679 85.9196 107.993C85.9332 107.976 85.9437 107.957 85.9505 107.936C87.2079 104.211 90.1375 98.3104 85.6284 95.7288L85.6216 95.714C85.6476 95.6304 85.5396 95.6044 85.4998 95.6656C85.4427 95.6343 85.3886 95.6016 85.33 95.5746C85.1672 95.4911 85.0446 95.7299 85.1913 95.8171L85.3966 95.9313C84.642 97.892 84.1625 99.9496 83.9716 102.045C83.8109 104.27 85.4289 105.793 85.6553 107.906C85.6611 107.934 85.6731 107.96 85.6905 107.983C85.6332 108.81 85.4675 109.626 85.1978 110.409C84.4177 111.385 83.5723 112.312 82.7076 113.212C82.6857 113.235 82.6735 113.265 82.6738 113.296C82.6742 113.328 82.6869 113.358 82.7093 113.38C82.7317 113.402 82.7618 113.414 82.7932 113.414C82.8245 113.414 82.8544 113.401 82.8763 113.379C85.2755 111.001 87.5965 108.178 88.8542 104.969C89.3463 104.532 89.8601 104.121 90.3936 103.736C92.1358 103.923 93.7985 103.616 95.4944 103.359C94.0722 105.349 92.6094 107.296 90.799 108.95C90.7495 108.998 90.693 109.038 90.6406 109.087C90.7907 107.753 91.4687 106.529 91.697 105.203C91.7046 105.149 91.6603 105.083 91.5986 105.104C91.5986 105.104 91.5809 105.112 91.575 105.115C91.5951 104.948 91.3211 104.847 91.2414 105.016C91.2372 105.031 91.2318 105.045 91.2255 105.059C91.1715 105.176 91.1421 105.303 91.1391 105.432C91.1254 105.468 91.1072 105.501 91.0849 105.532C91.0662 105.55 91.0534 105.573 91.0485 105.598C91.0436 105.624 91.0467 105.65 91.0575 105.674C91.0683 105.697 91.0861 105.717 91.1085 105.73C91.1309 105.743 91.1568 105.748 91.1824 105.746C91.1914 105.759 91.2038 105.768 91.2181 105.774C91.2325 105.78 91.2482 105.782 91.2634 105.779C91.2786 105.776 91.2927 105.769 91.3039 105.759C91.3152 105.748 91.3232 105.734 91.3271 105.719C91.3362 105.684 91.3475 105.648 91.361 105.614C91.406 105.547 91.4439 105.476 91.4741 105.401C91.5872 105.274 91.4013 105.757 91.3913 105.798C91.2766 106.233 91.1077 106.644 90.96 107.07C90.6814 107.766 90.505 108.5 90.4363 109.248C88.4529 110.953 86.113 112.11 83.698 113.079C83.3963 113.199 83.096 113.322 82.7971 113.447C82.7737 113.449 82.7517 113.459 82.7352 113.476L82.4698 113.597C82.4518 113.601 82.4348 113.609 82.4196 113.62C78.4238 115.317 74.5757 117.511 72.6832 121.647C72.6126 121.805 72.8422 121.933 72.9198 121.783C74.2942 118.822 76.5994 117.003 79.2194 115.585C79.861 116.078 80.7684 115.818 81.5582 115.737C81.5621 115.768 81.5761 115.797 81.5979 115.82C81.6197 115.842 81.6481 115.857 81.6789 115.861C81.7566 115.868 81.8346 115.855 81.9054 115.823C81.9762 115.79 82.0373 115.74 82.0829 115.677C82.0987 115.66 82.109 115.638 82.1125 115.615C82.1161 115.591 82.1128 115.567 82.103 115.546C82.0932 115.525 82.0773 115.506 82.0574 115.494C82.0375 115.481 82.0143 115.475 81.9909 115.475C81.5586 115.504 81.1356 115.561 80.7056 115.61C80.2732 115.705 79.8213 115.66 79.4145 115.482C80.393 114.964 81.4149 114.494 82.4449 114.042C82.4526 114.064 82.466 114.084 82.4835 114.099C82.5011 114.114 82.5223 114.124 82.5451 114.129C84.3802 114.536 86.1547 114.317 87.9112 113.896C88.0267 113.962 88.1575 113.995 88.2899 113.992C88.9138 114.077 89.5312 114.206 90.1373 114.379C90.659 114.499 91.1701 114.589 91.6829 114.713C91.6328 114.736 91.5835 114.776 91.5286 114.812C91.5067 114.822 91.4897 114.841 91.4813 114.863C91.473 114.886 91.4739 114.911 91.484 114.933C91.494 114.955 91.5123 114.972 91.5349 114.981C91.5575 114.989 91.5825 114.988 91.6044 114.978C91.7535 114.932 91.8961 114.867 92.0291 114.785L92.1428 114.815C92.1639 114.823 92.187 114.821 92.2072 114.812C92.2275 114.803 92.2435 114.786 92.2519 114.765L92.2735 114.594C92.273 114.579 92.269 114.563 92.2618 114.549C92.2546 114.535 92.2443 114.523 92.2318 114.514C92.2193 114.504 92.2048 114.498 92.1894 114.495C92.1741 114.492 92.1583 114.492 92.1432 114.496C92.046 114.53 91.9523 114.573 91.863 114.624C91.7265 114.582 91.5562 114.506 91.464 114.483C90.9541 114.357 90.4473 114.27 89.9396 114.164C89.55 114.091 89.1846 113.985 88.8059 113.889C88.7583 113.879 88.5141 113.843 88.3193 113.807L88.8671 113.664C88.8891 113.682 88.9171 113.691 88.9453 113.689C88.9734 113.686 88.9997 113.673 89.0185 113.652C89.0362 113.644 89.0442 113.623 89.0562 113.61C89.6659 113.439 90.2703 113.257 90.8802 113.079C90.8845 113.085 90.8899 113.089 90.896 113.093C90.9022 113.097 90.909 113.099 90.916 113.1C90.9231 113.1 90.9302 113.1 90.937 113.098C90.9438 113.096 90.9501 113.092 90.9555 113.088C90.9761 113.078 90.987 113.055 91.002 113.041C91.222 112.977 91.4433 112.915 91.6603 112.852C92.55 113.654 93.7872 113.656 94.9352 113.674C94.9363 113.696 94.945 113.717 94.9597 113.734C94.9745 113.751 94.9945 113.762 95.0164 113.766L95.0567 113.776C95.0605 113.791 95.0669 113.805 95.0757 113.818C95.0773 113.833 95.084 113.848 95.0946 113.859L95.1041 113.88C95.1041 113.88 95.1109 113.895 95.1136 113.901L95.1217 113.918C95.1783 114.019 95.2557 114.106 95.3485 114.173C95.5174 114.288 95.7241 114.331 95.9238 114.294C96.1235 114.256 96.3001 114.141 96.4152 113.974C96.4799 113.836 96.4945 113.68 96.4564 113.532C96.4183 113.385 96.33 113.255 96.2067 113.165C96.1113 113.102 95.9989 113.069 95.8847 113.071C95.7704 113.073 95.6597 113.11 95.5674 113.177C95.5576 113.165 95.5444 113.155 95.5294 113.15C95.5143 113.145 95.4981 113.144 95.4827 113.148C95.3996 113.17 95.3227 113.21 95.2575 113.266C95.1923 113.322 95.1405 113.391 95.106 113.47C93.9926 113.505 92.7153 113.486 91.8147 112.792C92.2031 112.683 92.5913 112.581 92.9806 112.49C93.2125 112.811 93.6705 112.838 94.0841 112.8C94.0745 112.819 94.0696 112.839 94.07 112.86C94.0704 112.881 94.0761 112.902 94.0865 112.92C94.0969 112.938 94.1117 112.953 94.1296 112.964C94.1474 112.975 94.1677 112.981 94.1885 112.982C94.4353 112.936 94.6535 112.794 94.7955 112.587C94.8232 112.558 94.8409 112.521 94.8457 112.481C94.8506 112.441 94.8424 112.4 94.8225 112.366C94.8025 112.331 94.7718 112.303 94.735 112.287C94.6982 112.271 94.6573 112.267 94.6184 112.277C94.5019 112.287 94.3882 112.318 94.2828 112.369C94.2611 112.382 94.2426 112.401 94.2288 112.422C93.9479 112.478 93.6579 112.469 93.3801 112.397C94.4696 112.142 95.5871 112.023 96.707 112.044C96.692 112.08 96.6801 112.116 96.6714 112.154C96.6394 112.286 96.6565 112.426 96.7195 112.547C96.7826 112.668 96.8874 112.762 97.0142 112.811C97.1122 112.857 97.2187 112.88 97.3265 112.881C97.4343 112.881 97.5409 112.858 97.6388 112.814C97.7368 112.769 97.8239 112.704 97.8942 112.622C97.9645 112.54 98.0164 112.444 98.0463 112.34C98.0916 112.168 98.0906 111.986 98.0432 111.814C97.9959 111.641 97.9039 111.484 97.7767 111.359C97.6943 111.297 97.5977 111.256 97.4958 111.242C97.3939 111.227 97.2901 111.238 97.194 111.274C97.0979 111.311 97.0126 111.371 96.9461 111.449C96.8795 111.528 96.8339 111.622 96.8135 111.723C96.8088 111.746 96.8121 111.77 96.8229 111.791L96.809 111.815C95.5245 111.763 94.2404 111.905 92.9993 112.234C92.9926 112.238 92.9857 112.241 92.9786 112.243C92.4267 112.377 91.88 112.53 91.3361 112.688C91.9644 112.043 92.4666 111.262 93.0746 110.572C93.0833 110.582 93.0955 110.588 93.1087 110.59C93.1219 110.591 93.1351 110.587 93.1455 110.579C93.229 110.527 93.3006 110.458 93.3555 110.376C93.3555 110.376 93.3637 110.393 93.3825 110.396C93.5975 110.488 93.8391 110.496 94.0589 110.418C94.2787 110.339 94.4607 110.181 94.5683 109.973C94.6056 109.819 94.5901 109.657 94.5243 109.513C94.4584 109.368 94.3461 109.25 94.2055 109.178C94.117 109.124 94.0136 109.102 93.9114 109.114C93.8093 109.127 93.7142 109.173 93.6413 109.245C93.6358 109.231 93.627 109.218 93.6157 109.208C93.6044 109.197 93.5908 109.19 93.5761 109.186C93.5615 109.182 93.546 109.181 93.5311 109.184C93.5162 109.187 93.5021 109.193 93.4902 109.203C93.1951 109.431 92.9932 109.871 93.1773 110.188C92.4024 111.001 91.6847 111.868 91.0295 112.781L90.6937 112.881C90.2449 113.014 89.7991 113.146 89.3519 113.274C89.4033 113.215 89.4573 113.162 89.51 113.106C89.5263 113.091 89.5375 113.071 89.5419 113.049C89.5463 113.028 89.5437 113.005 89.5345 112.985C89.5253 112.965 89.51 112.948 89.4907 112.937C89.4715 112.926 89.4493 112.922 89.4274 112.925L89.6045 112.618C89.7391 112.331 89.9084 112.062 90.1088 111.818L90.125 111.853C90.1283 111.864 90.1343 111.874 90.1425 111.883C90.1507 111.891 90.1608 111.897 90.1718 111.9C90.1828 111.903 90.1945 111.903 90.2057 111.901C90.2169 111.898 90.2272 111.893 90.2358 111.885C90.3164 111.82 90.4479 111.749 90.4806 111.641L90.4968 111.677C90.5713 111.724 90.6545 111.755 90.7413 111.769C90.8282 111.783 90.9169 111.78 91.0021 111.758C91.0872 111.737 91.1671 111.698 91.2368 111.645C91.3065 111.591 91.3646 111.524 91.4076 111.447C91.4913 111.313 91.5337 111.157 91.5297 110.998C91.5256 110.839 91.4753 110.685 91.3849 110.554C91.3366 110.498 91.275 110.455 91.2058 110.429C91.1366 110.403 91.062 110.394 90.989 110.405C90.8822 110.423 90.7809 110.466 90.6932 110.529C90.6055 110.593 90.5336 110.676 90.4832 110.772C90.4768 110.784 90.474 110.798 90.4752 110.812C90.4764 110.825 90.4814 110.838 90.4898 110.849C90.4982 110.86 90.5095 110.869 90.5223 110.873C90.5352 110.878 90.5492 110.879 90.5625 110.876C90.6845 110.823 90.8132 110.787 90.945 110.769C90.9784 110.768 91.0119 110.768 91.0452 110.77C91.0885 110.779 91.0826 110.782 91.0966 110.797C91.1101 110.817 91.1202 110.839 91.1264 110.862C91.1169 110.841 91.1453 110.95 91.1441 110.94C91.1536 111.025 91.1438 111.11 91.1155 111.19C91.101 111.261 91.0605 111.325 91.002 111.368C90.9435 111.411 90.871 111.431 90.7985 111.424C90.7115 111.421 90.5391 111.363 90.5309 111.259C90.5228 111.156 90.6622 111.024 90.7595 110.979C90.7734 110.973 90.7845 110.962 90.7908 110.948C90.7971 110.934 90.7983 110.918 90.7941 110.903C90.7899 110.888 90.7806 110.875 90.7678 110.866C90.755 110.858 90.7396 110.854 90.7244 110.856C90.6333 110.86 90.5452 110.888 90.469 110.938C90.3928 110.988 90.3314 111.058 90.2909 111.139C90.2645 111.194 90.2529 111.255 90.2576 111.316C90.2622 111.377 90.2828 111.436 90.3172 111.486C90.0071 111.423 89.8751 111.727 89.721 111.952C89.4046 112.424 89.1158 112.915 88.8562 113.422C88.2583 113.587 87.6565 113.736 87.0482 113.863C86.3807 113.997 85.7036 114.079 85.0231 114.11C84.3946 114.145 83.4757 113.74 82.8956 113.937C82.9251 113.923 82.9395 113.884 82.9635 113.859C82.9782 113.845 82.9884 113.826 82.9929 113.806C83.9505 113.391 84.9151 112.983 85.8545 112.551C87.548 111.764 89.1186 110.736 90.5181 109.498C90.5303 109.5 90.543 109.5 90.5551 109.497C90.5673 109.494 90.5786 109.489 90.5883 109.481C90.598 109.473 90.6059 109.463 90.6113 109.452C90.6167 109.441 90.6195 109.428 90.6195 109.416C91.1821 108.915 91.7196 108.383 92.2403 107.83C92.6536 107.551 93.1042 107.332 93.5789 107.18C93.5444 107.214 93.5844 107.278 93.637 107.268C95.3402 106.964 96.6853 108.093 98.0743 108.904C99.2308 109.554 100.564 109.811 101.875 109.636C104.364 109.361 106.62 107.855 107.312 105.499ZM104.551 87.4314C104.561 87.4226 104.569 87.4126 104.577 87.4018C104.622 87.3525 104.548 87.2753 104.5 87.326L104.456 87.3782C104.462 87.2314 104.504 87.0886 104.58 86.9631C104.611 86.8924 104.646 86.8237 104.685 86.7572C104.745 86.7366 104.81 86.736 104.87 86.7555C104.967 86.7862 105.053 86.8459 105.115 86.9266C105.163 86.9901 105.186 87.0687 105.181 87.1478C105.155 87.1996 105.118 87.245 105.073 87.2811C105.028 87.3171 104.976 87.3429 104.92 87.3565C104.812 87.4004 104.698 87.4304 104.583 87.4458L104.551 87.4314ZM100.161 90.5925L100.172 90.4587C100.171 90.4395 100.165 90.4207 100.156 90.4038C100.147 90.3869 100.134 90.3723 100.118 90.3612C100.102 90.3501 100.084 90.3427 100.065 90.3395C100.046 90.3364 100.027 90.3377 100.008 90.3432C100.007 90.3077 100.012 90.2723 100.024 90.239C100.036 90.2057 100.055 90.1752 100.079 90.1492C100.103 90.1233 100.132 90.1024 100.164 90.0878C100.196 90.0733 100.231 90.0653 100.266 90.0643C100.741 89.9192 100.57 90.9652 100.161 90.5925ZM95.2155 96.2515C95.213 96.2385 95.2074 96.2263 95.1992 96.2159L95.1803 96.1743C95.1601 96.129 95.1233 96.0931 95.0776 96.0742C95.0596 95.9838 95.0609 95.8907 95.0814 95.801C95.1019 95.7113 95.1411 95.6271 95.1965 95.5539C95.5638 95.4221 95.7512 95.5517 95.7484 95.9438C95.7456 96.3358 95.4114 96.5636 95.2155 96.2515ZM93.4542 87.5583C94.3235 91.2594 92.3327 93.9782 90.8544 97.0081C91.1676 95.969 91.5138 94.9398 91.8776 93.9098C92.5473 92.0125 93.3173 89.9833 93.3168 87.9365L93.4542 87.5583ZM89.7846 93.5706C90.2171 92.1759 91.1962 90.9799 92.0175 89.8128C92.1425 89.6339 92.5355 89.1211 92.8869 88.5951C91.5285 91.8643 90.1339 95.3902 89.9173 98.8662C89.9137 98.9287 90.0121 98.9412 90.0272 98.8806C90.512 96.8668 90.8844 94.8721 91.5233 92.8992C92.0201 91.3568 92.6234 89.8446 93.1744 88.3349C92.898 91.8596 91.1688 95.2299 90.1423 98.6488C90.037 98.9334 89.9388 99.2256 89.8521 99.5197C89.8327 97.5174 89.1797 95.5711 89.7876 93.5693L89.7846 93.5706ZM90.36 98.7825C91.966 95.1422 94.6768 91.7291 93.5487 87.5546C94.3715 89.8966 94.1379 92.5235 93.3432 94.8185C92.7164 96.6461 91.0352 97.8183 90.1828 99.4871C90.2415 99.2488 90.3088 99.0138 90.363 98.7811L90.36 98.7825ZM86.2377 96.4474C87.2578 98.0505 87.5225 99.6613 87.3493 101.562C87.2064 103.115 86.4216 104.494 86.0661 105.98C86.1685 104.158 86.7397 102.474 86.9286 100.671C87.0158 99.776 86.9095 98.8719 86.617 98.0203C86.564 97.4353 86.3952 96.8663 86.1205 96.3467L86.2377 96.4474ZM86.0524 103.849C86.0654 103.35 86.107 102.852 86.1772 102.358C86.3249 101.362 86.5652 100.288 86.6277 99.2307C86.7486 100.111 86.7062 101.006 86.5027 101.869C86.3741 102.508 86.191 103.169 86.0612 103.845L86.0524 103.849ZM85.5811 96.0156L85.5907 95.9898L85.6704 96.0395C85.6609 96.0498 85.6546 96.0626 85.6521 96.0765C85.6496 96.0903 85.651 96.1045 85.6562 96.1176C85.9605 96.8189 86.22 97.5387 86.4329 98.2728C86.5386 99.7303 86.1095 101.288 85.9515 102.683C85.8414 103.818 85.7992 104.959 85.8254 106.1C85.1752 104.246 85.2057 102.579 85.4581 100.61C85.6619 99.105 85.9296 97.5524 85.6078 96.0429L85.5811 96.0156ZM84.7792 104.627C83.5754 102.083 84.7104 98.9404 85.4865 96.3313C85.6035 98.1493 85.3174 99.9039 85.0947 101.719C84.9126 103.272 84.8744 105.086 85.788 106.44L85.7814 106.902C85.4996 106.122 85.1678 105.361 84.7881 104.623L84.7792 104.627ZM86.0229 106.759C86.8927 103.38 88.5773 99.9975 86.6193 96.8074C88.875 99.2055 87.3897 103.235 86.3269 106.129L86.0011 106.977L86.0229 106.759ZM108.071 95.9817C106.655 97.0401 104.896 97.2369 103.213 97.632C105.101 96.6712 106.903 95.5513 108.601 94.2845C109.881 93.342 111.24 92.0336 111.707 90.4652C111.579 92.5888 109.64 94.8212 108.084 95.9866L108.071 95.9817ZM111.449 90.4466C110.409 94.1479 105.565 95.7594 102.334 97.689C103.963 96.0497 105.607 94.4854 107.641 93.2202C108.798 92.5134 110.448 91.6171 111.462 90.4515L111.449 90.4466ZM106.46 92.4434C106.878 92.2027 107.313 91.9685 107.734 91.744C105.387 93.299 103.115 94.9881 101.711 97.3853C102.413 95.0897 104.346 93.6661 106.473 92.4482L106.46 92.4434ZM101.553 98.0849C101.574 97.9749 101.599 97.8665 101.623 97.7625C101.641 97.7612 101.658 97.7535 101.67 97.7409C104.32 94.0762 108.054 92.1644 111.49 89.4423C111.504 89.4358 111.519 89.4324 111.535 89.432C111.55 89.4317 111.565 89.4346 111.58 89.4405C111.594 89.4463 111.607 89.4551 111.618 89.4662C111.629 89.4773 111.637 89.4905 111.643 89.505L111.611 89.7705C110.229 91.4265 108.329 92.5335 106.505 93.6565C104.631 94.8126 103.062 96.4498 101.551 98.0965L101.553 98.0849ZM91.2702 102.917C92.5291 100.991 94.5728 100.051 96.8836 99.8605C97.9228 99.7999 98.9659 99.8942 99.979 100.14C100.722 100.349 101.444 100.625 102.137 100.966C98.8886 100.093 93.5441 99.7173 91.4063 102.84C91.3587 102.876 91.3099 102.902 91.2684 102.928L91.2702 102.917ZM91.388 103.089C92.1473 102.621 92.9528 102.233 93.7918 101.931C95.9739 101.154 98.1127 101.336 100.349 101.685C100.366 101.69 100.384 101.688 100.399 101.679C100.414 101.67 100.425 101.656 100.43 101.639C100.434 101.622 100.432 101.604 100.423 101.589C100.415 101.574 100.401 101.563 100.384 101.558C97.5496 100.578 94.4253 101.172 91.7989 102.607C94.3788 99.9459 98.9164 100.482 102.257 101.198C102.271 101.201 102.285 101.201 102.298 101.198C102.312 101.195 102.325 101.189 102.336 101.18C102.346 101.172 102.355 101.161 102.361 101.148C102.367 101.135 102.37 101.121 102.369 101.107L102.507 101.199C100.325 102.094 98.2196 102.054 95.859 102.081C94.2642 102.092 92.6559 102.292 91.3214 103.169L91.388 103.089ZM95.8625 102.94C94.275 103.17 92.7451 103.502 91.1382 103.439C94.6027 101.21 99.3212 103.563 102.648 101.335C102.758 101.461 102.779 101.576 102.64 101.669C101.006 102.773 98.4938 102.632 96.6237 102.844C96.3712 102.884 96.116 102.918 95.8607 102.952L95.8625 102.94ZM95.7871 103.29C96.1389 103.233 96.4948 103.186 96.8507 103.138C96.172 103.899 95.3846 104.789 94.4481 105.181C94.9077 104.574 95.3534 103.948 95.7852 103.301L95.7871 103.29ZM95.8351 113.467C95.8856 113.45 95.9408 113.452 95.9903 113.472C96.026 113.496 96.0543 113.53 96.0722 113.569C96.0901 113.608 96.0969 113.652 96.0919 113.694C96.0852 113.731 96.0668 113.765 96.0394 113.79C95.956 113.839 95.8591 113.859 95.763 113.848C95.7078 113.847 95.6536 113.833 95.6044 113.807C95.5552 113.782 95.5123 113.746 95.4789 113.702L95.5054 113.69C95.5201 113.674 95.5316 113.656 95.539 113.636C95.5464 113.616 95.5496 113.595 95.5485 113.573C95.6467 113.546 95.7426 113.51 95.8351 113.467ZM97.3656 111.582C97.3945 111.57 97.4262 111.566 97.4575 111.57C97.4887 111.574 97.5184 111.586 97.5435 111.605C97.6159 111.675 97.6706 111.762 97.7031 111.858C97.7355 111.953 97.7448 112.055 97.73 112.155C97.7307 112.204 97.7205 112.252 97.7001 112.296C97.6796 112.34 97.6495 112.38 97.612 112.41C97.5744 112.441 97.5304 112.463 97.4831 112.475C97.4358 112.486 97.3866 112.487 97.3389 112.477C97.0344 112.465 96.9777 112.247 97.0316 112.022L97.0493 112.014C97.1667 112.021 97.1833 111.87 97.1038 111.813C97.1338 111.758 97.1686 111.707 97.2077 111.658C97.2604 111.621 97.3193 111.594 97.3817 111.579L97.3656 111.582ZM93.3725 109.819C93.3746 109.728 93.3974 109.638 93.4394 109.557C93.4813 109.475 93.5412 109.405 93.6145 109.35C93.5981 109.41 93.5975 109.474 93.6128 109.534C93.617 109.549 93.625 109.563 93.6362 109.575C93.6474 109.586 93.6613 109.594 93.6765 109.599C93.6918 109.603 93.7079 109.603 93.7232 109.599C93.7385 109.595 93.7526 109.587 93.7639 109.576C93.8709 109.459 93.9189 109.369 94.0588 109.442C94.1281 109.476 94.1867 109.528 94.2279 109.594C94.2691 109.659 94.2913 109.735 94.2919 109.812C94.2765 110.059 93.794 110.158 93.6196 110.119C93.5544 110.099 93.497 110.059 93.4555 110.005C93.4141 109.95 93.3906 109.884 93.3886 109.816L93.3725 109.819ZM107.061 105.308L107.032 105.44C106.921 105.54 106.805 105.634 106.683 105.721C106.81 105.549 106.924 105.368 107.024 105.179C107.074 105.188 107.09 105.224 107.075 105.306L107.061 105.308ZM106.572 105.532C106.446 105.714 106.307 105.886 106.156 106.048C104.217 107.008 101.433 106.536 99.4248 106.577C98.2331 106.605 96.9003 106.51 95.6238 106.602C95.6406 106.576 95.6574 106.551 95.6756 106.528C97.5766 105.424 99.6543 106.268 101.689 106.48C103.377 106.642 105.193 106.516 106.583 105.516L106.572 105.532ZM102.02 105.393C103.065 105.475 104.108 105.559 105.157 105.539C105.566 105.529 105.973 105.486 106.374 105.411C106.404 105.397 106.436 105.382 106.466 105.369C104.277 106.819 101.808 106.264 99.3665 105.88C98.1787 105.705 96.9957 105.689 95.9264 106.188C97.331 104.729 100.271 105.231 102.03 105.378L102.02 105.393ZM94.853 106.943C94.7091 106.925 94.5639 106.92 94.4193 106.929C96.4477 106.495 98.8409 106.758 100.721 106.803C102.225 106.834 104.164 106.985 105.728 106.447C104.35 107.533 102.655 108.138 100.9 108.17C98.8831 108.201 96.931 107.163 94.9451 106.879C94.928 106.876 94.9103 106.879 94.8953 106.888C94.8803 106.896 94.8691 106.91 94.8637 106.927L94.853 106.943ZM98.5866 108.824C97.7491 108.418 96.8427 107.68 95.8953 107.259C97.8476 107.767 99.8157 108.676 101.835 108.353C103.338 108.111 105.116 107.415 106.262 106.25C106.368 106.202 106.474 106.153 106.572 106.087C105.13 107.774 103.069 108.403 100.855 108.603C100.842 108.605 100.83 108.611 100.821 108.62C100.812 108.63 100.807 108.643 100.807 108.656C100.807 108.669 100.811 108.682 100.819 108.692C100.827 108.702 100.838 108.709 100.851 108.712C102.024 108.787 103.195 108.564 104.256 108.065C105.318 107.565 106.236 106.805 106.926 105.854C106.926 105.854 106.943 105.846 106.952 105.842C105.973 108.982 101.315 110.11 98.5905 108.794L98.5866 108.824Z" fill="#455C6B"/>
<path d="M25.4799 29.1862C25.4544 29.2009 25.4387 29.2327 25.4182 29.256C25.4082 29.2683 25.4009 29.2827 25.3967 29.298C25.3925 29.3134 25.3916 29.3295 25.394 29.3453C25.3963 29.3611 25.4019 29.3762 25.4104 29.3898C25.4189 29.4033 25.4302 29.4149 25.4434 29.4239C25.4267 29.5324 25.41 29.6408 25.3994 29.7534C25.3966 29.7825 25.4019 29.8119 25.4148 29.8383C25.4277 29.8647 25.4476 29.887 25.4724 29.9027C25.4971 29.9184 25.5257 29.9269 25.5549 29.9272C25.5841 29.9276 25.6128 29.9197 25.6378 29.9046C27.6602 28.6381 30.7431 29.1692 33.0227 29.0351C34.5756 28.9444 36.4447 28.6749 37.1824 27.1657C37.2306 27.1379 37.2787 27.1101 37.3187 27.068C37.329 27.0597 37.3372 27.049 37.3424 27.0369C37.3477 27.0247 37.35 27.0114 37.349 26.9981C37.348 26.9849 37.3439 26.972 37.3369 26.9607C37.3298 26.9493 37.3202 26.9399 37.3088 26.9331C38.2723 26.7868 39.1926 26.4356 40.0079 25.9031C39.4951 26.5982 39.0118 27.3182 38.5546 28.0573C38.5487 28.0544 38.5422 28.0528 38.5356 28.0527C38.529 28.0526 38.5225 28.0539 38.5164 28.0565C37.3484 28.5522 36.8033 29.6689 36.0137 30.5847L35.6315 30.6685C33.6906 31.0555 31.2787 31.2811 29.8424 32.7908C29.8279 32.8101 29.8178 32.8324 29.8129 32.8561C29.808 32.8798 29.8085 32.9044 29.8141 32.928C29.8198 32.9516 29.8306 32.9737 29.8458 32.9927C29.861 33.0116 29.8801 33.027 29.9019 33.0377C30.9411 33.5736 32.0599 33.9356 33.2138 34.1093C32.8525 34.5434 32.497 34.9767 32.1474 35.4092C32.1336 35.3994 32.1173 35.3938 32.1004 35.393C32.0835 35.3922 32.0668 35.3962 32.0522 35.4046C32.0376 35.4131 32.0258 35.4255 32.018 35.4405C32.0103 35.4555 32.007 35.4725 32.0086 35.4893L32.0041 35.6059L31.8595 35.7806C29.2337 36.8329 26.3403 37.4087 24.4567 39.6745C23.2306 41.1426 21.9597 43.3967 22.3387 45.4205C22.2488 45.5997 22.173 45.7857 22.1123 45.9769C22.0878 46.0785 22.2318 46.1056 22.2768 46.0264L22.4161 45.7901L22.4424 45.8357L22.4685 46.064C22.4625 46.0704 22.4581 46.0782 22.4557 46.0866C22.4532 46.0951 22.4529 46.104 22.4546 46.1127C22.4562 46.1214 22.4599 46.1295 22.4654 46.1365C22.4708 46.1435 22.4778 46.149 22.4857 46.1528C22.4972 46.2184 22.5058 46.2857 22.5217 46.3525C22.5376 46.4193 22.7225 46.419 22.71 46.3122L22.7036 46.2095C22.7266 46.2019 22.7478 46.1896 22.7659 46.1735C25.8058 42.8486 32.1415 41.1824 32.1843 35.9048C32.3259 35.823 32.4675 35.7413 32.6092 35.6595C32.6942 35.6104 32.6187 35.4601 32.5203 35.5055L32.3745 35.5669C32.7335 35.0898 33.0926 34.6126 33.4469 34.1534C34.088 34.2386 34.7351 34.2644 35.3802 34.2307C34.1132 36.1709 33.4589 38.3807 32.7948 40.6C32.6327 40.4237 32.3809 40.4588 32.1688 40.5167C31.9015 40.5836 31.6246 40.7321 31.3438 40.7953C31.4043 40.7007 31.4418 40.5932 31.4534 40.4812C31.4741 40.4368 31.4919 40.391 31.5064 40.3442C31.5131 40.3236 31.5154 40.3017 31.5131 40.2801C31.5108 40.2585 31.504 40.2377 31.4931 40.2188C31.4822 40.2 31.4675 40.1837 31.45 40.1709C31.4324 40.1581 31.4124 40.1491 31.3912 40.1446C31.3743 40.1366 31.3558 40.1329 31.3371 40.1337C31.3185 40.1345 31.3004 40.1399 31.2844 40.1493C31.2597 40.1558 31.2372 40.1688 31.2192 40.1869L31.1965 40.2C31.084 40.3067 31.0045 40.4436 30.9673 40.5946C30.9485 40.6327 30.9429 40.676 30.9515 40.7177L30.9114 40.8968C30.9071 40.9127 30.906 40.9293 30.9081 40.9457C30.9103 40.962 30.9156 40.9778 30.9239 40.9922C30.9322 41.0065 30.9432 41.019 30.9563 41.0291C30.9694 41.0391 30.9843 41.0465 31.0002 41.0507C31.2892 41.0502 31.574 40.9845 31.8336 40.8585C32.0313 40.7823 32.511 40.5206 32.7022 40.7143C32.7142 40.725 32.7297 40.7309 32.7458 40.7309L32.5544 41.3545C32.018 41.9244 31.4386 42.452 30.8215 42.9328C30.7982 42.9312 30.775 42.9365 30.7548 42.9482C30.7347 42.9598 30.7184 42.9772 30.7082 42.9982C30.6881 43.0288 30.6708 43.0578 30.649 43.0855C30.6435 43.0942 30.6386 43.1034 30.6346 43.1129L30.6053 43.1602C29.8667 42.6136 28.8808 44.0988 29.9572 44.4846C29.9889 44.4972 30.023 44.5025 30.0569 44.5C30.0908 44.4976 30.1237 44.4875 30.1531 44.4705C30.1825 44.4536 30.2077 44.4301 30.2267 44.402C30.2458 44.3738 30.2582 44.3417 30.2632 44.308C30.2958 44.1815 30.2803 44.0472 30.2196 43.9312C30.1588 43.8151 30.0573 43.7257 29.9348 43.6803C29.9553 43.6292 29.9882 43.5841 30.0307 43.5492C30.0732 43.5144 30.1238 43.4908 30.1779 43.4808C30.232 43.4708 30.2877 43.4747 30.3401 43.492C30.3924 43.5093 30.4397 43.5395 30.4774 43.5799C30.5603 43.6841 30.7668 43.7017 30.8173 43.5471C30.8678 43.3925 30.9072 43.271 30.9574 43.1355C30.9641 43.1161 30.9663 43.0953 30.9639 43.0748C31.2559 42.6515 31.8906 42.2395 32.2402 41.916C32.3068 41.8548 32.3718 41.7906 32.4367 41.7265C32.2114 42.442 31.9616 43.1411 31.6948 43.8501C31.684 43.8402 31.6704 43.8341 31.6559 43.8325C31.6414 43.8309 31.6267 43.8339 31.6141 43.8412C31.6015 43.8485 31.5916 43.8596 31.5857 43.8729C31.5798 43.8863 31.5784 43.9012 31.5815 43.9155C31.647 44.6113 30.4942 45.3035 29.7317 45.6183C29.7049 45.5912 29.6713 45.5718 29.6346 45.5622C29.5978 45.5527 29.5591 45.5533 29.5228 45.564C29.2498 45.6342 28.8349 45.9232 29.1471 46.2218C29.48 46.5694 29.9435 46.1422 30.0749 45.8268C30.0851 45.8028 30.0853 45.7757 30.0755 45.7514C30.0658 45.7271 30.0468 45.7076 30.0228 45.6973C30.4428 45.5042 30.8439 45.2726 31.2211 45.0054C30.9261 45.6105 30.5867 46.1926 30.2058 46.7471C29.9763 46.6893 29.734 46.7206 29.5274 46.8347C29.4122 46.8712 29.3072 46.9343 29.221 47.0191C29.1348 47.1039 29.0697 47.2079 29.031 47.3227C28.9254 47.722 29.2927 48.0573 29.638 48.1582C29.6707 48.1657 29.7039 48.1706 29.7373 48.1731C29.7468 48.255 29.8753 48.3139 29.9332 48.231C29.9558 48.2179 29.9653 48.182 29.9814 48.1575C30.1443 48.1119 30.2828 48.0047 30.3681 47.8584C30.4533 47.7121 30.4786 47.5381 30.4387 47.3728C30.4337 47.3545 30.4241 47.3378 30.4107 47.3244C30.4406 47.2449 30.4504 47.1591 30.4392 47.0747C30.4281 46.9903 30.3963 46.9099 30.3467 46.8406L30.3286 46.8092C30.9153 45.9833 31.4176 45.0999 31.828 44.1723C32.4243 44.7669 32.4044 45.74 32.6624 46.5793C32.4918 46.6218 32.3326 46.7008 32.1955 46.8108C32.1757 46.8371 32.1641 46.8686 32.1621 46.9015C32.1602 46.9344 32.1679 46.9673 32.1845 46.9959C32.201 47.0245 32.2255 47.0476 32.255 47.0623C32.2845 47.0771 32.3176 47.0828 32.3502 47.0788C32.422 47.0556 32.4977 47.0468 32.5731 47.0527C32.6349 47.0551 32.664 46.9812 32.6417 46.9295C32.6817 46.9137 32.7233 46.9024 32.7658 46.8959C32.7416 47.0147 32.7608 47.1385 32.8199 47.2447C32.8485 47.2784 32.8849 47.3045 32.9258 47.3206C32.9668 47.3368 33.0111 47.3425 33.0547 47.3372C33.0765 47.3611 33.1062 47.3764 33.1382 47.3802C33.1702 47.3841 33.2025 47.3762 33.2292 47.3581C33.2611 47.3311 33.2907 47.3013 33.3175 47.2691C33.3896 47.2477 33.4537 47.2053 33.5015 47.1473C33.5493 47.0892 33.5788 47.0181 33.5862 46.9429C33.5796 46.866 33.5548 46.7918 33.514 46.7262C33.4938 46.6548 33.4542 46.5903 33.3998 46.5398C33.3453 46.4894 33.2781 46.455 33.2055 46.4405C33.158 46.4249 33.107 46.4231 33.0586 46.4356C33.0102 46.448 32.9665 46.4741 32.9325 46.5107C32.6483 45.6258 32.6686 44.4966 31.9144 43.9818C32.3086 43.0814 32.6409 42.1522 32.956 41.2063C33.0274 41.1271 33.1004 41.0507 33.1701 40.9686C33.1821 40.9547 33.1894 40.9374 33.1911 40.919C33.1928 40.9007 33.1887 40.8823 33.1795 40.8663C33.1703 40.8503 33.1563 40.8376 33.1396 40.8299C33.1229 40.8222 33.1042 40.8198 33.0862 40.8232L33.6319 39.1056C33.927 39.6954 33.8349 40.4518 33.9106 41.0998C33.9864 41.7479 34.0811 42.3698 34.1193 43.0052C33.4524 42.8315 32.7177 43.8487 33.4311 44.3452C34.1446 44.8417 35.1596 43.963 34.5017 43.347C34.5237 43.2628 34.5282 43.1748 34.5149 43.0885C34.5127 43.0684 34.5065 43.0488 34.4968 43.031C34.487 43.0131 34.4739 42.9974 34.4581 42.9846C34.4423 42.9718 34.4242 42.9623 34.4048 42.9565C34.3853 42.9508 34.365 42.9489 34.3449 42.951C34.2878 42.1326 34.161 41.324 34.0673 40.5076C34.0014 39.9224 34.0922 39.3796 33.6761 38.9205C34.1604 37.2821 34.8013 35.6951 35.59 34.1818C36.4925 34.122 37.3809 33.9306 38.2269 33.6134C38.4884 34.6027 38.9196 35.7487 38.6827 36.7711C38.1234 36.4174 37.343 37.1265 37.6117 37.8798C38.0372 39.0747 39.5968 38.3871 38.9002 37.4095C38.9284 37.3959 38.9531 37.3761 38.9726 37.3515C38.9921 37.327 39.0058 37.2983 39.0128 37.2677C39.0197 37.237 39.0198 37.2052 39.0128 37.1745C39.0059 37.1438 38.9922 37.115 38.9727 37.0902L38.9644 37.0759C38.9395 37.0221 38.9097 36.9706 38.8756 36.922C39.168 35.8714 38.8306 34.4888 38.3829 33.5499C40.0691 32.9037 41.4319 31.6188 42.1789 29.9709C42.3159 29.8615 42.4496 29.7463 42.5849 29.6339L42.8788 29.6391C43.0759 29.6469 43.1257 29.3407 42.9298 29.3284C43.2947 28.9965 43.6416 28.6452 43.9691 28.276C43.7175 29.2301 43.5672 30.2088 43.5206 31.1956C43.499 31.649 43.464 32.0987 43.4217 32.5488C43.396 32.5522 43.3721 32.5635 43.3532 32.5812C43.3343 32.599 43.3214 32.6222 43.3164 32.6477C42.9916 34.1199 41.945 35.2905 41.1493 36.5291C40.6286 37.4104 40.282 38.3847 40.1282 39.3992C39.6599 41.8582 40.0271 44.4082 41.1711 46.6422C41.1815 46.6689 41.2003 46.6915 41.2246 46.7066C41.249 46.7217 41.2775 46.7284 41.3059 46.7258C41.3343 46.7231 41.361 46.7113 41.3819 46.692C41.4029 46.6727 41.417 46.6471 41.4221 46.6189C41.936 44.0417 43.8597 42.0416 44.5345 39.5007C45.1558 37.1617 43.8171 34.928 43.7209 32.6156C43.7317 32.5295 43.7453 32.4419 43.7515 32.3546C43.9969 29.8944 44.3226 27.7565 45.3539 25.4734C45.8151 24.4644 46.3465 23.4894 46.9444 22.5559C46.7945 23.2333 46.723 23.9263 46.7315 24.621C46.7195 24.6394 46.7108 24.6599 46.706 24.6814C45.8013 28.5447 43.4261 34.7547 48.2047 36.9142L48.2129 36.9284C48.1948 37.0149 48.3059 37.0306 48.3399 36.9653C48.4003 36.9913 48.4578 37.0189 48.5193 37.0404C48.6909 37.1086 48.7911 36.8569 48.6353 36.7834L48.418 36.6884C48.9873 34.646 49.2711 32.5327 49.2611 30.409C49.2085 28.1588 47.4362 26.7836 47.0055 24.6833C46.997 24.6557 46.9823 24.6304 46.9627 24.6092C46.9406 23.7725 47.0285 22.937 47.2241 22.1245C47.9139 21.0687 48.6739 20.0559 49.456 19.0684C49.4759 19.0439 49.4852 19.0123 49.4818 18.9808C49.4785 18.9492 49.4628 18.9202 49.4382 18.9001C49.4136 18.88 49.3821 18.8706 49.3506 18.8737C49.3192 18.8769 49.2903 18.8925 49.2705 18.9171C47.0891 21.5373 45.0291 24.5967 44.0744 27.9416C43.622 28.4277 43.1455 28.8906 42.6465 29.3285C40.8783 29.3079 39.2374 29.7764 37.5584 30.1984C38.7956 28.0625 40.0778 25.9653 41.7373 24.1292C41.7825 24.0765 41.8354 24.0308 41.8834 23.9765C41.8609 25.3311 41.2976 26.6256 41.1959 27.9805C41.1935 28.0351 41.2443 28.097 41.3042 28.07C41.3042 28.07 41.3212 28.0601 41.3269 28.0569C41.3228 28.2265 41.6078 28.3014 41.6716 28.1239C41.6744 28.1087 41.6784 28.0937 41.6835 28.0791C41.7264 27.9564 41.7438 27.8261 41.7344 27.6962C41.7447 27.6592 41.7597 27.6237 41.7791 27.5905C41.7963 27.571 41.8068 27.5465 41.8093 27.5205C41.8118 27.4945 41.8061 27.4683 41.7931 27.4457C41.78 27.423 41.7602 27.405 41.7364 27.3942C41.7126 27.3833 41.6861 27.3802 41.6606 27.3853C41.6504 27.3734 41.637 27.3647 41.622 27.3602C41.607 27.3557 41.5911 27.3555 41.5761 27.3598C41.5611 27.3641 41.5476 27.3726 41.5373 27.3843C41.527 27.396 41.5202 27.4104 41.5179 27.4259C41.5121 27.4627 41.5041 27.499 41.4939 27.5348C41.4551 27.6062 41.4239 27.6815 41.4008 27.7596C41.2994 27.8979 41.4396 27.395 41.4458 27.3534C41.519 26.9045 41.6492 26.4758 41.7566 26.0337C41.9695 25.3072 42.0761 24.5531 42.0731 23.7947C43.9016 21.8914 46.1409 20.5035 48.4738 19.2972C48.7654 19.1479 49.0552 18.9958 49.3435 18.8408C49.3668 18.8369 49.3879 18.8247 49.403 18.8064L49.6579 18.6592C49.6755 18.6529 49.6918 18.6435 49.7061 18.6314C53.557 16.5411 57.2119 13.9673 58.7149 9.6292C58.7707 9.464 58.5277 9.35721 58.4642 9.5155C57.3685 12.6225 55.2277 14.6719 52.7319 16.3485C52.04 15.9156 51.1534 16.264 50.3677 16.4211C50.3608 16.3904 50.344 16.3627 50.3199 16.3422C50.2959 16.3218 50.2658 16.3098 50.2345 16.3081C50.1558 16.3085 50.0787 16.3294 50.0107 16.3686C49.9427 16.4079 49.886 16.4642 49.8463 16.5321C49.8322 16.5511 49.8239 16.5739 49.8226 16.5977C49.8213 16.6214 49.8269 16.6451 49.8388 16.6657C49.8507 16.6863 49.8684 16.703 49.8896 16.7138C49.9109 16.7245 49.9347 16.7287 49.9583 16.726C50.3897 16.6555 50.8092 16.5578 51.2365 16.4669C51.6617 16.3297 52.12 16.3312 52.5459 16.4711C51.6127 17.0859 50.6314 17.6563 49.6401 18.2096C49.6302 18.1883 49.6149 18.1699 49.5958 18.1563C49.5766 18.1426 49.5543 18.1343 49.531 18.1319C47.6483 17.9 45.8866 18.29 44.1625 18.8825C44.0401 18.8277 43.9055 18.807 43.7728 18.8224C43.1378 18.7971 42.5051 18.7266 41.8796 18.6117C41.3439 18.5409 40.8218 18.5002 40.2946 18.4245C40.3428 18.3967 40.3884 18.3514 40.4401 18.3101C40.4611 18.298 40.4764 18.2779 40.4827 18.2544C40.4889 18.2308 40.4855 18.2057 40.4733 18.1845C40.4611 18.1633 40.441 18.1479 40.4175 18.1415C40.394 18.1351 40.369 18.1383 40.3479 18.1505C40.2027 18.2118 40.0657 18.2909 39.94 18.386L39.8228 18.3662C39.8009 18.361 39.7778 18.3644 39.7583 18.3756C39.7388 18.3868 39.7244 18.4051 39.718 18.4268L39.7127 18.6008C39.7147 18.6166 39.7202 18.6317 39.7288 18.645C39.7374 18.6583 39.7489 18.6695 39.7624 18.6778C39.7759 18.6861 39.791 18.6912 39.8068 18.6928C39.8225 18.6944 39.8383 18.6924 39.8531 18.687C39.9474 18.6436 40.0375 18.5916 40.1223 18.5316C40.2635 18.5603 40.4419 18.6208 40.5367 18.6345C41.061 18.7118 41.5786 18.7513 42.0988 18.8082C42.4973 18.8442 42.8745 18.9153 43.2643 18.9754C43.3131 18.9814 43.5619 18.9936 43.7611 19.0116L43.2245 19.2074C43.2006 19.1915 43.1717 19.1854 43.1436 19.1903C43.1155 19.1952 43.0904 19.2108 43.0735 19.2337C43.0565 19.2436 43.0506 19.266 43.0397 19.2799C42.4435 19.51 41.854 19.7516 41.2583 19.9891C41.2535 19.9837 41.2476 19.9794 41.2411 19.9765C41.2346 19.9735 41.2275 19.9719 41.2203 19.9717C41.2132 19.9716 41.2061 19.9729 41.1995 19.9756C41.1929 19.9784 41.1869 19.9824 41.1819 19.9876C41.1621 19.999 41.1533 20.0231 41.1396 20.0386C40.9248 20.1246 40.7084 20.2077 40.4965 20.2921C39.5254 19.5718 38.2823 19.6889 37.1273 19.7819C37.124 19.7596 37.1133 19.739 37.0968 19.7236C37.0804 19.7083 37.0592 19.6989 37.0368 19.6972L36.9954 19.6908C36.9901 19.6762 36.9823 19.6627 36.9723 19.6509C36.9691 19.6354 36.9611 19.6214 36.9493 19.611L36.9377 19.591C36.9377 19.591 36.9295 19.5768 36.9262 19.5711L36.9163 19.554C36.8499 19.4587 36.7638 19.3787 36.6639 19.3196C36.4833 19.2208 36.2714 19.1973 36.0744 19.2541C35.8774 19.3109 35.7111 19.4435 35.6116 19.6231C35.5598 19.7675 35.5601 19.9258 35.6126 20.0705C35.6651 20.2152 35.7664 20.3371 35.8988 20.4151C36.0008 20.4698 36.1169 20.492 36.2314 20.4788C36.346 20.4657 36.4536 20.4177 36.54 20.3414C36.551 20.3532 36.5652 20.3616 36.5808 20.3654C36.5964 20.3692 36.6128 20.3683 36.6279 20.3629C36.7092 20.333 36.7827 20.2852 36.8428 20.2228C36.9029 20.1604 36.9482 20.0852 36.9752 20.0027C38.0905 19.8605 39.3756 19.7571 40.3471 20.3669C39.9674 20.5139 39.5872 20.6536 39.2049 20.7831C38.941 20.4831 38.4783 20.4994 38.0664 20.5776C38.0743 20.5581 38.0772 20.5369 38.0748 20.5159C38.0724 20.495 38.0647 20.4749 38.0525 20.4577C38.0403 20.4405 38.0239 20.4266 38.005 20.4174C37.986 20.4081 37.965 20.4039 37.9441 20.405C37.7006 20.4748 37.495 20.6385 37.3723 20.8605C37.3472 20.8922 37.3331 20.9312 37.332 20.9717C37.331 21.0123 37.343 21.0521 37.3665 21.0853C37.3899 21.1185 37.4233 21.1432 37.4619 21.1557C37.5004 21.1683 37.5418 21.168 37.58 21.1549C37.6961 21.1334 37.8073 21.0911 37.9083 21.03C37.9289 21.0143 37.9456 20.9942 37.9574 20.9712C38.2342 20.8881 38.5265 20.8688 38.8125 20.9146C37.7425 21.2762 36.6312 21.5029 35.5041 21.5894C35.5158 21.5525 35.5243 21.5145 35.5293 21.4761C35.5488 21.34 35.5182 21.2013 35.4431 21.0858C35.3681 20.9703 35.2538 20.8859 35.1217 20.8486C35.0188 20.8123 34.9095 20.7987 34.8012 20.8086C34.6928 20.8185 34.588 20.8518 34.4939 20.9061C34.3998 20.9605 34.3186 21.0346 34.2558 21.1235C34.193 21.2123 34.1502 21.3138 34.1302 21.421C34.1012 21.5987 34.1197 21.7811 34.1839 21.9497C34.2481 22.1183 34.3556 22.2671 34.4954 22.3808C34.5842 22.4354 34.6852 22.4667 34.7889 22.4718C34.8927 22.4768 34.9959 22.4555 35.089 22.4097C35.182 22.3639 35.2619 22.2952 35.3212 22.21C35.3805 22.1248 35.4172 22.0258 35.428 21.9222C35.4306 21.8988 35.425 21.8752 35.4121 21.8554L35.4237 21.8297C36.7192 21.7579 37.9956 21.4924 39.2108 21.042C39.2172 21.0378 39.2238 21.034 39.2306 21.0305C39.7722 20.8433 40.3067 20.6373 40.838 20.4256C40.2688 21.1343 39.8396 21.9675 39.2951 22.7189C39.2854 22.7097 39.2725 22.7045 39.2591 22.7044C39.2458 22.7044 39.2329 22.7095 39.2232 22.7186C39.1443 22.7791 39.079 22.8556 39.0318 22.9432C39.0318 22.9432 39.0219 22.9261 39.0028 22.9257C38.7778 22.8534 38.5343 22.8687 38.321 22.9686C38.1077 23.0685 37.9403 23.2456 37.8521 23.4646C37.8294 23.6227 37.8606 23.7841 37.9407 23.9228C38.0207 24.0615 38.1449 24.1692 38.2932 24.2286C38.3872 24.2735 38.4933 24.2859 38.5947 24.2638C38.6961 24.2417 38.7872 24.1864 38.8535 24.1065C38.8604 24.1204 38.8705 24.1324 38.8828 24.1417C38.8952 24.1509 38.9095 24.1572 38.9247 24.1599C38.9398 24.1626 38.9554 24.1617 38.9701 24.1573C38.9848 24.1528 38.9983 24.145 39.0094 24.1344C39.2839 23.8771 39.4443 23.4157 39.2288 23.1145C39.9291 22.2228 40.5667 21.2831 41.137 20.3023L41.4648 20.1701C41.9029 19.9932 42.3381 19.818 42.7749 19.6456C42.729 19.7101 42.6799 19.7689 42.6324 19.8305C42.6174 19.847 42.6081 19.8678 42.6057 19.89C42.6034 19.9122 42.6081 19.9346 42.6193 19.954C42.6305 19.9733 42.6475 19.9887 42.6679 19.9977C42.6883 20.0068 42.711 20.0091 42.7328 20.0044L42.5843 20.3296C42.4767 20.6305 42.3325 20.9168 42.1548 21.1819L42.135 21.1477C42.1307 21.1369 42.1236 21.1274 42.1146 21.12C42.1056 21.1126 42.0949 21.1076 42.0835 21.1055C42.0721 21.1034 42.0604 21.1041 42.0494 21.1078C42.0384 21.1114 42.0285 21.1178 42.0207 21.1263C41.946 21.1998 41.8206 21.2836 41.7983 21.3953L41.7785 21.3611C41.6992 21.3208 41.6125 21.2971 41.5239 21.2914C41.4353 21.2856 41.3466 21.298 41.2631 21.3277C41.1796 21.3574 41.103 21.4039 41.0381 21.4643C40.9733 21.5247 40.9213 21.5978 40.8855 21.679C40.8144 21.8221 40.7868 21.9831 40.8062 22.1422C40.8255 22.3013 40.8909 22.4515 40.9943 22.5741C41.0483 22.626 41.1143 22.6634 41.1863 22.683C41.2584 22.7025 41.3341 22.7035 41.4064 22.6859C41.512 22.6575 41.6096 22.6051 41.6916 22.5327C41.7736 22.4603 41.8378 22.3699 41.8793 22.2684C41.8845 22.2556 41.886 22.2415 41.8835 22.2279C41.881 22.2142 41.8746 22.2016 41.8652 22.1914C41.8557 22.1813 41.8436 22.174 41.8302 22.1706C41.8168 22.1671 41.8027 22.1676 41.7896 22.1719C41.6721 22.2368 41.5463 22.2852 41.4155 22.3157C41.3822 22.3206 41.3485 22.3235 41.3148 22.3244C41.2705 22.3196 41.2762 22.3163 41.2606 22.3025C41.2451 22.2838 41.2329 22.2626 41.2244 22.2398C41.2359 22.2597 41.197 22.153 41.1991 22.1632C41.1815 22.0793 41.1831 21.9926 41.2038 21.9096C41.2115 21.8363 41.246 21.7686 41.3007 21.7195C41.3553 21.6704 41.4262 21.6434 41.4997 21.6437C41.5875 21.6387 41.7662 21.6799 41.7844 21.7835C41.8026 21.887 41.6752 22.0327 41.5817 22.0867C41.5684 22.0946 41.5583 22.107 41.5533 22.1217C41.5483 22.1364 41.5487 22.1525 41.5543 22.167C41.56 22.1815 41.5706 22.1936 41.5843 22.201C41.5979 22.2085 41.6137 22.2108 41.6289 22.2077C41.72 22.1947 41.8058 22.1575 41.8775 22.1001C41.9492 22.0426 42.0043 21.967 42.037 21.8808C42.0584 21.8232 42.0641 21.7609 42.0536 21.7002C42.0431 21.6395 42.0167 21.5826 41.9773 21.5353C42.2949 21.5685 42.3983 21.2504 42.5315 21.01C42.8039 20.5047 43.0467 19.9838 43.2587 19.4499C43.8435 19.2263 44.4337 19.0186 45.0326 18.8324C45.6904 18.6337 46.3626 18.4858 47.0434 18.3899C47.6714 18.2934 48.6335 18.6121 49.1974 18.3588C49.1691 18.3751 49.1584 18.4155 49.1366 18.4433C49.1233 18.4591 49.1149 18.4785 49.1122 18.4991C48.1902 19.0087 47.2603 19.5113 46.3583 20.036C44.7326 20.9895 43.2537 22.1736 41.9669 23.552C41.9543 23.5505 41.9416 23.5519 41.9297 23.556C41.9178 23.5601 41.9069 23.5668 41.8979 23.5756C41.8889 23.5845 41.882 23.5952 41.8777 23.6071C41.8733 23.6189 41.8717 23.6316 41.8729 23.6443C41.3559 24.2012 40.8671 24.7875 40.3972 25.3932C40.0088 25.7132 39.5772 25.9765 39.115 26.1753C39.1464 26.1382 39.1001 26.0775 39.0481 26.0923C37.3663 26.5616 35.9063 25.5573 34.4328 24.8762C33.2083 24.3343 31.8437 24.2045 30.544 24.5064C28.0696 25.0227 25.9485 26.7529 25.4799 29.1862ZM29.9928 47.0715C29.9839 47.0814 29.9762 47.0922 29.9698 47.1038C29.9292 47.1577 30.0114 47.228 30.0549 47.1725L30.0939 47.1158C30.1021 47.2639 30.073 47.4114 30.0091 47.5448C29.9847 47.6188 29.9559 47.6913 29.9229 47.7618C29.865 47.7882 29.8001 47.7951 29.7378 47.7813C29.6372 47.7598 29.5454 47.7081 29.4746 47.633C29.4204 47.5739 29.3895 47.4971 29.3877 47.4171C29.4086 47.3626 29.4411 47.3134 29.4829 47.2728C29.5247 47.2323 29.5749 47.2014 29.6298 47.1822C29.7342 47.1278 29.845 47.0868 29.9598 47.0602L29.9928 47.0715ZM34.0987 43.4733L34.1013 43.6086C34.1042 43.6279 34.1114 43.6462 34.1223 43.6623C34.1333 43.6784 34.1478 43.6917 34.1647 43.7014C34.1815 43.7111 34.2004 43.7168 34.2197 43.7181C34.239 43.7194 34.2584 43.7163 34.2763 43.709C34.2815 43.7444 34.2795 43.7805 34.2706 43.8151C34.2617 43.8498 34.246 43.8822 34.2244 43.9106C34.2028 43.939 34.1758 43.9627 34.1449 43.9805C34.114 43.9982 34.0798 44.0096 34.0444 44.0139C33.5809 44.2055 33.6521 43.1381 34.0987 43.4733ZM38.5228 37.3119C38.5265 37.3248 38.5333 37.3365 38.5425 37.3461L38.5656 37.386C38.5902 37.4297 38.6306 37.4622 38.6784 37.4768C38.7051 37.5659 38.7128 37.6595 38.7008 37.7516C38.6889 37.8437 38.6576 37.9321 38.609 38.0109C38.2526 38.1787 38.0519 38.0665 38.017 37.6724C37.9821 37.2782 38.2959 37.0172 38.5228 37.3119ZM41.1291 45.8759C39.8994 42.2413 41.6377 39.3182 42.8313 36.1319C42.6166 37.2061 42.3678 38.2734 42.1016 39.3431C41.6114 41.3138 41.0331 43.4265 41.2307 45.4827L41.1291 45.8759ZM44.2369 39.4825C43.9367 40.9253 43.0682 42.2211 42.3554 43.4726C42.247 43.6644 41.9015 44.2174 41.5991 44.7797C42.6492 41.3645 43.7108 37.6881 43.5939 34.1751C43.5914 34.1119 43.4914 34.1088 43.4821 34.1712C43.1888 36.241 43.0067 38.2808 42.5548 40.3244C42.2041 41.9218 41.7436 43.499 41.3354 45.0688C41.2738 41.5011 42.6866 37.9487 43.3887 34.4151C43.4671 34.119 43.5377 33.816 43.5965 33.5122C43.8087 35.522 44.652 37.4145 44.234 39.4841L44.2369 39.4825ZM43.1571 34.3018C41.8941 38.1136 39.4993 41.8034 41.0345 45.8887C39.9824 43.615 39.9642 40.9534 40.5417 38.5713C40.9955 36.6749 42.5716 35.3354 43.2673 33.5768C43.2313 33.8219 43.1863 34.0645 43.1543 34.3034L43.1571 34.3018ZM47.5233 36.2509C46.3442 34.7385 45.9232 33.1457 45.9143 31.22C45.9083 29.646 46.564 28.1842 46.7782 26.658C46.8507 28.4976 46.4389 30.2443 46.4227 32.0743C46.4212 32.9817 46.615 33.8798 46.9909 34.7072C47.1004 35.2898 47.3248 35.8452 47.6507 36.3408L47.5233 36.2509ZM46.9971 28.797C47.032 29.2997 47.0381 29.8038 47.0152 30.3069C46.9627 31.3217 46.8246 32.4238 46.8636 33.4922C46.6574 32.6193 46.6139 31.7166 46.7352 30.8296C46.8029 30.1748 46.9232 29.4934 46.9886 28.8019L46.9971 28.797ZM48.2245 36.6215L48.2174 36.6484L48.1326 36.6061C48.1411 36.5948 48.1462 36.5813 48.1474 36.5672C48.1486 36.5531 48.1458 36.5389 48.1393 36.5262C47.766 35.851 47.4361 35.1528 47.1515 34.4358C46.905 32.9818 47.1861 31.3751 47.2106 29.9585C47.212 28.8075 47.1445 27.6572 47.0084 26.5137C47.8401 28.3141 47.9699 29.9914 47.9058 31.9935C47.846 33.5256 47.7265 35.1111 48.1951 36.5966L48.2245 36.6215ZM48.2012 27.8927C49.6556 30.3333 48.8178 33.5993 48.2892 36.2952C47.9967 34.48 48.1152 32.6898 48.1642 30.8446C48.1976 29.267 48.0614 27.4413 47.0132 26.1688L46.9754 25.7041C47.3336 26.4607 47.7402 27.1934 48.1927 27.8977L48.2012 27.8927ZM46.7466 25.8705C46.198 29.3496 44.8312 32.9096 47.1053 35.9259C44.6083 33.7338 45.7125 29.5424 46.5018 26.5325L46.7474 25.6495L46.7466 25.8705ZM25.6332 38.8205C26.9539 37.6209 28.7023 37.2538 30.3551 36.6948C28.5514 37.8418 26.8485 39.1404 25.2645 40.5765C24.0693 41.6466 22.83 43.0919 22.5116 44.7125C22.4362 42.5667 24.1687 40.1373 25.6197 38.8168L25.6332 38.8205ZM22.7725 44.7063C23.4612 40.8878 28.1725 38.8026 31.2327 36.553C29.7546 38.3567 28.2528 40.0865 26.3309 41.5534C25.2376 42.3747 23.666 43.4341 22.759 44.7027L22.7725 44.7063ZM27.5922 42.2201C27.196 42.5021 26.7818 42.7792 26.3802 43.0453C28.5887 41.2571 30.7085 39.3415 31.8879 36.7981C31.4038 39.1719 29.5984 40.7882 27.5788 42.2165L27.5922 42.2201ZM31.9795 36.0801C31.9689 36.1926 31.9538 36.3039 31.94 36.4107C31.9222 36.4137 31.9061 36.423 31.8947 36.4369C29.5857 40.3736 26.0182 42.6538 22.8285 45.7193C22.815 45.7271 22.8 45.7321 22.7845 45.7339C22.769 45.7357 22.7533 45.7343 22.7383 45.7297C22.7233 45.7252 22.7093 45.7177 22.6973 45.7076C22.6853 45.6975 22.6755 45.6851 22.6684 45.671L22.675 45.4012C23.9041 43.6045 25.706 42.3095 27.4311 41.0056C29.2023 39.6638 30.6207 37.868 31.9802 36.0682L31.9795 36.0801ZM41.8447 30.2361C40.7655 32.2922 38.8027 33.433 36.4995 33.8467C35.4613 34.0076 34.4043 34.0133 33.3628 33.8637C32.5965 33.7259 31.8441 33.5177 31.1152 33.2418C34.4628 33.8063 39.8683 33.6692 41.7154 30.326C41.7598 30.2852 41.8063 30.2545 41.8455 30.2243L41.8447 30.2361ZM41.7099 30.0745C40.992 30.6174 40.2201 31.0847 39.4064 31.4691C37.2889 32.4597 35.1227 32.4827 32.8424 32.3473C32.825 32.3442 32.8072 32.3481 32.7929 32.3582C32.7785 32.3682 32.7687 32.3836 32.7657 32.401C32.7627 32.4184 32.7667 32.4362 32.7769 32.4507C32.787 32.4652 32.8024 32.4751 32.8197 32.4782C35.7613 33.1897 38.8429 32.2923 41.3434 30.5978C39.0077 33.5199 34.3975 33.4183 30.9722 33.0203C30.9582 33.0183 30.9441 33.0195 30.9307 33.0239C30.9174 33.0282 30.9052 33.0356 30.8952 33.0454C30.8852 33.0553 30.8776 33.0673 30.8729 33.0806C30.8683 33.0938 30.8668 33.108 30.8685 33.122L30.7212 33.0436C32.8268 31.9343 34.9461 31.7712 37.3151 31.5172C38.9163 31.3529 40.5128 30.9975 41.769 29.9872L41.7099 30.0745ZM37.2289 30.6547C38.8017 30.2712 40.3067 29.79 41.9271 29.6983C38.6611 32.2718 33.6942 30.3617 30.5667 32.9199C30.4436 32.8048 30.4114 32.6903 30.5428 32.5841C32.0779 31.3176 34.615 31.2174 36.4734 30.8248C36.7233 30.7604 36.9765 30.7016 37.2296 30.6429L37.2289 30.6547ZM37.271 30.2959C36.923 30.3866 36.57 30.4688 36.2171 30.5509C36.8256 29.7207 37.531 28.7508 38.4342 28.2674C38.0309 28.9209 37.6434 29.5931 37.2717 30.2841L37.271 30.2959ZM36.2431 20.0757C36.194 20.0981 36.1384 20.1018 36.0867 20.0862C36.0486 20.0653 36.0169 20.0342 35.9951 19.9965C35.9733 19.9588 35.9623 19.9159 35.9632 19.8724C35.9664 19.8348 35.9817 19.7992 36.0068 19.7712C36.0858 19.7142 36.1813 19.6844 36.2789 19.6863C36.3344 19.6825 36.3902 19.6912 36.4421 19.7119C36.494 19.7327 36.5406 19.7648 36.5784 19.8061L36.5529 19.8208C36.5396 19.8377 36.5299 19.8571 36.5244 19.878C36.5188 19.8988 36.5177 19.9206 36.5209 19.9419C36.4248 19.979 36.3319 20.0237 36.2431 20.0757ZM34.8869 22.1168C34.859 22.1319 34.8276 22.1393 34.7958 22.1383C34.7641 22.1373 34.7331 22.1279 34.706 22.111C34.6265 22.0474 34.5632 21.9658 34.5214 21.8729C34.4796 21.78 34.4605 21.6785 34.4657 21.577C34.4603 21.528 34.4659 21.4784 34.4822 21.4319C34.4985 21.3855 34.525 21.3434 34.5597 21.3087C34.5945 21.2741 34.6366 21.2477 34.683 21.2317C34.7294 21.2156 34.7788 21.2103 34.8277 21.216C35.1348 21.1983 35.2127 21.4118 35.1802 21.6434L35.1632 21.6532C35.0446 21.6571 35.0424 21.8104 35.1277 21.86C35.1029 21.9178 35.0729 21.9732 35.0383 22.0256C34.9889 22.0677 34.9322 22.1004 34.8711 22.1221L34.8869 22.1168ZM39.0683 23.5036C39.075 23.5959 39.0607 23.6885 39.0264 23.7741C38.9921 23.8598 38.9387 23.9364 38.8702 23.9981C38.881 23.9363 38.8755 23.8726 38.8543 23.8134C38.8486 23.7984 38.8392 23.7851 38.8269 23.7748C38.8146 23.7645 38.7998 23.7576 38.7841 23.7548C38.7683 23.752 38.7521 23.7534 38.7371 23.7588C38.7221 23.7642 38.7088 23.7734 38.6984 23.7856C38.6022 23.9133 38.5627 24.0084 38.4152 23.9491C38.3422 23.9218 38.2783 23.8745 38.2306 23.8127C38.1829 23.7509 38.1533 23.677 38.1453 23.5994C38.137 23.3496 38.6122 23.2044 38.7912 23.2265C38.8586 23.2403 38.9201 23.275 38.967 23.3257C39.0139 23.3764 39.0438 23.4405 39.0525 23.509L39.0683 23.5036ZM25.7501 29.3533L25.7666 29.2183C25.8685 29.107 25.9766 29.0015 26.0902 28.9022C25.9792 29.0871 25.8823 29.2802 25.8006 29.4799C25.7489 29.4756 25.7292 29.4413 25.7371 29.3569L25.7501 29.3533ZM26.2203 29.0817C26.3296 28.8868 26.4528 28.7 26.589 28.523C28.444 27.3722 31.2864 27.5784 33.3 27.3433C34.4945 27.201 35.8426 27.1676 37.1163 26.953C37.1019 26.9803 37.0874 27.0077 37.0713 27.0322C35.2677 28.3243 33.0992 27.6759 31.0347 27.6591C29.3234 27.6589 27.5107 27.9605 26.2111 29.0985L26.2203 29.0817ZM30.807 28.7826C29.7485 28.8008 28.6929 28.8173 27.6408 28.9382C27.2314 28.9881 26.8268 29.0704 26.4308 29.1845C26.4024 29.2009 26.3713 29.2189 26.3429 29.2352C28.4019 27.5675 30.9359 27.8872 33.4256 28.0385C34.6358 28.1 35.8258 28.0021 36.8521 27.3982C35.5814 28.9985 32.5796 28.7779 30.7978 28.7994L30.807 28.7826ZM37.8578 26.5363C38.0041 26.5401 38.1504 26.5307 38.2949 26.5082C36.2988 27.1399 33.8692 27.1059 31.9757 27.2413C30.4623 27.3548 28.4994 27.3896 26.9796 28.0808C28.2598 26.8571 29.9042 26.0864 31.6649 25.8851C33.6878 25.6598 35.749 26.5147 37.7714 26.609C37.7889 26.6108 37.8064 26.606 37.8206 26.5957C37.8348 26.5854 37.8448 26.5702 37.8486 26.553L37.8578 26.5363ZM33.9258 25.0055C34.8063 25.3334 35.7879 25.9867 36.7802 26.3184C34.77 25.9967 32.7053 25.273 30.708 25.7914C29.2206 26.1789 27.5022 27.0494 26.4624 28.33C26.3605 28.3889 26.2585 28.4478 26.1664 28.5238C27.4533 26.6899 29.4634 25.86 31.6682 25.4461C31.6811 25.4432 31.6925 25.4358 31.7004 25.4252C31.7082 25.4146 31.7121 25.4016 31.7113 25.3884C31.7105 25.3752 31.705 25.3626 31.6958 25.3531C31.6867 25.3435 31.6745 25.3374 31.6614 25.336C30.4763 25.3737 29.3214 25.71 28.303 26.314C27.2846 26.9179 26.4355 27.77 25.8338 28.7918C25.8338 28.7918 25.8168 28.8016 25.8083 28.8065C26.4902 25.5583 31.0612 23.9759 33.9248 25.0365L33.9258 25.0055Z" fill="#455C6B"/>
</svg>
