<svg xmlns="http://www.w3.org/2000/svg" viewBox="0 0 406.72 193.5"><defs><style>.cls-1{fill:#7d7b7c;}</style></defs><g id="Layer_2" data-name="Layer 2"><g id="Layer_1-2" data-name="Layer 1"><path class="cls-1" d="M295.35,186a2.64,2.64,0,0,0,.73-.05,1,1,0,0,0,.36-.13.91.91,0,0,0,.27-.25,1,1,0,0,0,.15-.33,1,1,0,0,0,0-.38c.69-.52,1.38-1,2.05-1.62a1.2,1.2,0,0,0,.38-.56,1.21,1.21,0,0,0,0-.68,1.19,1.19,0,0,0-.33-.59,1.29,1.29,0,0,0-.59-.33c-18.35-3.94-32.84-23.85-46.43-35.59-9.26-8-21.28-16.73-33.72-12.26a4.41,4.41,0,0,0-1.3-.2.65.65,0,0,0-.31,0,.64.64,0,0,0-.25.18.63.63,0,0,0-.13.59,53.6,53.6,0,0,0-20.87-9c6.7-1.11,13.38-2.53,20-4.18a.34.34,0,0,0,.09.12.3.3,0,0,0,.13.09c9.31,3.6,18.51.29,28-.54l2.62,1.62c13.07,8.46,27.92,20.41,44.3,19.77a1.3,1.3,0,0,0,.52-.21,1.28,1.28,0,0,0,.39-.41,1.38,1.38,0,0,0,.17-.53,1.51,1.51,0,0,0-.07-.56,83.86,83.86,0,0,0-12.81-24.21q6.63-.7,13.15-1.49a.62.62,0,0,0,.18.35.59.59,0,0,0,.33.2.74.74,0,0,0,.39,0,.77.77,0,0,0,.32-.22l.67-.63,1.77-.2c20.58,8.46,40.06,21.08,63.11,18.63,15-1.56,34.5-7.31,43.46-20.8a29.76,29.76,0,0,0,4.33-1.9c.69-.44,0-1.38-.66-1.18l-2.08.57.11-.4,1.1-1.44a.41.41,0,0,0,.19,0,.41.41,0,0,0,.15-.14.37.37,0,0,0,.07-.2.46.46,0,0,0,0-.2c.29-.43.62-.86.89-1.33s-.77-1.47-1.28-.8l-.53.61a1.71,1.71,0,0,0-.55-.14c-35.38,2.1-80.26-23.25-109.44,6.29l-3.75-.94c-.74-.19-1.14,1.07-.34,1.35l1.16.46c-4.64.72-9.28,1.44-13.8,2.09a82.92,82.92,0,0,0-10.48-11c17.78-4,33.59-12.88,49.51-21.75-.05,1.88,1.56,3.06,3.07,3.9,1.88,1.09,4.26,1.77,6.18,3a5.77,5.77,0,0,0-2.33,1.17,9.25,9.25,0,0,0-1.06.48,1.21,1.21,0,0,0-.38.33,1.25,1.25,0,0,0-.23.46,1.4,1.4,0,0,0,0,.5,1.29,1.29,0,0,0,.19.47.9.9,0,0,0,.25.36.78.78,0,0,0,.38.2,1.13,1.13,0,0,0,.57.15l.2,0a6.42,6.42,0,0,0,3.46-1,1.48,1.48,0,0,0,.76-.61l1.21-.79a1,1,0,0,0,.29-.26.86.86,0,0,0,.16-.35,1.22,1.22,0,0,0,0-.38,1,1,0,0,0-.14-.37,15,15,0,0,0-5.75-3.48c-1.53-.66-5.68-1.81-5.69-4a.53.53,0,0,0-.15-.33l4.49-2.47a119.56,119.56,0,0,1,18.44.6.93.93,0,0,0,.45.28,1,1,0,0,0,.54,0c.28-.07.54-.13.81-.17l.24-.07.42-.11c1.17,7.13,14.88,4.16,10.92-3.92a1.74,1.74,0,0,0-.48-.63,1.76,1.76,0,0,0-.7-.37,2,2,0,0,0-.8,0,1.75,1.75,0,0,0-.72.33,4.14,4.14,0,0,0-1.81,2.37,4.08,4.08,0,0,0,.23,3,2.61,2.61,0,0,1-1.26.22,2.53,2.53,0,0,1-1.21-.43,2.61,2.61,0,0,1-.86-1,2.67,2.67,0,0,1-.29-1.25c.11-1-1-2.27-2.09-1.68s-2,1.07-3.05,1.56a.92.92,0,0,0-.37.31c-4,.78-9.81-.37-13.56-.47-.71,0-1.42,0-2.14,0,5.19-2.81,10.44-5.38,15.83-7.92a.54.54,0,0,0,.4.5.57.57,0,0,0,.34,0,.48.48,0,0,0,.25-.21c3.45-4.29,13.75-1.87,19.78.53a1.68,1.68,0,0,0,.24.85,1.54,1.54,0,0,0,.64.6c1.92,1.1,5.85,1.75,5.73-1.65,0-3.78-4.93-3.91-7.4-2.85a.67.67,0,0,0-.42.42.76.76,0,0,0,0,.59,59.85,59.85,0,0,0-10.56-2.67A108.21,108.21,0,0,1,365,61a7.33,7.33,0,0,0,4.31,3.23,6.06,6.06,0,0,0,2.74.64,6,6,0,0,0,2.74-.67c2.78-1.68,2.55-5.58,1.15-8a4.19,4.19,0,0,0-.48-.63c.4-.51,0-1.55-.78-1.4-.2-.05-.45.1-.68.15a5.12,5.12,0,0,0-6.88,1.92.88.88,0,0,0-.11.42,4.22,4.22,0,0,0-1.53,1.25,4.11,4.11,0,0,0-.76,1.83l-.07.28a118.84,118.84,0,0,0-22.92,6.65c-.1-6.62,5.35-12,8.5-18.15a9.42,9.42,0,0,0,3.9,1.25,1.33,1.33,0,0,0,1.07-1,1.23,1.23,0,0,0,0-.76,1.3,1.3,0,0,0-.44-.61,4.69,4.69,0,0,1-1.41-1.08.67.67,0,0,0-1.06.32,4.6,4.6,0,0,1-.89-.5A3.93,3.93,0,0,0,353,43.83a2,2,0,0,0-.18-1,2.07,2.07,0,0,0-.64-.8,1,1,0,0,0-.86-1.07,5.46,5.46,0,0,0-1,0,2.89,2.89,0,0,0-1.7-.32,3,3,0,0,0-1.6.68,3.7,3.7,0,0,0-.78,1.62,3.19,3.19,0,0,0-.38,1.68,3.09,3.09,0,0,0,.55,1.63,2.13,2.13,0,0,0,.8.83,2.1,2.1,0,0,0,1.13.27c-3.26,6.54-9.56,12.81-8.13,19.85-7.16,2.91-14.13,6.33-21.1,9.94-.83.06-1.66.09-2.5.17a.74.74,0,0,0-.4.16.67.67,0,0,0-.22.37.61.61,0,0,0,0,.42.64.64,0,0,0,.26.33l-12.5,6.7c1.57-5,6.24-8.71,9.37-12.78s6-8.1,9.27-11.9c2.8,4.64,12.53,2.93,11.22-3.78s-11.84-7.32-11.51-.24A5.06,5.06,0,0,0,320.61,58a1.11,1.11,0,0,0-.21.42,1.06,1.06,0,0,0,0,.47,1.2,1.2,0,0,0,.15.45,1.08,1.08,0,0,0,.31.36C316.65,64.62,312.93,69.88,309,75c-2.83,3.66-6.32,6.23-6.49,11.1a208.59,208.59,0,0,1-36.78,16.24,72.94,72.94,0,0,0-18-11.25c3.95-7,7.8-15.85,14.75-20.32,1.21,5.06,9.5,5.34,12.12-.38,4.15-9.07-8.42-13.75-9.85-4.41a1.63,1.63,0,0,0-.73-.07,1.52,1.52,0,0,0-.68.25,1.44,1.44,0,0,0-.51.53,1.67,1.67,0,0,0-.24.69l0,.13a7,7,0,0,0-.34,1.35c-7.42,4.33-13.09,14-15.72,21.73a54,54,0,0,0-41-.62c-1.37-.14-2.76-.22-4.14-.33L199.67,88c-1.06-1.13-3,.33-2,1.47a107.63,107.63,0,0,0-11.64.24,110.74,110.74,0,0,0,18.54-14c2.61-2.44,5.27-4.79,8-7.1a.89.89,0,0,0,.56.2,1,1,0,0,0,.57-.17c9.91-6.53,22.23-7.39,33.51-10A63,63,0,0,0,268.71,48,88.72,88.72,0,0,0,302.55,1.44a1.14,1.14,0,0,0,.05-.66,1,1,0,0,0-.36-.55,1,1,0,0,0-.61-.23,1,1,0,0,0-.63.19c-17,11.72-38.85,12.46-56.59,23.09-16.33,9.79-21,29.74-33.16,43.31-.54.42-1.09.84-1.61,1.3-14.87,12.54-28.43,22.81-46.77,30a186.32,186.32,0,0,1-25,7.74,71,71,0,0,0,12.52-10.49,1.44,1.44,0,0,0,.48-.2c26.29-16.83,73.74-38.84,58.62-77.23l0-.12c.58-.39,0-1.09-.51-.91-.2-.48-.37-.95-.6-1.41a1.11,1.11,0,0,0-2.06.82l.7,1.72a181.08,181.08,0,0,0-39.19,30.81c-12,13-9.58,30.45-18.67,44.67a1.61,1.61,0,0,0-.17.65A75.3,75.3,0,0,1,134,106.57c-9.68,2.17-19.52,3.71-29.34,5a1,1,0,0,0-.63.35.94.94,0,0,0-.2.7,1,1,0,0,0,.35.62.92.92,0,0,0,.69.2c26.68-2.82,55.07-8.79,78.8-22.42a154.34,154.34,0,0,1,15.66,0c9.87,9.81,21.69,16.17,33.48,23-18.7,5.26-37.43,10.06-56.86,11.32-.54,0-1.09,0-1.66.06,7.55-7.52,17.83-11.73,25.83-18.81a.66.66,0,0,0-.12-1.11l-.2,0c1-.93-.24-2.92-1.57-2.27a1.44,1.44,0,0,1-.31.19,7.55,7.55,0,0,0-2.39,1.88,3.18,3.18,0,0,1-.83.35,1,1,0,0,0-.56.23,1,1,0,0,0-.32.52,1,1,0,0,0,0,.6,1,1,0,0,0,.38.46.59.59,0,0,0,.08.35.65.65,0,0,0,.26.26.72.72,0,0,0,.35.08.71.71,0,0,0,.34-.13,7.15,7.15,0,0,1,.73-.49,9.41,9.41,0,0,0,1.76-.75c1.33-.23-2.22,1.84-2.49,2-2.87,2.13-5.95,3.84-9,5.74a61.44,61.44,0,0,0-14.06,10.9c-20.76.71-41-3.74-60.78-9.73q-3.69-1.12-7.41-2.19a.74.74,0,0,0-.52-.13l-2.25-.57a1.24,1.24,0,0,0-.42-.11C67.61,103.34,32.88,97.82.61,114.05c-1.22.62-.43,2.56.79,2,23.22-11.52,46.54-11.34,69.81-7.11,1.53,6.24,8.44,9.13,13.74,12.55a1.17,1.17,0,0,0-.17.71,1.15,1.15,0,0,0,.3.66,3.54,3.54,0,0,0,1.59.89,3.66,3.66,0,0,0,1.83,0,1,1,0,0,0,.49-.24.94.94,0,0,0,.28-.48,1,1,0,0,0,0-.54,1,1,0,0,0-.32-.45c-2.82-2-5.73-3.72-8.64-5.55a16.68,16.68,0,0,1-7.36-7.2c8.64,1.65,17.3,3.81,25.93,6.12a1.15,1.15,0,0,0,0,.55,1.13,1.13,0,0,0,.24.49c9.34,11.63,21.43,19.09,34.4,25.2a5.75,5.75,0,0,0,1.87,2.48,104.5,104.5,0,0,1,9.52,11.57c2.64,3.34,5.36,6.43,7.92,9.75a10,10,0,0,0-1.45-.16.78.78,0,0,0-.54.08.71.71,0,0,0-.33.45.7.7,0,0,0,.52.88,14.78,14.78,0,0,0,3.59.91l.55.75a.64.64,0,0,0,.42.3.66.66,0,0,0,.51-.07l1-1a.75.75,0,0,0,.15-.34.73.73,0,0,0,0-.36.8.8,0,0,0-.17-.33.89.89,0,0,0-.29-.22,13.07,13.07,0,0,0-2.37-.6c-.64-.94-1.32-2.26-1.77-2.86-2.54-3.31-5.25-6.36-7.86-9.54-2.06-2.39-3.79-4.86-5.66-7.34-.25-.29-1.58-1.73-2.61-2.92l4.1,1.83a.94.94,0,0,0,.36.55.9.9,0,0,0,.64.13c.15,0,.3,0,.44-.07,4.63,2,9.28,3.84,13.94,5.77a.45.45,0,0,0,0,.16.34.34,0,0,0,.09.14.71.71,0,0,0,.14.1.9.9,0,0,0,.16,0,1.77,1.77,0,0,0,.52-.06c1.69.69,3.36,1.41,5,2.09,1.53,9.39,9.19,15.55,16.21,21.36a.84.84,0,0,0-.15.49.77.77,0,0,0,.2.48l.2.26a1.12,1.12,0,0,0-.09.36.54.54,0,0,0-.09.35l0,.17,0,.18,0,.15a6.3,6.3,0,0,0,.14,2.7,6.11,6.11,0,0,0,7.6,4.07,5.21,5.21,0,0,0,2.45-2.54,5.3,5.3,0,0,0,.28-3.51,4.56,4.56,0,0,0-1.53-2.18,4.38,4.38,0,0,0-2.5-.92.68.68,0,0,0-.1-.36.66.66,0,0,0-.28-.24,4.49,4.49,0,0,0-2-.39,4.6,4.6,0,0,0-2,.51c-7.07-5.31-14.89-11.77-17-20.54,2.94,1.25,5.86,2.55,8.72,3.92-.16,3.14,2.55,5.58,5.3,7.4a1,1,0,0,0-.39.3,1,1,0,0,0-.19.45,1,1,0,0,0,0,.49,1,1,0,0,0,.28.4,7.5,7.5,0,0,0,5.72.57,1.42,1.42,0,0,0,.84-.41,1.48,1.48,0,0,0,.28-1.75,1.41,1.41,0,0,0-.68-.64,7.61,7.61,0,0,0-2.53-1.1,1.52,1.52,0,0,0-.6.06,14.9,14.9,0,0,1-5.13-4.37,107.6,107.6,0,0,1,22.36,14.34,6.33,6.33,0,0,0-.77.5,4.49,4.49,0,0,0-1.65,2.68,4.42,4.42,0,0,0,.52,3.1,5.85,5.85,0,0,0,1.58,2,5.9,5.9,0,0,0,4.81,1.22,5.94,5.94,0,0,0,2.34-1,8.06,8.06,0,0,0,2.59-3.27,8,8,0,0,0,.61-4.14A4.87,4.87,0,0,0,204,171.5a4.89,4.89,0,0,0-2.4-.15,4.76,4.76,0,0,0-2.18,1,.74.74,0,0,0-.28.47l-.21.08a102.19,102.19,0,0,0-25.68-16.33.58.58,0,0,1-.18,0c-4.08-1.91-8.23-3.68-12.38-5.4,7.09-.88,14.08-3.22,21.28-4.48a.42.42,0,0,0,.12.28.5.5,0,0,0,.28.12,5.48,5.48,0,0,0,2.31-.22.32.32,0,0,0,.07.26,7.35,7.35,0,0,0,9.45,3.27,5.63,5.63,0,0,0,1.7-6.73,3.73,3.73,0,0,0-1.51-1.86,3.78,3.78,0,0,0-2.32-.53.83.83,0,0,0,0-.35.67.67,0,0,0-.13-.34.85.85,0,0,0-.27-.23.73.73,0,0,0-.35-.09c-3-.05-6.4,1.67-6.83,4.55a193,193,0,0,0-26.18,5.4l-2.58-1.05c-3.44-1.4-6.86-2.8-10.27-4.23.62-.11,1.21-.17,1.82-.25a.82.82,0,0,0,.48-.2.78.78,0,0,0,.27-.43.89.89,0,0,0,0-.51.79.79,0,0,0-.33-.39l2.62-1a30.85,30.85,0,0,1,7.09-2.45l-.07.3a.61.61,0,0,0,0,.27.46.46,0,0,0,.1.25.58.58,0,0,0,.2.18.52.52,0,0,0,.27,0c.82,0,2,.21,2.73-.3l-.08.31a5.2,5.2,0,0,0,1.06,1.78,5,5,0,0,0,1.67,1.23,5.18,5.18,0,0,0,2,.46,5.1,5.1,0,0,0,2-.38,6.42,6.42,0,0,0,3-2.17,6.55,6.55,0,0,0,1.31-3.47,3.52,3.52,0,0,0-.49-1.67,3.42,3.42,0,0,0-1.23-1.22,5.54,5.54,0,0,0-2.44-.7,5.66,5.66,0,0,0-2.51.46.57.57,0,0,0-.25.21.53.53,0,0,0-.09.3.48.48,0,0,0,.08.31.54.54,0,0,0,.23.22,11.28,11.28,0,0,1,2.9,1.24,7.52,7.52,0,0,1,.62.5c.22.27.17.26.18.42a1.7,1.7,0,0,1-.13.55c0-.17-.32.64-.28.57a4.35,4.35,0,0,1-1.42,1.41,2.34,2.34,0,0,1-3.13-.12c-.52-.45-1.3-1.67-.84-2.35s2-.81,2.81-.6a.53.53,0,0,0,.35,0,.5.5,0,0,0,.24-.26.52.52,0,0,0-.19-.64,4,4,0,0,0-2-.76,4.14,4.14,0,0,0-2.11.36,2.79,2.79,0,0,0-1.56,2.28c-1.6-1.93-3.93-.7-6-.07a114.4,114.4,0,0,0-12.66,4.81c-4.53-2-9-4-13.39-6.25a105.57,105.57,0,0,1-13.78-8.52c-4.06-2.91-7.75-10-12.32-11.64.25.06.54-.11.81-.14a.87.87,0,0,0,.44-.19c8,2.19,16,4.45,24,6.44a153.66,153.66,0,0,0,44.05,4.24.8.8,0,0,0,.23.18.61.61,0,0,0,.29.06.72.72,0,0,0,.29-.06.8.8,0,0,0,.23-.18c6-.31,11.94-.94,17.91-1.78a41.37,41.37,0,0,1,11.52,2.62c-.38,0-.45.63-.07.83,12.06,6.58,14.79,20.25,19.37,32.17a48.43,48.43,0,0,0,19.91,23.41C257.9,195.25,279.36,197.12,295.35,186ZM368,60.31a1.54,1.54,0,0,0,.31-.05c.52-.09.45-.93-.1-.86l-.53.11a6.83,6.83,0,0,1,2.83-2,16.68,16.68,0,0,1,1.67-.75,2.37,2.37,0,0,1,1.16.91A4,4,0,0,1,374,60a2.54,2.54,0,0,1-.69,1.7,3.17,3.17,0,0,1-2.65,0,11.47,11.47,0,0,1-2.53-1.12ZM325.07,58.1l.73-.78a1,1,0,0,0,.17-.42,1,1,0,0,0,0-.45,1.2,1.2,0,0,0-.22-.4,1.08,1.08,0,0,0-.37-.26,2.37,2.37,0,0,1,.61-.57,2.2,2.2,0,0,1,.79-.28,2.11,2.11,0,0,1,.83,0,2.26,2.26,0,0,1,.75.36C332,56.8,325.75,62.44,325.07,58.1ZM266.32,68.6a.67.67,0,0,0,.08-.3l.09-.36a1.54,1.54,0,0,0-.14-1.13,5.19,5.19,0,0,1,3.32-2.63c2.93,1,3.45,2.74,1.48,5.16S266,71.5,266.32,68.6ZM298.58,6c-13,27.25-38.83,34.21-63,45.64,7.1-4.88,14.35-9.54,21.72-14.12,13.57-8.43,28.42-17.17,38.58-29.86ZM246,25c9.6-6.49,21.61-9,32.49-12.19,1.67-.49,6.65-1.72,11.44-3.23C265.27,23.11,239.12,38,220.51,58.49c-.33.37.22.93.61.63,13-10.07,25.22-20.58,39-29.63C270.83,22.4,282.08,16,293,9.41c-19.21,20.47-46.66,32.76-70,48.85-2.07,1.24-4.13,2.56-6.12,4C226.69,49.71,232.31,34.41,246,25ZM223.67,60.17c28-14.58,61.77-22.27,75.51-53.73-6.53,18.59-21,33.71-37.34,44-13,8.21-29.2,7.13-42.76,13.23,1.54-1.18,3.13-2.3,4.62-3.48ZM209.73,25.23c-1.64,15-8,26.29-18.51,37.21-8.6,8.91-20.31,13.56-29.89,21C171,72.66,182.91,65.06,193,54.83a49.86,49.86,0,0,0,11.24-18A35.37,35.37,0,0,0,209.5,24ZM171.82,70.17A102.5,102.5,0,0,1,180,61.55c5.86-5.44,12.69-10.9,18.32-17.14a57.5,57.5,0,0,1-13.87,15.73c-4,3.32-8.39,6.5-12.55,10Zm36-50.88.19-.11.25.7a.69.69,0,0,0-.3.14.75.75,0,0,0-.18.28,141.94,141.94,0,0,1-5.89,17.21c-6.58,9.55-17,17.07-24.88,24.93A226.81,226.81,0,0,0,159.24,83c5.18-14.72,13.65-24.9,25-35.84,8.73-8.31,18.1-16.6,23.6-27.56ZM160.07,68.66c5.18-21.74,27.82-35.57,45.58-47.88-8.3,11.84-18.79,21.29-29.18,31.43-8.84,8.72-18.09,19.77-19.15,32.7L155,87.74a155,155,0,0,0,5.16-19.06Zm-2.88,19.39c22.17-16.62,49.4-29.21,53.11-58.7,2.07,26.06-27.14,43.65-48.1,56.31L156,89.29Zm190.12,42.71c-14-.47-25.9-8-38.29-13.89a296.09,296.09,0,0,0,50,6c12.61.52,27.53-.84,38.21-8.24-11.34,12.52-34.43,16.73-49.86,16.22Zm48.42-17.51c-24.83,17.76-62.84,3.69-92.44-.4,18.23-2.06,36.19-3.59,55.07-1.33,10.68,1.37,25.35,4,37.42,1.82ZM354.9,100.84c3.79.59,7.64,1.3,11.37,2-22.27-2-44.73-2.84-65.33,5,15.75-10.74,34.79-10,54-6.94Zm-58.42,10.59c.68-.58,1.37-1.13,2-1.65a.58.58,0,0,0,.4.1c34.61-9.55,67.24-2.85,102.05-2.65a.84.84,0,0,1,.33.16.87.87,0,0,1,.23.27.89.89,0,0,1,.11.35.78.78,0,0,1,0,.37l-1.51,1.48c-16.79,3.4-34.06.82-50.93-1.28-17.36-2.14-35.21.21-52.75,2.91ZM208.78,90.3c17.36-5.68,34.69-1.35,50,8.94a83.87,83.87,0,0,1,17.79,17.1,100.78,100.78,0,0,1,9.27,15.84C270,110.64,238.76,81.77,210,90.5a11.52,11.52,0,0,1-1.3-.14ZM208.66,92a102.36,102.36,0,0,1,20.64,4.77c17.38,6,29.73,17.77,41.85,31a.45.45,0,0,0,.34.21.55.55,0,0,0,.39-.09.52.52,0,0,0,.2-.34.46.46,0,0,0-.09-.39C259.3,107,237,95.16,213.6,91c29.19-3.68,54.65,22.18,71.79,43.2a.67.67,0,0,0,.25.2.62.62,0,0,0,.33.08.7.7,0,0,0,.31-.07.59.59,0,0,0,.25-.22l.4,1.26c-18-5.29-30.81-16-45.57-27.55-9.93-7.85-20.89-14.6-33.51-15.79Zm28.46,21.3c-11-6.46-22.11-12-31.75-20.37,32.53,3.4,50.08,41.41,81.76,44.12.05,1.33-.39,2.15-1.71,2-15.61-1.27-30.47-14.62-43.11-22.59-1.76-1-3.51-2.07-5.26-3.12ZM234.91,115c2.47,1.4,4.9,2.87,7.35,4.34-8,1.35-17.28,3-25,.73q8.79-2.22,17.62-5Zm-50.24,63.3a1.76,1.76,0,0,1,.94.8,1.89,1.89,0,0,1,0,1,1.93,1.93,0,0,1-.5.88,1.42,1.42,0,0,1-.81.33,3.59,3.59,0,0,1-2-1,3,3,0,0,1-1-2.32l.22.06a1.38,1.38,0,0,0,.48-.17,1.33,1.33,0,0,0,.37-.34A15.53,15.53,0,0,0,184.67,178.34Zm18.85-4.08a1.53,1.53,0,0,1,.63.38,1.44,1.44,0,0,1,.35.64,5,5,0,0,1-.26,2.36,5.05,5.05,0,0,1-1.31,2,2.6,2.6,0,0,1-.89.72,2.57,2.57,0,0,1-2.23,0,2.47,2.47,0,0,1-.9-.7c-1.83-1.59-1.1-3.22.35-4.35l.15,0c.69.63,1.55-.22,1.34-1a8.57,8.57,0,0,1,1.41-.45,4.15,4.15,0,0,1,1.47.38Zm-16-30.76a4.88,4.88,0,0,1,1.72-1.29,4.76,4.76,0,0,1,2.11-.41,2.81,2.81,0,0,0-.92,1.13.78.78,0,0,0-.06.37.75.75,0,0,0,.13.35.66.66,0,0,0,.29.23.74.74,0,0,0,.36.06c1.25-.19,2-.51,2.5.64a3.3,3.3,0,0,1-.4,3.45c-1.32,1.45-4.8-.33-5.69-1.44a2.66,2.66,0,0,1-.45-1.52,2.6,2.6,0,0,1,.53-1.5Zm107.21,40-.83.68a32.52,32.52,0,0,1-3.56,0,34,34,0,0,0,4.8-1.66c.27.3.19.6-.31,1Zm-4.14-1a36.27,36.27,0,0,1-5.14,1.13c-16.78-3.68-31.69-20.43-44.33-30.15-7.52-5.74-15.31-12.95-23.68-18.72.24-.07.47-.15.69-.2,17.26,2.6,25.94,18.15,37.5,29.57,9.65,9.38,21.53,17.62,35.11,18.33ZM263.09,159c6.06,5.7,12.11,11.4,18.71,16.49a61,61,0,0,0,8.17,5.25l.78.19c-20.76-1.88-33.3-17.58-46.52-32.08-6.49-7-13.74-13-22.84-15.18,15.94-2.06,31.67,15.65,41.83,25.29ZM211,133a18.57,18.57,0,0,0-2.62-2.24c14.72,7.38,28.24,20.9,39.67,30.51,9.16,7.66,20.42,18.23,32.79,22.66a63.81,63.81,0,0,1-38.47-13.3c-12.65-9.83-19.59-25.95-30.49-37.57a.58.58,0,0,0-.35-.19.5.5,0,0,0-.39.08Zm13.79,30.19c-3.18-6.67-5.13-15.75-8.91-23.06,9.58,12.84,17.26,28.25,31.37,36.28,10.52,6,25,10.48,37.87,9a16.88,16.88,0,0,0,2.73.53c-17.31,3.29-33.2-3.05-47.91-12.8a.53.53,0,0,0-.3-.07.44.44,0,0,0-.26.16.43.43,0,0,0-.11.28.48.48,0,0,0,.1.28,55.21,55.21,0,0,0,51.83,12.46l.22.06c-21.65,14.59-56.12-1.55-66.46-23.23Z"/></g></g></svg>