<svg width="77" height="84" viewBox="0 0 77 84" fill="none" xmlns="http://www.w3.org/2000/svg">
<path d="M37.8924 25.8257L38.1464 25.9104C38.1608 25.8727 38.1786 25.8364 38.1995 25.8018C38.2576 25.7136 38.4141 25.7346 38.4116 25.851L38.412 26.0062C39.523 26.5056 40.5044 27.2485 41.2834 28.1796C42.0624 29.1106 42.619 30.206 42.9117 31.3843L42.9354 31.4293C42.9796 30.6387 42.9825 29.8507 42.9442 29.0653C42.9327 29.0545 42.9252 29.0403 42.9228 29.0247L42.8564 28.7778C42.3381 27.1118 41.0372 25.5824 40.4532 23.9684C39.9803 22.6641 40.0608 20.7226 41.586 20.1424L41.567 20.1064C41.5633 20.0833 41.5681 20.0595 41.5806 20.0395C41.5931 20.0195 41.6124 20.0046 41.635 19.9977C41.6576 19.9907 41.6819 19.992 41.7034 20.0015C41.7249 20.011 41.7422 20.0279 41.752 20.0491C44.5986 27.22 43.5491 36.0202 40.1416 42.9625C40.8009 42.0852 41.4533 41.2059 42.0756 40.3136C43.5769 38.1559 45.0007 35.9508 46.3473 33.6982C47.133 31.9073 47.6397 30.0098 47.85 28.0715C47.1026 24.6158 44.819 20.9921 45.3458 17.4168C45.5897 15.7631 46.2284 11.7719 48.4225 11.5008C48.4401 11.3785 48.4656 11.2574 48.4987 11.1383C48.5086 11.0972 48.5345 11.0615 48.5707 11.0392C48.6069 11.0169 48.6504 11.0097 48.6917 11.0192C48.733 11.0287 48.7686 11.0542 48.7907 11.09C48.8129 11.1258 48.8198 11.169 48.8098 11.2101L48.7745 11.4187C48.7839 11.4257 48.7918 11.4346 48.7977 11.4448C48.8035 11.455 48.8072 11.4664 48.8085 11.4781C48.8097 11.4898 48.8086 11.5016 48.8051 11.5129C48.8016 11.5242 48.7959 11.5347 48.7882 11.5438L48.7548 11.6017C48.6575 12.9823 49.5809 14.4462 49.8427 15.7582C50.1201 17.1476 50.2809 18.5584 50.3235 19.9761C50.3614 22.6858 49.6778 25.3633 48.3421 27.7371C48.207 29.1179 47.9201 30.4812 47.4867 31.8024C47.7871 31.2698 48.0876 30.7373 48.3762 30.1822C50.2826 26.6596 51.8052 22.947 52.9179 19.1082C53.0173 18.7565 53.121 18.3911 53.1953 18.0469C53.2321 15.1961 52.4739 12.4252 52.6532 9.57983C52.8576 6.34138 55.3232 3.51001 57.0076 0.895038C57.0747 0.790631 57.2805 0.75109 57.3427 0.89095C59.9292 6.72006 56.8619 12.6541 53.7167 17.6798C53.6087 18.1914 53.4937 18.7009 53.3628 19.2131C52.9699 20.7392 52.4774 22.2389 51.8882 23.7027C51.8998 23.6991 51.9105 23.6935 51.92 23.686C52.0499 23.5024 52.1958 23.316 52.3396 23.1366C52.3322 23.1232 52.3278 23.1083 52.3267 23.093C52.3257 23.0777 52.3279 23.0622 52.3334 23.0478C54.4202 17.746 60.0653 13.1281 65.9226 14.412C65.9857 14.3442 66.0599 14.3857 66.0817 14.449C66.1035 14.5123 66.1784 14.467 66.2269 14.4817C66.2779 14.4978 66.3205 14.5332 66.3454 14.5804C66.3702 14.6275 66.3754 14.6826 66.3598 14.7339C65.6109 17.1604 63.3209 18.892 61.3428 20.3441C60.1078 21.2672 58.7232 21.9722 57.2504 22.428C56.779 22.5952 56.2738 22.642 55.7815 22.564C54.1225 22.3285 53.3643 22.809 52.2689 23.6861C52.0303 23.9501 51.794 24.2186 51.5738 24.4844C51.0123 25.8337 50.3977 27.1592 49.7573 28.4581C50.6232 27.3222 51.7474 26.2573 52.9416 26.0303C53.0498 25.7264 53.2624 25.4696 53.5416 25.3052C53.7596 25.1625 54.0125 25.0822 54.2723 25.0731C54.5322 25.064 54.7889 25.1264 55.0142 25.2534C55.1387 25.3646 55.2372 25.5016 55.3028 25.6548C55.3684 25.8081 55.3996 25.974 55.3943 26.141C55.389 26.308 55.3472 26.4722 55.2719 26.6221C55.1965 26.7721 55.0895 26.9043 54.9581 27.0095C54.8762 27.0527 54.7453 27.0469 54.7478 26.9305C54.763 26.7634 54.7923 26.5978 54.8354 26.4354C54.8354 26.4354 54.8127 26.4474 54.8036 26.4522C54.7629 26.5731 54.712 26.6904 54.6514 26.8029C54.5814 26.9651 54.4706 27.1068 54.3298 27.2144C54.1889 27.322 54.0227 27.3917 53.8475 27.4169C53.4009 27.4741 53.0744 27.0536 52.9554 26.6847C52.93 26.6187 52.9149 26.549 52.9105 26.4783C51.5059 27.1783 50.2719 28.1771 49.2966 29.4032L49.2434 29.5118C48.2322 31.5184 47.1006 33.462 45.904 35.3707C46.7722 34.6439 47.7114 34.0058 48.7073 33.4661C50.6448 31.7938 52.3301 29.8747 54.7784 28.7962C56.5618 28.0108 60.1657 26.081 62.0958 27.2382C62.1274 27.2592 62.1506 27.2906 62.1613 27.327C62.172 27.3634 62.1696 27.4024 62.1544 27.4374C63.5616 29.2675 60.1398 31.4984 58.9243 32.3352C57.8608 33.0822 56.7208 33.7144 55.5239 34.221C52.8898 35.3113 49.7646 34.4565 47.0091 35.041C46.4691 35.3949 45.9269 35.7558 45.3875 36.1439C44.4244 37.6245 43.447 39.0781 42.4602 40.5136L41.8653 41.4029C42.5069 41.0521 43.1816 40.7656 43.8793 40.5477C43.8747 40.5337 43.8743 40.5187 43.8781 40.5045C43.8819 40.4902 43.8898 40.4773 43.9008 40.4673C47.7158 36.458 55.3554 37.9354 58.5615 41.8091C58.5903 41.8382 58.6069 41.8771 58.6081 41.9181C58.6092 41.9591 58.5948 41.9991 58.5677 42.0303L58.471 42.1445L58.305 42.3588C58.2974 42.3662 58.2884 42.372 58.2786 42.3759C58.2687 42.3797 58.2582 42.3815 58.2476 42.3811C58.2371 42.3808 58.2267 42.3782 58.2172 42.3737C58.2077 42.3692 58.1993 42.3627 58.1924 42.3548C57.2532 43.6272 55.3388 43.3594 53.9084 43.2047C52.2181 43.0202 50.5395 43.1115 48.8429 42.9591C46.8659 42.7819 45.4606 41.4515 43.5462 41.1838C43.5163 41.1827 43.4878 41.1712 43.4656 41.1514C43.4435 41.1315 43.4291 41.1046 43.4249 41.0751C42.776 41.3053 42.1422 41.5762 41.5273 41.8862C39.7368 44.6285 37.7625 47.2485 35.6178 49.7281C35.6011 49.7445 35.579 49.7543 35.5558 49.7559C35.5325 49.7575 35.5094 49.7508 35.4908 49.7369C35.4723 49.723 35.4593 49.7029 35.4545 49.6803C35.4496 49.6576 35.4531 49.6339 35.4643 49.6135C36.5868 47.7657 37.8176 45.9846 39.1503 44.2795C39.1447 44.2685 39.142 44.2561 39.1426 44.2437C39.1431 44.2313 39.147 44.2192 39.1537 44.2087C39.885 42.7409 40.3142 41.1448 40.4158 39.5146C40.5048 38.3167 40.259 37.1342 40.2159 35.9945C39.8409 36.0772 39.4594 36.0483 39.3139 35.7394C39.1825 35.692 39.0624 35.6182 38.9612 35.5227C38.8315 35.4121 38.729 35.2735 38.6614 35.1173C38.5937 34.9611 38.5628 34.7913 38.5708 34.6209C38.5789 34.4504 38.6257 34.2837 38.7078 34.1332C38.7898 33.9827 38.905 33.8525 39.0447 33.7522C39.0674 33.7402 39.0947 33.7258 39.122 33.7114C39.1004 33.7127 39.0789 33.7078 39.0602 33.6973C39.0414 33.6868 39.0261 33.6711 39.0161 33.6522C39.0061 33.6332 39.0018 33.6117 39.0037 33.5903C39.0057 33.5689 39.0137 33.5484 39.027 33.5313C39.2699 33.2875 39.595 33.1422 39.9384 33.124C40.2818 33.1059 40.6185 33.2162 40.8821 33.4332C40.9515 33.4739 41.0118 33.5283 41.0594 33.5929C41.1005 33.6311 41.1381 33.6729 41.1718 33.7178C41.1838 33.732 41.1906 33.75 41.1909 33.7686C41.1913 33.7873 41.1852 33.8056 41.1736 33.8204C41.2014 33.9163 41.2109 34.0166 41.2018 34.1163C41.1968 34.1523 41.1882 34.1876 41.1761 34.2219C41.2581 34.3122 41.3208 34.4181 41.3605 34.5333C41.4001 34.6486 41.4159 34.7708 41.407 34.8926C41.398 35.0145 41.3644 35.1335 41.3081 35.2425C41.2519 35.3516 41.1743 35.4484 41.0798 35.5273C40.9376 35.6539 40.7726 35.7526 40.5938 35.8182C40.9848 37.6421 40.9594 39.5334 40.5194 41.3532C41.6144 38.7671 42.374 36.0554 42.78 33.2838L42.8157 32.9657C42.8245 32.4293 42.7579 31.895 42.6178 31.3782C41.978 30.8928 40.9466 31.1088 40.2474 30.764C39.6894 30.4756 39.2069 30.0625 38.8374 29.5569C38.1942 28.7453 37.6697 27.2552 38.0363 26.1756L37.7989 25.9901C37.7221 25.9327 37.805 25.8142 37.8924 25.8257ZM42.2402 23.3883C42.2252 23.7108 42.2286 24.0337 42.2504 24.3555C42.3092 24.9344 42.4498 25.5015 42.6681 26.04C42.5515 25.1577 42.4005 24.2763 42.2402 23.3883ZM42.7341 26.5289C41.9621 25.2748 41.7171 23.766 42.0515 22.3254C41.9249 21.6555 41.7914 20.9836 41.6531 20.3027C41.1111 21.0605 40.5666 21.5492 40.5683 22.5553C40.57 23.5615 41.0861 24.5841 41.5383 25.4965L42.0133 26.3969C41.3282 24.6463 40.6941 22.7939 41.6632 21.2584C41.6719 21.2355 41.6894 21.2169 41.7118 21.2067C41.7342 21.1965 41.7597 21.1955 41.7827 21.204C41.8057 21.2125 41.8242 21.2297 41.8343 21.2519C41.8444 21.2742 41.8452 21.2995 41.8364 21.3224C41.5128 22.7025 41.5852 24.142 42.0453 25.4766C42.3268 26.3409 42.6744 27.1761 42.9124 28.0462C42.8479 27.5162 42.7864 27.0249 42.725 26.5337L42.7341 26.5289ZM48.0639 25.887C48.1297 24.5459 48.1195 23.1931 48.0837 21.8136C48.028 19.7022 47.913 17.6106 47.6695 15.5177C47.6108 15.0065 47.5955 14.491 47.6239 13.9765C46.2814 17.89 47.5977 21.719 48.0547 25.8918L48.0639 25.887ZM48.4886 24.9839C48.8329 21.3494 48.3969 17.8445 48.1334 14.2371C48.0963 15.4909 48.1422 16.7451 48.2709 17.9915C48.4332 20.1618 48.4513 22.3563 48.4898 24.5343L48.4886 24.9839ZM47.9973 12.3811L47.9735 11.939C45.6702 13.3036 45.575 18.5677 45.9953 20.5328C46.3598 22.3259 47.2889 23.9881 47.8065 25.7408C47.2237 21.076 45.5324 16.6795 47.9973 12.3811ZM49.8022 17.4888C49.6688 16.1015 49.3268 14.7436 48.7876 13.4604C48.6157 13.0905 48.4967 12.698 48.4342 12.2945C48.3933 12.4484 48.3639 12.602 48.3276 12.7536C49.123 17.3694 49.4614 22.3645 48.4222 26.941L48.4068 27.2426C49.7654 24.1704 50.2467 20.7917 49.7974 17.4798L49.8022 17.4888ZM57.0315 1.98736C56.2846 2.19146 55.1061 4.47621 54.8559 4.86144C53.6313 6.70203 52.9859 8.86037 53.0029 11.0585C53.0261 12.8878 53.4978 14.6416 53.5638 16.4311L53.5826 16.3233C53.2115 11.3321 54.4097 6.3365 57.0116 2.02666L57.0315 1.98736ZM53.9593 14.3924C54.3248 12.4732 54.6342 10.503 55.1194 8.60118C55.4239 6.95442 55.8572 5.33276 56.4154 3.75105C55.575 5.50483 54.8973 7.33014 54.3909 9.2041C54.0484 10.9101 53.902 12.6478 53.9545 14.3834L53.9593 14.3924ZM57.3049 1.99855C56.7394 4.42035 55.905 6.81714 55.2311 9.20979C54.8954 10.8658 54.6563 12.5285 54.376 14.2014C54.8126 12.9352 55.2861 11.6726 55.7022 10.4115C56.5326 7.6703 57.0789 4.85408 57.3326 2.00696L57.3049 1.99855ZM57.5742 2.43196C57.5472 2.37147 57.5162 2.31282 57.4816 2.25638C57.0713 7.00062 55.9941 11.6698 54.2815 16.1273C56.4465 11.7453 58.9698 7.50235 57.5443 2.43045L57.5742 2.43196ZM59.2401 18.1212C57.9736 18.8002 56.7748 19.5983 55.6602 20.5045C58.8603 18.7129 62.4243 17.5119 65.2455 15.057C63.3358 15.4486 60.8384 17.2608 59.2102 18.1197L59.2401 18.1212ZM64.5221 14.9091C62.6774 15.3321 60.8897 15.9775 59.1989 16.8309C57.408 17.8554 55.8454 19.234 54.6087 20.8808C55.999 19.7546 57.4718 18.7334 59.0145 17.8259C60.3137 17.0485 61.7183 16.5262 63.0032 15.7218C63.4667 15.3975 63.9646 15.1252 64.4877 14.91L64.5221 14.9091ZM53.8809 22.1682C54.6162 21.8206 56.5943 22.1871 57.2094 22.0526C60.0352 21.4251 62.799 18.9717 64.6814 16.9083C64.6314 16.9347 65.9606 15.52 65.7666 14.9317C64.3178 16.5937 62.3334 17.5599 60.4077 18.6045C58.2958 19.7588 56.1552 20.8477 54.0403 21.9633C53.9137 22.0761 53.7941 22.191 53.6745 22.3059L53.8809 22.1682ZM53.5424 21.8461C54.6834 20.1314 56.1241 18.6326 57.7954 17.4216C60.0595 15.6518 62.3358 15.228 64.9506 14.6083C64.2765 14.5328 63.5959 14.5236 62.9188 14.5809C61.2714 14.7753 59.6974 15.3837 58.3457 16.3486C56.1218 17.7865 54.6905 19.9226 53.2616 22.0633L53.5424 21.8461ZM54.7307 26.0936C54.7716 26.072 54.808 26.0528 54.8211 26.0114C54.8341 25.97 54.8574 25.9922 54.8756 25.9826C54.8689 25.8884 54.8337 25.7986 54.7747 25.7251C54.6988 25.6507 54.5972 25.6077 54.4902 25.6047C54.4932 25.625 54.4902 25.6459 54.4816 25.6648C54.473 25.6836 54.4591 25.6996 54.4416 25.7109C54.3581 25.7729 54.2795 25.8413 54.2065 25.9155L54.2326 25.965C54.2653 26.0435 54.3051 26.1188 54.3514 26.1901C54.3965 26.2756 54.513 26.2429 54.5992 26.186C54.6066 26.1576 54.6238 26.1327 54.648 26.1157C54.6721 26.0988 54.7014 26.0909 54.7307 26.0936ZM53.9048 26.6328C53.9546 26.7274 53.9489 26.7937 54.0201 26.7964C54.1382 26.7832 54.2472 26.7257 54.3248 26.6357C54.3138 26.6439 54.3015 26.6504 54.2884 26.6549C54.2019 26.6371 54.1217 26.5974 54.0555 26.5395C53.9893 26.4817 53.9395 26.4077 53.9108 26.3247C53.8863 26.3552 53.8646 26.3878 53.8459 26.4222L53.9048 26.6328ZM54.1309 29.4312C52.7344 30.1762 51.4656 31.1389 50.3734 32.2823C53.6011 30.102 57.7479 28.6282 61.3661 27.3757C59.0875 27.0238 56.0501 28.5397 54.1381 29.4447L54.1309 29.4312ZM61.6631 27.4319C59.6564 28.3005 57.6161 29.0948 55.6166 29.9884C54.3574 30.5548 53.1458 31.2227 51.9223 31.8681L52.3914 31.6552C55.5139 30.2785 58.5943 28.855 61.6885 27.4358L61.6631 27.4319ZM61.9587 27.5292C59.641 29.2524 56.677 30.2462 54.0317 31.3481C52.2883 32.0729 50.5934 32.9093 48.9575 33.8521C50.2344 33.5066 51.5854 33.3234 52.8588 33.0372C56.2192 32.2659 59.5042 29.9519 61.9067 27.5739C61.9067 27.5739 61.9385 27.5571 61.9521 27.5499L61.9587 27.5292ZM56.575 33.304C58.2578 32.4163 62.6794 30.13 62.0222 27.7489C60.1263 29.8193 57.791 31.4445 55.1883 32.5047C52.9058 33.49 50.4469 33.711 48.1145 34.4694C50.9664 34.0124 53.8662 34.7156 56.5821 33.3175L56.575 33.304ZM45.9851 41.5201C47.6333 42.4404 49.3869 42.5685 51.23 42.5688C53.2153 42.5632 56.2925 43.5584 57.9465 42.2083C56.2074 42.6365 54.5066 42.377 52.7567 42.0685C50.4263 41.6404 48.0712 41.6282 45.7304 41.3898L45.9851 41.5201ZM44.9201 41C46.8214 41.0444 48.7314 41.1936 50.6217 41.3935C53.0501 41.6548 55.3778 42.4526 57.8189 41.9994C53.5063 41.3484 49.1507 40.998 44.7838 40.951L44.9201 41ZM57.8313 41.7914C54.4427 39.4124 48.8196 39.4322 44.4402 40.7295C48.7769 40.1337 53.632 40.686 57.8384 41.8049L57.8313 41.7914ZM50.0137 39.723C52.5766 39.666 56.086 39.6621 58.0788 41.5112C57.1846 40.1357 52.9934 38.9684 52.1344 38.8058C49.32 38.2647 46.9537 39.1792 44.5095 40.3649C46.3136 39.9324 48.1616 39.7169 50.0137 39.723ZM40.5218 33.9513L40.4945 33.9657L40.3932 33.9501C40.2999 33.9476 40.2064 33.9507 40.1133 33.9596C39.9404 33.9858 39.7729 34.041 39.6182 34.123C39.2861 34.2981 39.1389 34.5369 39.328 34.8515C39.3398 34.8797 39.3541 34.9069 39.3708 34.9325C39.52 34.8066 39.6838 34.6989 39.8586 34.6119C40.1311 34.4603 40.3629 34.2452 40.5338 33.9852C40.5338 33.9852 40.5338 33.9853 40.5611 33.9709L40.5218 33.9513ZM41.0239 34.5727C40.9427 34.7024 40.8352 34.8139 40.7084 34.9003C40.6577 35.0542 40.5802 35.1983 40.4795 35.326L40.4961 35.3575C40.559 35.33 40.6198 35.2979 40.678 35.2616C40.8009 35.1978 40.9004 35.0967 40.9618 34.9732C41.0232 34.8497 41.0434 34.7101 41.0194 34.5751L41.0239 34.5727ZM42.1372 30.1585C41.1587 29.5524 40.3962 28.6576 39.955 27.5978C39.9458 27.5896 39.9399 27.5784 39.9384 27.5662C39.5661 27.2792 39.1827 27.0153 38.7969 26.7469C39.7533 28.3947 40.6439 29.9507 42.425 30.8584C42.342 30.6201 42.2444 30.3871 42.1326 30.1609L42.1372 30.1585ZM40.7162 30.5397C41.1318 30.6773 41.5458 30.7237 41.9238 30.812C40.3711 29.9737 38.7528 28.4046 38.5681 26.6547C38.5663 26.6441 38.5674 26.6332 38.5713 26.6231C38.5751 26.6129 38.5816 26.604 38.59 26.5971L38.404 26.465C38.459 28.1452 38.8533 29.9398 40.7117 30.5421L40.7162 30.5397Z" fill="#455C6B"/>
<path d="M18.4122 49.4395L18.5692 49.6564C18.5376 49.6814 18.5082 49.7093 18.4815 49.7396C18.4148 49.8215 18.4818 49.9645 18.5921 49.9271L18.7402 49.881C19.5498 50.7912 20.5528 51.5047 21.6746 51.9687C22.7964 52.4327 24.0082 52.6352 25.2201 52.5611L25.2702 52.5703C24.5292 52.8495 23.7783 53.0886 23.0175 53.2875C23.0038 53.2798 22.9879 53.2769 22.9724 53.2792L22.7169 53.29C20.9722 53.295 19.1231 52.5125 17.4082 52.4394C16.0221 52.3793 14.1941 53.0382 14.0979 54.6672L14.0579 54.6599C14.0347 54.6633 14.0135 54.675 13.9981 54.6929C13.9828 54.7108 13.9744 54.7337 13.9745 54.7574C13.9746 54.781 13.9832 54.8038 13.9987 54.8214C14.0142 54.8391 14.0355 54.8505 14.0587 54.8535C21.7532 55.419 29.8338 51.7792 35.4349 46.4469C34.7958 47.3389 34.1525 48.225 33.4879 49.0862C31.8796 51.1653 30.2028 53.1849 28.4576 55.1449C26.9847 56.4314 25.3265 57.4838 23.5404 58.2655C20.0196 58.5887 15.8779 57.4967 12.625 59.0712C11.1206 59.7997 7.5045 61.6058 7.9037 63.7802C7.79236 63.8337 7.68449 63.8943 7.58076 63.9616C7.54453 63.9834 7.51829 64.0188 7.50784 64.06C7.49739 64.1013 7.50358 64.1449 7.52504 64.1814C7.54649 64.2179 7.58147 64.2443 7.62226 64.2547C7.66306 64.2651 7.70633 64.2587 7.74257 64.2369L7.93093 64.1407C7.94049 64.1476 7.95135 64.1524 7.96284 64.1549C7.97434 64.1574 7.98623 64.1575 7.99779 64.1552C8.00935 64.153 8.02033 64.1483 8.03006 64.1416C8.0398 64.1349 8.04808 64.1262 8.05441 64.1162L8.09963 64.067C9.38761 63.5602 11.0609 64.0022 12.3911 63.8586C13.7997 63.7066 15.1938 63.437 16.5591 63.0526C19.1555 62.2762 21.5048 60.8213 23.3689 58.8353C24.6457 58.2923 25.8602 57.6099 26.9907 56.8003C26.5727 57.2466 26.1547 57.6929 25.7117 58.1346C22.9228 61.0095 19.8376 63.5753 16.509 65.7879C16.2033 65.9881 15.8858 66.1966 15.5797 66.3707C12.8711 67.2606 10.0004 67.3681 7.33968 68.3922C4.31153 69.5583 2.34971 72.7594 0.360105 75.1504C0.280595 75.2456 0.3046 75.4539 0.45666 75.4712C6.7931 76.1909 11.5345 71.4856 15.3858 66.9782C15.8415 66.7217 16.2931 66.4593 16.7425 66.1808C18.0806 65.3484 19.3636 64.4288 20.5834 63.4279C20.5835 63.44 20.5813 63.452 20.577 63.4633C20.4408 63.6422 20.3068 63.8373 20.1787 64.0282C20.1637 64.0252 20.1482 64.0255 20.1332 64.0291C20.1183 64.0326 20.1043 64.0394 20.0921 64.049C15.66 67.6295 12.9472 74.3995 15.9282 79.6023C15.8825 79.6828 15.9442 79.7411 16.0112 79.7429C16.0781 79.7447 16.0574 79.8298 16.086 79.8716C16.1166 79.9155 16.1632 79.9455 16.2156 79.9551C16.268 79.9647 16.3221 79.9531 16.3664 79.9229C18.4567 78.4808 19.422 75.777 20.2141 73.4545C20.7245 71.9996 20.9819 70.4673 20.9751 68.9256C20.9933 68.4258 20.8865 67.9298 20.6645 67.4835C19.9424 65.9714 20.1734 65.1041 20.6817 63.7961C20.862 63.4893 21.0473 63.1834 21.2348 62.8936C22.3537 61.9534 23.434 60.9695 24.4811 59.9692C23.6571 61.1358 22.9783 62.5276 23.1197 63.7349C22.8623 63.9293 22.681 64.209 22.6079 64.5247C22.5372 64.7754 22.5364 65.0408 22.6056 65.2914C22.6748 65.5421 22.8113 65.7683 23.0001 65.9451C23.1435 66.0306 23.3036 66.0834 23.4695 66.1001C23.6354 66.1167 23.803 66.0968 23.9607 66.0416C24.1185 65.9864 24.2626 65.8973 24.3831 65.7805C24.5035 65.6637 24.5975 65.5219 24.6585 65.365C24.6752 65.2739 24.6304 65.1508 24.5201 65.1881C24.3653 65.2527 24.2161 65.3303 24.0741 65.4202C24.0741 65.4202 24.0787 65.3949 24.0805 65.3847C24.1837 65.3097 24.2803 65.2259 24.3695 65.1344C24.5032 65.019 24.6052 64.8708 24.6656 64.7042C24.726 64.5375 24.7427 64.3581 24.7142 64.1833C24.6348 63.7402 24.1358 63.5548 23.7482 63.5519C23.6776 63.5475 23.6066 63.5539 23.5378 63.5709C23.7844 62.0211 24.3673 60.5443 25.2445 59.2463L25.3322 59.163C26.9433 57.5967 28.4582 55.9343 29.9203 54.2205C29.4872 55.2667 29.1601 56.354 28.9439 57.4659C27.9294 59.8157 26.604 61.9988 26.3091 64.6579C26.0946 66.5947 25.3342 70.6114 27.0168 72.1058C27.0464 72.1296 27.0833 72.1423 27.1212 72.1416C27.1591 72.1409 27.1956 72.1269 27.2245 72.102C29.3923 72.8957 30.4946 68.9624 30.9284 67.5519C31.3222 66.3134 31.5835 65.0363 31.7079 63.7425C31.9582 60.9027 30.2057 58.1776 29.9371 55.3736C30.1128 54.7523 30.2945 54.1269 30.503 53.4959C31.6267 52.1332 32.7204 50.765 33.794 49.3931L34.464 48.559C34.3217 49.2762 34.2507 50.0057 34.252 50.7367C34.2373 50.7365 34.2228 50.7406 34.2104 50.7485C34.1979 50.7565 34.188 50.7678 34.1817 50.7813C31.5008 55.623 35.2009 62.4681 39.8576 64.3652C39.894 64.3839 39.9361 64.3881 39.9756 64.3769C40.015 64.3657 40.0489 64.34 40.0705 64.3048L40.1505 64.1783L40.3051 63.9556C40.3099 63.9462 40.3128 63.9359 40.3135 63.9253C40.3142 63.9148 40.3128 63.9042 40.3092 63.8942C40.3057 63.8843 40.3002 63.8751 40.293 63.8674C40.2859 63.8597 40.2772 63.8536 40.2676 63.8494C41.1998 62.5719 40.3703 60.8259 39.7939 59.5077C39.111 57.9505 38.6948 56.3218 38.0407 54.749C37.2789 52.916 35.5883 51.9743 34.7589 50.2282C34.7489 50.2 34.7295 50.1763 34.7039 50.1611C34.6783 50.1459 34.6482 50.1402 34.6189 50.1451C34.6439 49.4571 34.7123 48.7712 34.8237 48.0916C36.9029 45.5613 38.8104 42.8922 40.5329 40.1027C40.5435 40.0818 40.5463 40.0579 40.5408 40.0352C40.5354 40.0124 40.522 39.9925 40.5032 39.9789C40.4844 39.9654 40.4614 39.9591 40.4383 39.9612C40.4152 39.9634 40.3937 39.9738 40.3775 39.9906C38.9513 41.6155 37.6212 43.3238 36.3942 45.1064C36.3819 45.1043 36.3694 45.1054 36.3577 45.1097C36.346 45.114 36.3357 45.1213 36.3276 45.1308C35.1467 46.2686 33.7526 47.1566 32.2279 47.7423C31.1118 48.1864 29.9101 48.3064 28.8099 48.607C28.7763 48.2245 28.6343 47.8692 28.2961 47.8231C28.2114 47.7119 28.1051 47.6195 27.9835 47.5516C27.8391 47.461 27.6762 47.4048 27.5069 47.3871C27.3376 47.3694 27.1664 47.3908 27.0062 47.4496C26.846 47.5083 26.701 47.603 26.582 47.7264C26.4631 47.8498 26.3733 47.9988 26.3195 48.1621C26.3149 48.1873 26.3094 48.2177 26.3038 48.2481C26.2986 48.2271 26.2875 48.2081 26.2718 48.1933C26.2562 48.1786 26.2366 48.1687 26.2155 48.1648C26.1944 48.161 26.1727 48.1633 26.1528 48.1716C26.133 48.1798 26.1159 48.1937 26.1035 48.2114C25.9437 48.5163 25.9026 48.87 25.9882 49.203C26.0739 49.5361 26.2801 49.8242 26.5662 50.0106C26.6258 50.0646 26.6957 50.1059 26.7717 50.1319C26.8205 50.1596 26.8716 50.183 26.9245 50.2016C26.9417 50.2089 26.9608 50.21 26.9788 50.2047C26.9967 50.1994 27.0123 50.1881 27.023 50.1726C27.1228 50.1703 27.2214 50.1494 27.3137 50.1107C27.3465 50.0952 27.3776 50.0764 27.4067 50.0546C27.5174 50.1058 27.6373 50.1338 27.7591 50.1371C27.8809 50.1404 28.0022 50.1188 28.1158 50.0737C28.2294 50.0286 28.3328 49.9609 28.42 49.8745C28.5072 49.7882 28.5763 49.6851 28.6232 49.5713C28.7013 49.3977 28.746 49.2107 28.755 49.0204C30.6122 48.8466 32.4088 48.2553 34.013 47.2899C31.8742 49.1099 29.515 50.6476 26.9927 51.866L26.6999 51.9954C26.1909 52.1647 25.6612 52.2613 25.1261 52.2826C24.4712 51.8178 24.368 50.7691 23.8295 50.2054C23.387 49.7596 22.8483 49.4231 22.2552 49.2222C21.288 48.8519 19.7092 48.7984 18.7892 49.4718L18.541 49.301C18.4633 49.2449 18.3751 49.3595 18.4122 49.4395ZM17.3907 54.318C17.6938 54.2071 18.0029 54.1135 18.3164 54.0378C18.8863 53.9203 19.4694 53.8844 20.0486 53.9311C19.172 54.0845 18.2859 54.2047 17.3907 54.318ZM20.5348 53.8475C19.107 53.4871 17.5941 53.7058 16.32 54.4568C15.6431 54.5369 14.962 54.6109 14.2709 54.6832C14.8314 53.9388 15.1343 53.2729 16.0947 52.9728C17.0551 52.6727 18.1854 52.8585 19.1914 53.0164L20.1928 53.1995C18.3173 53.0708 16.3601 53.0213 15.1857 54.4062C15.1665 54.4214 15.154 54.4436 15.151 54.4681C15.148 54.4925 15.1547 54.5171 15.1697 54.5365C15.1847 54.5559 15.2067 54.5685 15.2309 54.5714C15.2551 54.5744 15.2795 54.5675 15.2987 54.5523C16.5183 53.8298 17.9132 53.4672 19.3244 53.5059C20.2333 53.5154 21.1344 53.5965 22.0357 53.5627C21.5108 53.6601 21.0237 53.7488 20.5366 53.8374L20.5348 53.8475ZM21.5205 59.1246C20.2609 59.5895 18.9673 59.9854 17.6405 60.3648C15.6096 60.9448 13.5797 61.4622 11.5101 61.8574C11.0048 61.9547 10.5084 62.0948 10.0261 62.276C13.357 59.8219 17.4045 59.9296 21.5223 59.1144L21.5205 59.1246ZM20.7863 59.8005C17.4222 61.2188 13.9479 61.8537 10.4275 62.684C11.6125 62.2726 12.8227 61.9404 14.0504 61.6895C16.1695 61.1936 18.2685 60.5528 20.3578 59.9365L20.7863 59.8005ZM8.61603 63.1107L8.18718 63.2205C8.79839 60.614 13.7917 58.9448 15.7924 58.7566C17.6123 58.5667 19.4766 58.9547 21.3038 58.9229C16.679 59.7656 11.9777 59.4703 8.61603 63.1107ZM14.0299 63.301C12.6664 63.5897 11.2685 63.6706 9.8827 63.541C9.47822 63.4879 9.06817 63.4921 8.66443 63.5534C8.79901 63.4683 8.93676 63.3941 9.07042 63.314C13.7124 62.6888 18.5791 61.514 22.6335 59.1504L22.9166 59.0453C20.3931 61.2626 17.3142 62.7347 14.0199 63.2992L14.0299 63.301ZM1.40933 74.8456C1.38008 74.0719 3.20637 72.2626 3.49884 71.9083C4.88757 70.1882 6.7531 68.9254 8.85515 68.2825C10.6072 67.7561 12.4218 67.6802 14.1487 67.2067L14.0516 67.2569C9.17877 68.3995 4.77226 71.0404 1.44084 74.8148L1.40933 74.8456ZM12.3225 68.1953C10.6011 69.1194 8.81433 70.0054 7.14551 71.0384C5.66581 71.8226 4.2487 72.7223 2.90714 73.7291C4.32824 72.4014 5.86638 71.2077 7.50229 70.1627C9.02711 69.3244 10.6409 68.6637 12.3125 68.1934L12.3225 68.1953ZM1.50197 75.103C3.64279 73.8375 5.67911 72.3228 7.75963 70.9625C9.23883 70.1457 10.7533 69.419 12.2652 68.65C11.1882 69.4463 10.1256 70.2765 9.04729 71.0516C6.6812 72.6657 4.15835 74.0313 1.51829 75.1269L1.50197 75.103ZM1.99619 75.23C1.93038 75.2224 1.86515 75.2105 1.80091 75.1943C6.20386 73.3804 10.3352 70.9528 14.0741 67.9824C10.5429 71.3617 7.25175 75.0411 1.98579 75.202L1.99619 75.23ZM17.4631 72.115C17.7311 70.7032 18.1331 69.3203 18.6633 67.9853C17.9137 71.5754 17.8366 75.3355 16.3405 78.7629C16.1414 76.8237 17.1215 73.8978 17.4527 72.087L17.4631 72.115ZM15.9825 78.1172C15.8329 76.2305 15.9126 74.3315 16.2197 72.4627C16.6601 70.4469 17.5068 68.5429 18.707 66.8694C18.0495 68.5334 17.5169 70.2446 17.1137 71.9884C16.7616 73.4609 16.6845 74.9575 16.3024 76.4245C16.1319 76.9638 16.0215 77.5205 15.973 78.0841L15.9825 78.1172ZM19.717 65.789C19.6059 66.5947 20.5486 68.3719 20.6047 68.999C20.8534 71.883 19.3415 75.2552 17.9375 77.6697C17.9477 77.614 16.9966 79.3063 16.3772 79.2976C17.5283 77.4171 17.8551 75.2343 18.2742 73.0841C18.7422 70.7232 19.1391 68.3546 19.5693 66.0025C19.6389 65.848 19.7127 65.6994 19.7864 65.5508L19.717 65.789ZM19.3082 65.5627C18.0145 67.1653 17.0166 68.9891 16.3625 70.9467C15.353 73.6371 15.6311 75.9358 15.824 78.6162C15.5498 77.9957 15.337 77.3492 15.1886 76.6861C14.8801 75.0561 14.9886 73.3722 15.5039 71.7933C16.2088 69.2406 17.8175 67.2347 19.4312 65.2297L19.3082 65.5627ZM23.7166 65.4227C23.7082 65.4683 23.7008 65.5087 23.6652 65.5336C23.6296 65.5584 23.6578 65.574 23.6541 65.5943C23.5623 65.6161 23.4661 65.6095 23.3782 65.5752C23.2845 65.5251 23.213 65.4411 23.178 65.3399C23.1984 65.3367 23.2174 65.3276 23.2328 65.3137C23.2482 65.2998 23.2593 65.2818 23.2648 65.2617C23.2989 65.1634 23.3406 65.0679 23.3895 64.9761L23.4445 64.9861C23.5292 64.9938 23.613 65.0091 23.6949 65.0319C23.79 65.0493 23.7938 65.1703 23.7653 65.2696C23.7404 65.2851 23.7218 65.3091 23.7129 65.3372C23.7039 65.3652 23.7052 65.3956 23.7166 65.4227ZM23.9834 64.4731C24.0885 64.4923 24.1501 64.467 24.174 64.5341C24.1968 64.6507 24.1746 64.7719 24.112 64.873C24.1166 64.86 24.119 64.8463 24.1194 64.8325C24.0766 64.7553 24.0146 64.6907 23.9396 64.6449C23.8645 64.5991 23.7789 64.5737 23.6912 64.5712C23.713 64.5387 23.7376 64.5083 23.7647 64.4802L23.9834 64.4731ZM26.7208 63.8498C27.0128 62.2941 27.5507 60.7951 28.314 59.4103C27.2019 63.1432 27.0392 67.5411 26.9292 71.3684C25.9103 69.3002 26.4457 65.948 26.7358 63.8526L26.7208 63.8498ZM27.0719 71.6349C27.2989 69.46 27.4448 67.2755 27.6978 65.1001C27.8606 63.7289 28.1345 62.3728 28.3833 61.0122L28.3208 61.5235C27.9438 64.9151 27.5094 68.2805 27.0832 71.6579L27.0719 71.6349ZM27.2533 71.8877C28.2024 69.16 28.2617 66.0344 28.5197 63.1804C28.6885 61.2999 28.9782 59.4321 29.3871 57.5888C29.4403 58.9106 29.6706 60.2544 29.7794 61.555C30.0512 64.9921 28.8286 68.8198 27.2804 71.8247C27.2804 71.8247 27.2739 71.8601 27.2711 71.8752L27.2533 71.8877ZM31.1482 65.0202C30.806 66.8917 29.9506 71.7955 27.482 71.8824C28.8887 69.4529 29.7389 66.7378 29.9699 63.937C30.2255 61.4641 29.699 59.052 29.7232 56.5996C30.1424 59.4572 31.6827 62.0128 31.1633 65.0229L31.1482 65.0202ZM35.8111 52.4541C37.1832 53.7505 37.8312 55.385 38.3842 57.1432C38.9741 59.0389 40.8461 61.6761 40.0541 63.6588C39.9411 61.8713 39.1836 60.3266 38.3646 58.7497C37.2575 56.6549 36.5397 54.4117 35.6103 52.2501L35.8111 52.4541ZM34.9956 51.594C35.608 53.3945 36.323 55.1719 37.0805 56.9153C38.0579 59.1536 39.5169 61.135 39.8165 63.5997C37.9023 59.6807 36.2622 55.6305 34.908 51.4787L34.9956 51.594ZM39.6218 63.6739C36.3363 61.1545 34.6691 55.7842 34.5936 51.2173C35.3256 55.5331 37.3082 59.9993 39.6368 63.6766L39.6218 63.6739ZM35.3046 56.8362C36.0186 59.2982 37.0671 62.6473 39.4287 63.994C37.8483 63.5534 35.4781 59.905 35.0654 59.1343C33.7054 56.6117 33.8682 54.08 34.2665 51.3928C34.3949 53.2435 34.7434 55.0711 35.3046 56.8362ZM26.9524 49.5115L26.958 49.4811L26.9127 49.3892C26.8823 49.3009 26.8573 49.2108 26.8378 49.1194C26.811 48.9465 26.8135 48.7702 26.8452 48.598C26.9127 48.2287 27.0964 48.0166 27.4532 48.1028C27.4837 48.1055 27.5139 48.1111 27.5434 48.1193C27.4679 48.2994 27.4143 48.4879 27.3837 48.6808C27.3208 48.9862 27.1851 49.2718 26.9884 49.5128C26.9884 49.5128 26.9884 49.5128 26.9828 49.5432L26.9524 49.5115ZM27.6957 49.8042C27.7951 49.6878 27.8693 49.5518 27.9136 49.405C28.0453 49.3105 28.1596 49.1933 28.2512 49.059L28.2862 49.0654C28.2788 49.1336 28.2665 49.2013 28.2492 49.2677C28.2252 49.4041 28.1586 49.5292 28.0592 49.6249C27.9598 49.7205 27.8327 49.7816 27.6967 49.7992L27.6957 49.8042ZM23.8184 52.1898C22.9469 51.4381 21.8647 50.979 20.7212 50.8759C20.7107 50.8695 20.6983 50.8673 20.6862 50.8695C20.3007 50.6003 19.934 50.3137 19.5623 50.0262C21.421 50.4445 23.1724 50.8275 24.5724 52.2545C24.3202 52.2468 24.0687 52.2235 23.8194 52.1847L23.8184 52.1898ZM23.7561 50.7199C24.0119 51.0752 24.1803 51.4562 24.3779 51.7903C23.1126 50.5604 21.1305 49.487 19.4057 49.8355C19.3951 49.837 19.385 49.8413 19.3765 49.848C19.368 49.8547 19.3614 49.8636 19.3573 49.8737L19.1756 49.7359C20.7949 49.2845 22.6252 49.1226 23.757 50.7149L23.7561 50.7199Z" fill="#455C6B"/>
<rect x="2.94995" y="30" width="65" height="27" fill="white"/>
<path d="M21.08 37.008C21.784 37.008 22.4953 37.074 23.214 37.206C23.9326 37.338 24.5046 37.5287 24.93 37.778C25.062 37.8367 25.1426 37.9027 25.172 37.976C25.216 38.0347 25.2453 38.1447 25.26 38.306L25.502 40.77C25.502 40.814 25.4653 40.8433 25.392 40.858C25.3186 40.858 25.2746 40.836 25.26 40.792C24.9373 39.6627 24.336 38.834 23.456 38.306C22.5906 37.7633 21.5126 37.492 20.222 37.492C19.1073 37.492 18.132 37.7413 17.296 38.24C16.46 38.724 15.8146 39.4133 15.36 40.308C14.9053 41.2027 14.678 42.2367 14.678 43.41C14.678 44.774 14.9566 46.0353 15.514 47.194C16.086 48.3527 16.8486 49.2693 17.802 49.944C18.77 50.6187 19.8113 50.956 20.926 50.956C21.982 50.956 22.8986 50.67 23.676 50.098C24.4533 49.5113 25.0473 48.6167 25.458 47.414C25.458 47.37 25.4873 47.348 25.546 47.348C25.59 47.348 25.6266 47.3553 25.656 47.37C25.7 47.3847 25.722 47.4067 25.722 47.436L25.414 49.922C25.3846 50.098 25.348 50.2153 25.304 50.274C25.2746 50.318 25.194 50.3693 25.062 50.428C23.742 50.9853 22.3486 51.264 20.882 51.264C19.122 51.264 17.648 50.912 16.46 50.208C15.2866 49.4893 14.4213 48.58 13.864 47.48C13.3066 46.38 13.028 45.2213 13.028 44.004C13.028 42.6547 13.402 41.4447 14.15 40.374C14.898 39.3033 15.888 38.4747 17.12 37.888C18.352 37.3013 19.672 37.008 21.08 37.008Z" fill="#4B4444"/>
<path d="M43.1519 48.808C43.1946 48.8187 43.2106 48.856 43.1999 48.92C43.1999 48.9733 43.1839 49 43.1519 49H41.4239C40.9439 49 40.2133 48.616 39.2319 47.848C38.3679 48.744 37.2906 49.192 35.9999 49.192C35.3386 49.192 34.7839 49.08 34.3359 48.856C33.8986 48.632 33.5679 48.3387 33.3439 47.976C33.1306 47.6133 33.0239 47.224 33.0239 46.808C33.0239 46.2 33.2106 45.672 33.5839 45.224C33.9679 44.7653 34.5173 44.2747 35.2319 43.752C35.0399 43.464 34.8853 43.1973 34.7679 42.952C34.4586 42.2693 34.3039 41.688 34.3039 41.208C34.3039 40.7493 34.4159 40.328 34.6399 39.944C34.8639 39.5493 35.1786 39.24 35.5839 39.016C35.9893 38.7813 36.4479 38.664 36.9599 38.664C37.4719 38.664 37.9093 38.7867 38.2719 39.032C38.6453 39.2773 38.8319 39.6827 38.8319 40.248C38.8319 40.664 38.7253 41.0427 38.5119 41.384C38.2986 41.7253 38.0319 42.024 37.7119 42.28C37.4026 42.536 36.9866 42.8347 36.4639 43.176C36.4426 43.1867 36.3519 43.2453 36.1919 43.352C36.9386 44.568 38.0746 45.7573 39.5999 46.92C39.9733 46.2693 40.1599 45.5493 40.1599 44.76C40.1599 44.376 40.0799 44.088 39.9199 43.896C39.7706 43.704 39.4719 43.608 39.0239 43.608C38.9919 43.608 38.9706 43.576 38.9599 43.512C38.9599 43.448 38.9813 43.416 39.0239 43.416L42.3679 43.4C42.4106 43.4 42.4319 43.432 42.4319 43.496C42.4319 43.56 42.4106 43.592 42.3679 43.592C42.0053 43.592 41.7333 43.6293 41.5519 43.704C41.3706 43.768 41.2426 43.8587 41.1679 43.976C41.0933 44.0933 41.0186 44.28 40.9439 44.536C40.6346 45.592 40.2666 46.4453 39.8399 47.096C40.4693 47.5547 41.0773 47.9333 41.6639 48.232C42.2506 48.5307 42.7466 48.7227 43.1519 48.808ZM35.2319 40.536C35.2319 41.3573 35.5093 42.232 36.0639 43.16C36.6506 42.7227 37.0986 42.3013 37.4079 41.896C37.7279 41.48 37.8879 41.016 37.8879 40.504C37.8879 40.0347 37.7599 39.6667 37.5039 39.4C37.2586 39.1333 36.9226 39 36.4959 39C35.6533 39 35.2319 39.512 35.2319 40.536ZM36.7199 48.712C37.1679 48.712 37.5893 48.6213 37.9839 48.44C38.3786 48.2587 38.7306 48.008 39.0399 47.688C38.9759 47.6453 38.8799 47.5707 38.7519 47.464C38.1119 46.9733 37.4933 46.4187 36.8959 45.8C36.2986 45.1813 35.7919 44.5627 35.3759 43.944C34.9599 44.2853 34.6346 44.6427 34.3999 45.016C34.1653 45.3787 34.0479 45.7893 34.0479 46.248C34.0479 46.696 34.1599 47.112 34.3839 47.496C34.6186 47.8693 34.9386 48.168 35.3439 48.392C35.7599 48.6053 36.2186 48.712 36.7199 48.712Z" fill="#BF9B1C"/>
<path d="M61.6679 37.25C61.7119 37.25 61.7339 37.294 61.7339 37.382C61.7339 37.47 61.7119 37.514 61.6679 37.514C61.1693 37.514 60.7366 37.646 60.3699 37.91C60.0033 38.174 59.6953 38.6213 59.4459 39.252L54.7599 50.978C54.7453 51.0367 54.6646 51.066 54.5179 51.066C54.4006 51.066 54.3199 51.0367 54.2759 50.978L48.7979 39.076C48.5486 38.504 48.2846 38.1007 48.0059 37.866C47.7273 37.6313 47.3679 37.514 46.9279 37.514C46.8839 37.514 46.8619 37.47 46.8619 37.382C46.8619 37.294 46.8839 37.25 46.9279 37.25L47.7639 37.272C48.1746 37.3013 48.5046 37.316 48.7539 37.316C49.3406 37.316 49.9713 37.3013 50.6459 37.272L51.5479 37.25C51.5919 37.25 51.6139 37.294 51.6139 37.382C51.6139 37.47 51.5919 37.514 51.5479 37.514C51.0933 37.514 50.7486 37.5727 50.5139 37.69C50.2939 37.8073 50.1839 38.0053 50.1839 38.284C50.1839 38.46 50.2499 38.6947 50.3819 38.988L54.9799 49.064L58.9399 39.142C59.0573 38.834 59.1159 38.592 59.1159 38.416C59.1159 38.108 58.9766 37.8807 58.6979 37.734C58.4193 37.5873 57.9866 37.514 57.3999 37.514C57.3559 37.514 57.3339 37.47 57.3339 37.382C57.3339 37.294 57.3559 37.25 57.3999 37.25L58.3459 37.272C58.8446 37.3013 59.2993 37.316 59.7099 37.316C60.0179 37.316 60.3626 37.3013 60.7439 37.272L61.6679 37.25Z" fill="#4B4444"/>
<line x1="67.7" y1="30.25" x2="3.19995" y2="30.25" stroke="#455C6B" stroke-width="0.5" stroke-linecap="round"/>
<line x1="67.7" y1="57.25" x2="3.19995" y2="57.25" stroke="#455C6B" stroke-width="0.5" stroke-linecap="round"/>
</svg>
